<svg xmlns="http://www.w3.org/2000/svg" viewBox="0 0 98.625 20.35416"><defs><style>.cls-1{fill:#858c92;}</style></defs><title>cc</title><path class="cls-1" d="M3.951 14.432a.765.765 0 0 0-.671-.338c-.385 0-.786.182-.786.619 0 .338.188.489.775.676.572.182 1.103.37 1.103 1.093 0 .733-.629 1.077-1.295 1.077a1.336 1.336 0 0 1-1.134-.51l.375-.307a.892.892 0 0 0 .786.411c.375 0 .801-.219.801-.64 0-.453-.307-.531-.962-.75-.521-.171-.916-.4-.916-1.015a1.119 1.119 0 0 1 1.254-1.061 1.265 1.265 0 0 1 1.03.432zM7.673 14.542a1.133 1.133 0 0 0-.921-.447 1.465 1.465 0 0 0-1.405 1.53 1.434 1.434 0 0 0 1.405 1.53 1.298 1.298 0 0 0 1.067-.515l.328.275a1.636 1.636 0 0 1-1.395.646 1.937 1.937 0 0 1 0-3.871 1.594 1.594 0 0 1 1.301.577zM8.751 13.782h.437v1.561h1.967v-1.561h.437v3.684h-.437v-1.717h-1.967v1.717h-.437zM12.289 15.624a1.925 1.925 0 1 1 1.925 1.936 1.87 1.87 0 0 1-1.925-1.936zm3.382 0a1.459 1.459 0 1 0-1.457 1.53 1.456 1.456 0 0 0 1.457-1.53zM16.623 15.624a1.925 1.925 0 1 1 1.925 1.936 1.87 1.87 0 0 1-1.925-1.936zm3.382 0a1.459 1.459 0 1 0-1.457 1.53 1.456 1.456 0 0 0 1.457-1.53zM21.171 13.782h.437v3.278h1.686v.406h-2.123zM27.062 15.231a2.068 2.068 0 0 1-.446 1.307 1.221 1.221 0 0 1-.925.571.514.514 0 0 1-.416-.192.937.937 0 0 1-.158-.601 1.992 1.992 0 0 1 .124-.636 1.895 1.895 0 0 1 .32-.598l.102-.13a1.576 1.576 0 0 1 .399-.368.866.866 0 0 1 .473-.149.468.468 0 0 1 .375.186.965.965 0 0 1 .152.61zm-1.649 1.443a.248.248 0 0 0 .289.286.445.445 0 0 0 .301-.146 2.858 2.858 0 0 0 .545-.917 2.863 2.863 0 0 0 .273-1.024.313.313 0 0 0-.067-.211.196.196 0 0 0-.152-.078.561.561 0 0 0-.39.219 3.115 3.115 0 0 0-.597 1.015 2.52 2.52 0 0 0-.203.856zM25.955 18.254a.267.267 0 0 1 .095-.029q.108 0 .19.146a.652.652 0 0 0 .069.105.241.241 0 0 0 .171.079.59.59 0 0 0 .33-.152 1.787 1.787 0 0 0 .309-.501 5.832 5.832 0 0 0 .255-.701l.311-1.069.057-.216.209-.749.13-.403-.086-.003-.102.005-.374.004.019-.158.143-.01.46-.016a7.812 7.812 0 0 1 .317-.875 2.186 2.186 0 0 1 .317-.492 1.243 1.243 0 0 1 .377-.301.56.56 0 0 1 .27-.057.476.476 0 0 1 .327.109.309.309 0 0 1 .124.227.19.19 0 0 1-.051.132.151.151 0 0 1-.114.056.224.224 0 0 1-.147-.054.306.306 0 0 1-.094-.168.239.239 0 0 0-.06-.117.17.17 0 0 0-.108-.032.229.229 0 0 0-.111.025.738.738 0 0 0-.216.193 1.58 1.58 0 0 0-.176.308 4.378 4.378 0 0 0-.203.579l-.122.464.086.006.298-.006.098.006.003.044a.458.458 0 0 1-.019.117l-.524.019-.104.355-.266.958-.038.124a1.286 1.286 0 0 0-.07.225l-.235.752a5.157 5.157 0 0 1-.309.717 2.157 2.157 0 0 1-.382.507 1.125 1.125 0 0 1-.355.238.814.814 0 0 1-.314.051.604.604 0 0 1-.369-.084.249.249 0 0 1-.103-.2.172.172 0 0 1 .085-.161zM31.576 13.782h.411l1.566 3.684h-.51l-.375-.905h-1.842l-.38.905h-.494zm.198.562h-.011l-.765 1.811h1.503zM34.037 13.782h.437v3.278h1.686v.406h-2.123zM36.636 13.782h.437v3.278h1.686v.406h-2.123zM39.234 13.782h.437v3.684h-.437zM40.585 13.782h2.315v.406h-1.878v1.155h1.753v.406h-1.753v1.312h1.972v.406h-2.409zM43.599 13.782h1.416a1.842 1.842 0 0 1 0 3.684h-1.416zm.437 3.278h.833a1.328 1.328 0 0 0 1.483-1.436 1.328 1.328 0 0 0-1.483-1.436h-.833zM48.962 13.782h.437v1.561h1.967v-1.561h.437v3.684h-.437v-1.717h-1.967v1.717h-.437zM52.714 13.782h2.315v.406h-1.878v1.155h1.753v.406h-1.753v1.312h1.972v.406h-2.409zM56.992 13.782h.411l1.566 3.684h-.51l-.375-.905h-1.842l-.38.905h-.494zm.198.562h-.011l-.765 1.811h1.504zM59.454 13.782h.437v3.278h1.686v.406h-2.123zM64.046 14.188h-1.218v3.278h-.438v-3.278h-1.217v-.406h2.872zM64.557 13.782h.437v1.561h1.967v-1.561h.438v3.684h-.438v-1.717h-1.967v1.717h-.437zM71.502 14.432a.765.765 0 0 0-.671-.338c-.385 0-.786.182-.786.619 0 .338.188.489.775.676.572.182 1.104.37 1.104 1.093 0 .733-.63 1.077-1.296 1.077a1.337 1.337 0 0 1-1.135-.51l.375-.307a.893.893 0 0 0 .786.411c.374 0 .801-.219.801-.64 0-.453-.307-.531-.963-.75-.52-.171-.915-.4-.915-1.015a1.119 1.119 0 0 1 1.254-1.061 1.263 1.263 0 0 1 1.03.432zM75.224 14.542a1.134 1.134 0 0 0-.921-.447 1.465 1.465 0 0 0-1.405 1.53 1.434 1.434 0 0 0 1.405 1.53 1.298 1.298 0 0 0 1.066-.515l.327.275a1.634 1.634 0 0 1-1.394.646 1.937 1.937 0 0 1 0-3.871 1.595 1.595 0 0 1 1.301.577zM76.301 13.782h.437v3.684h-.437zM77.653 13.782h2.315v.406h-1.879v1.155h1.754v.406h-1.754v1.312h1.973v.406h-2.409zM80.734 13.782h.552l2.133 3.06h.011v-3.06h.437v3.684h-.551l-2.134-3.06h-.011v3.06h-.437zM87.358 14.542a1.134 1.134 0 0 0-.921-.447 1.465 1.465 0 0 0-1.405 1.53 1.434 1.434 0 0 0 1.405 1.53 1.298 1.298 0 0 0 1.066-.515l.327.275a1.634 1.634 0 0 1-1.394.646 1.937 1.937 0 0 1 0-3.871 1.595 1.595 0 0 1 1.301.577zM88.436 13.782h2.315v.406h-1.879v1.155h1.754v.406h-1.754v1.312h1.973v.406h-2.409zM93.265 14.432a.765.765 0 0 0-.671-.338c-.385 0-.786.182-.786.619 0 .338.188.489.775.676.572.182 1.104.37 1.104 1.093 0 .733-.63 1.077-1.296 1.077a1.337 1.337 0 0 1-1.135-.51l.375-.307a.893.893 0 0 0 .786.411c.374 0 .801-.219.801-.64 0-.453-.307-.531-.963-.75-.52-.171-.915-.4-.915-1.015a1.119 1.119 0 0 1 1.254-1.061 1.263 1.263 0 0 1 1.03.432zM8.927 4.486a1.407 1.407 0 0 0-.439-.258l-.25 5.051 1.256-3.492a1.333 1.333 0 0 0-.567-1.301zM6.853 4.182l.739 5.041.718-5.038a2.101 2.101 0 0 0-1.457-.003zM6.242 4.481a1.334 1.334 0 0 0-.567 1.302l1.256 3.49-.25-5.05a1.417 1.417 0 0 0-.439.258zM3.714 4.961c.837 1.47 1.691 3.046 2.528 4.457-.296-1.234-.597-3.284-1.025-3.86a1.788 1.788 0 0 0-1.503-.597zM2.228 5.699l3.431 3.979-2.127-4.696a1.641 1.641 0 0 0-1.304.717zM9.406 6.774l-.568 2.728c.734-1.273 1.457-2.529 2.163-3.803a1.619 1.619 0 0 0-1.596 1.075zM11.205 5.699l-1.809 4.042 3.178-3.474a1.863 1.863 0 0 0-1.37-.568zM1.784 7.499c1.117.863 2.227 1.75 3.351 2.607l-3.019-4.272a2.996 2.996 0 0 0-.333 1.664zM12.964 6.763a1.233 1.233 0 0 0-.265-.367l-2.736 3.755c1.086-.812 2.139-1.642 3.187-2.469a1.842 1.842 0 0 0-.185-.919zM1.792 9.236l2.921 1.349c-.967-.967-1.944-1.906-2.921-2.858zM13.152 9.335v-1.377l-2.759 2.678c.937-.428 1.802-.849 2.759-1.301zM1.784 10.574l2.632.613-2.632-1.742zM13.152 10.654v-1.058c-.827.527-1.684 1.072-2.45 1.618zM1.784 11.895h2.571l-2.571-1.103v1.103zM13.152 11.895v-1.003c-.844.363-1.58.665-2.378 1.003zM12.262 4.361a1.1 1.1 0 1 0-2.198-.014c-.021 1.421 2.252 1.501 2.198.014zM12.262 4.352v.009999999999999998-.01zM4.917 3.561a1.116 1.116 0 1 0-2.232.004c-.082 1.536 2.378 1.558 2.232-.003zM7.594 3.86a1.188 1.188 0 0 0 1.269-1.244 1.177 1.177 0 0 0-1.266-1.353 1.178 1.178 0 0 0-1.25 1.353 1.174 1.174 0 0 0 1.247 1.243zM26.503 5.783h1.045v6.053h-1.045zM22.796 5.783l-1.774 5.134-1.729-2.181 2.304-2.952h-1.203l-2.14 2.873v-2.875h-1.046v6.053h1.046v-2.984l2.215 2.985h.234l-.001.005h1.023l.56-1.748h2.219l.581 1.741h1.091l-2.086-6.053zm-.24 3.467l.806-2.508h.024l.837 2.508zM61.459 10.163l-1.05-4.384h-1.827v6.053h1.026v-5.162l1.329 5.162h1.048c.013 0 1.321-5.153 1.321-5.153v5.153h1.018v-6.054h-1.787zM66.947 5.776l-2.095 6.058h1.023l.561-1.747h2.222l.585 1.749h1.092l-2.096-6.06zm-.24 3.466l.805-2.505h.025l.84 2.505zM74.577 10.45l-2.405-4.675-1.378.006.003 6.051h.987v-4.563l2.373 4.563h1.428v-6.058h-1.008zM94.376 10.951h-2.483v-1.71h1.837v-.878l-1.837-.001v-1.712c.239.005 2.272 0 2.272 0v-.878c-.617-.002-3.308.004-3.308.004l-.001 6.057 3.522.001zM84.852 5.773l.001.002h-.191v4.725l-2.405-4.721h-1.378v5.173h-3.172v-1.71h1.838v-.878l-1.838-.001v-1.712c.239.005 2.271 0 2.271 0v-.878c-.615-.002-3.306.004-3.306.004l-.001 6.057 5.119-.001h.081v-4.611l2.371 4.611h1.429v-5.139h1.835v5.141h1.049v-5.141h1.792l-.005-.92zM57.069 8.785a1.683 1.683 0 0 0 .576-1.288 1.659 1.659 0 0 0-.563-1.279 2.53 2.53 0 0 0-1.753-.439h-1.757v2.558h-.001v2.616h-3.196v-1.71h1.839v-.878l-1.839-.001v-1.712c.24.005 2.274 0 2.274 0v-.878c-.618-.002-3.308.004-3.308.004v6.057l5.281-.001v-2.573h.518c.481.756 1.5 2.582 1.5 2.582h1.248l-1.626-2.667a1.762 1.762 0 0 0 .808-.389zm-2.448-.412v-1.707h.883c.79 0 1.111.312 1.111.841 0 .583-.316.866-1.111.866zM40.573 8.785a1.684 1.684 0 0 0 .574-1.288 1.658 1.658 0 0 0-.565-1.279 2.524 2.524 0 0 0-1.751-.439h-1.756v2.558h-.003v2.616h-3.195v-1.71h1.839v-.878l-1.839-.001v-1.712c.239.005 2.273 0 2.273 0v-.878c-.616-.002-3.309.004-3.309.004v6.057l5.282-.001v-2.573h.518c.48.756 1.5 2.582 1.5 2.582h1.247l-1.627-2.667a1.77 1.77 0 0 0 .81-.389zm-2.449-.412v-1.707h.883c.789 0 1.111.312 1.111.841 0 .583-.316.866-1.111.866zM48.127 6.234a2.526 2.526 0 0 0-1.753-.456h-1.756v6.057h1.05v-2.491h.706a2.493 2.493 0 0 0 1.746-.472 1.822 1.822 0 0 0 .008-2.639zm-1.577 2.224h-.883v-1.792h.883c.789 0 1.112.352 1.112.883 0 .55-.36.909-1.112.909zM30.6 8.302c-.821-.304-1.211-.531-1.211-1.007 0-.364.366-.779 1.096-.779a3.031 3.031 0 0 1 1.304.317v-.871a3.183 3.183 0 0 0-1.282-.282c-1.297 0-2.19.732-2.19 1.717 0 .874.671 1.403 1.687 1.751.788.278 1.122.556 1.122 1.026 0 .512-.434.869-1.158.869a3.349 3.349 0 0 1-1.652-.44v.942a3.603 3.603 0 0 0 1.579.355c1.564 0 2.302-.844 2.302-1.801 0-.885-.539-1.403-1.596-1.797zM95.336 10.763a.996.996 0 1 1 .997 1.024.991.991 0 0 1-.997-1.024zm.997 1.229a1.226 1.226 0 1 0-1.246-1.229 1.224 1.224 0 0 0 1.246 1.229zm-.258-1.132h.246l.372.614h.241l-.404-.623a.368.368 0 0 0 .367-.389c0-.279-.165-.403-.499-.403h-.538v1.414h.214zm0-.181v-.437h.291c.15 0 .308.033.308.207 0 .217-.161.231-.342.231z"/></svg>