<svg xmlns="http://www.w3.org/2000/svg" viewBox="0 0 104.5 39.68372"><defs><style>.cls-1{fill:#858c92;}</style></defs><title>cc</title><path class="cls-1" d="M10.094 15.51c-1.019 0-1.311.146-1.311.947v6.515a8.074 8.074 0 0 0 .436 2.73 4.326 4.326 0 0 0 2.73.691c2.766 0 4.804-1.893 4.804-5.059 0-3.276-2.693-5.825-6.661-5.825m1.201-10.155c-2.402 0-2.511.327-2.511 1.055v7.899c0 .582.473.51 1.347.51a29.326 29.326 0 0 1 3.749.218 4.463 4.463 0 0 0 2.257-4.368c0-1.82-1.529-5.315-4.842-5.315m.474 21.694c-1.529 0-3.058-.364-4.659-.364-1.529 0-2.329.146-3.494.146-.364 0-.619-.037-.619-.4 0-.365.218-.437 1.019-.437 1.638 0 1.711-.072 1.711-.618v-16.744c0-2.875-.583-3.203-1.602-3.203-1.638 0-1.784-.037-1.784-.473 0-.255.109-.291.728-.291 1.129 0 2.257.036 3.531.036.764 0 2.512-.218 5.787-.218 4.732 0 6.771 2.439 6.771 5.023a5.378 5.378 0 0 1-2.73 4.659 12.512 12.512 0 0 0-1.493.983c0 .073.692.255 1.42.619 1.71.874 3.858 2.111 3.858 5.278 0 4.076-3.385 6.005-8.445 6.005M26.942 14.212c-2.406 0-3.166 3.609-3.166 4.052 0 .158 0 .19.38.19a39.986 39.986 0 0 0 5.73-.792c.348-.063.38-.127.38-.316 0-.791-1.868-3.134-3.324-3.134m4.875 3.799a49.166 49.166 0 0 1-7.598 1.108c-.507.032-.602.19-.602.918 0 4.369 3.388 5.54 5.794 5.54a8.465 8.465 0 0 0 3.419-.76c.158 0 .253.19.253.254a8.972 8.972 0 0 1-5.256 2.153c-2.595 0-6.458-1.267-6.458-6.553 0-4.464 3.008-7.124 5.888-7.124a7.039 7.039 0 0 1 4.812 2.375 4.825 4.825 0 0 1 1.045 1.646c0 .127-.443.253-1.298.443M43.404 17.156c-.443 0-.823-1.298-2.406-1.298-1.836 0-2.533.76-2.533 2.089v6.522c0 1.551.095 1.551 2.438 1.551.823 0 .855.095.855.38 0 .349-.031.317-.855.317-.443 0-2.564-.158-3.578-.158-1.076 0-2.153.158-2.596.158-.729 0-.792 0-.792-.317s.032-.38.792-.38c1.298 0 1.393-.031 1.393-.475v-8.675c0-2.153.063-2.216-1.709-2.216-.57 0-.57.032-.57-.317 0-.38-.032-.475.507-.475 1.076 0 1.678.063 2.311.063l1.615-.158c.127 0 .253.095.253.349l-.063.95c0 .285.031.506.158.506.475 0 1.963-1.647 3.45-1.647.57 0 2.026.697 2.026 1.52 0 .316-.506 1.709-.696 1.709M58.379 26.844l-1.076-.031-1.773.031c-.571 0-.856-.792-2.185-2.311s-2.66-3.514-2.85-3.514a5.844 5.844 0 0 0-1.108.665c-.506.317-.95.539-.95.824v1.994c0 1.488-.063 1.488 1.899 1.488.728 0 .855.158.855.412 0 .317-.158.317-.855.317-.475 0-1.931-.063-2.944-.063-1.077 0-2.248.063-2.691.063-.728 0-.918-.032-.918-.317 0-.253.158-.412.918-.412 1.076 0 1.361 0 1.361-.475 0-.918.095-10.289.095-16.969 0-2.248-.253-2.533-1.108-2.533-1.298 0-1.424-.095-1.424-.317 0-.316.063-.443.411-.443a19.397 19.397 0 0 0 4.432-.696c.158 0 .222.095.222.285 0 .411-.063 1.742-.063 2.755 0 4.812-.19 8.358-.19 13.518 0 .127.032.222.127.222.791 0 4.085-2.912 5.098-3.863 1.235-1.171 1.519-1.709 1.519-2.374 0-.507-.095-.57-1.488-.57-.475 0-.633-.063-.633-.348 0-.254.158-.317.57-.317.316 0 .918.095 1.298.095l2.628-.095c.254 0 .38.032.38.127a9.662 9.662 0 0 1-2.058 2.596c-1.583 1.552-3.546 2.944-3.546 3.166 0 .285.57.886 2.786 3.546 1.077 1.298 2.09 2.849 3.166 2.849.76 0 1.013.159 1.013.412 0 .221-.222.285-.918.285M63.857 14.212c-2.406 0-3.165 3.609-3.165 4.052 0 .158 0 .19.38.19a40.01 40.01 0 0 0 5.73-.792c.348-.063.38-.127.38-.316 0-.791-1.868-3.134-3.324-3.134m4.876 3.799a49.17 49.17 0 0 1-7.598 1.108c-.507.032-.601.19-.601.918 0 4.369 3.387 5.54 5.793 5.54a8.473 8.473 0 0 0 3.42-.76c.158 0 .253.19.253.254a8.971 8.971 0 0 1-5.255 2.153c-2.596 0-6.459-1.267-6.459-6.553 0-4.464 3.008-7.124 5.889-7.124a7.042 7.042 0 0 1 4.813 2.375 4.832 4.832 0 0 1 1.045 1.646c0 .127-.443.253-1.298.443M75.704 26.717c-.475 0-1.171-.064-1.742-.064-1.076 0-2.754.064-3.197.064-.728 0-.792-.064-.792-.316 0-.222.032-.412.792-.412 1.298 0 1.836.031 1.836-.538v-17.445c0-1.994-.19-1.994-1.614-1.994-.57 0-.887-.063-.887-.412 0-.38.254-.348.792-.38a16.816 16.816 0 0 0 3.862-.696c.158 0 .316.158.316.506 0 .38-.158 1.52-.158 2.47 0 12.062-.158 14.563-.158 15.482 0 2.627.221 2.976.791 2.976 1.583 0 1.52.19 1.52.444 0 .316-.222.316-1.361.316M82.118 14.212c-2.406 0-3.166 3.609-3.166 4.052 0 .158 0 .19.38.19a39.986 39.986 0 0 0 5.731-.792c.348-.063.38-.127.38-.316 0-.791-1.869-3.134-3.325-3.134m4.876 3.799a49.162 49.162 0 0 1-7.599 1.108c-.506.032-.602.19-.602.918 0 4.369 3.388 5.54 5.794 5.54a8.461 8.461 0 0 0 3.419-.76c.158 0 .253.19.253.254a8.97 8.97 0 0 1-5.255 2.153c-2.597 0-6.459-1.267-6.459-6.553 0-4.464 3.008-7.124 5.889-7.124a7.039 7.039 0 0 1 4.812 2.375 4.826 4.826 0 0 1 1.044 1.646c0 .127-.443.253-1.298.443M101.336 14.623c-.697 0-2.09 3.799-4.59 9.878-1.996 4.843-3.42 7.408-4.433 9.498-.348.697-.728.728-1.425.823a16.27 16.27 0 0 1-1.868.38c-.539 0-.855-.158-.855-.316 0-.19 1.488-.38 2.564-1.741 1.14-1.425 3.863-5.161 3.863-6.11 0-.349-2.532-6.206-4.274-10.322-.791-1.899-1.013-2.058-1.583-2.058-.634 0-.665-.032-.665-.316s.095-.444.665-.444c.886 0 1.108.063 1.868.063.886 0 1.994-.095 3.008-.095.665 0 .791.127.791.475 0 .285-.127.316-.791.316-.76 0-.95.19-.95.918 0 .918.823 2.026 2.723 6.902.254.665.634 1.203.76 1.203.221 0 .412-.443.918-1.932.76-2.279 1.899-5.572 1.899-6.015 0-.95 0-1.139-1.076-1.139-.981 0-1.108 0-1.108-.317 0-.412.095-.412.665-.412l2.28.063 1.773-.126c.506 0 .665.031.665.38 0 .285-.443.443-.823.443M6.653 34.738a1.404 1.404 0 0 1-1.563-1.539v-2.762h.735v2.799c0 .531.223.877.828.877.599 0 .821-.346.821-.871v-2.805h.735v2.755a1.403 1.403 0 0 1-1.557 1.545"/><path class="cls-1" d="M11.774 34.67l-1.785-2.842h-.012v2.842h-.736v-4.164l.711-.074 1.724 2.786h.018v-2.78h.736v4.232h-.656zM13.479 30.438h.735v4.232h-.735zM17.204 34.67h-.809l-1.458-4.233h.778l.81 2.36s.08.247.284.97h.037c.21-.723.29-.964.29-.964l.809-2.367h.723zM21.955 34.67h-2.571v-4.238h2.521v.624h-1.785v1.167h1.588v.624h-1.588v1.199h1.89l-.055.624zM24.327 31.068h-.606v1.292h.618a.59.59 0 0 0 .649-.661c0-.396-.161-.631-.661-.631m.877 3.603l-.587-1.193c-.124-.253-.278-.5-.544-.5h-.352v1.693h-.735v-4.233h1.359a1.219 1.219 0 0 1 1.396 1.254 1.158 1.158 0 0 1-.797 1.149v.012a.668.668 0 0 1 .26.29l.81 1.526zM27.916 34.738a2.428 2.428 0 0 1-1.396-.469l.308-.544a2.102 2.102 0 0 0 1.087.389c.488 0 .729-.272.729-.587 0-.791-1.872-.537-1.872-1.959a1.245 1.245 0 0 1 1.372-1.198 2.362 2.362 0 0 1 1.229.377l-.266.531a2.038 2.038 0 0 0-.964-.284c-.408 0-.618.228-.618.544 0 .958 1.872.525 1.872 1.965a1.36 1.36 0 0 1-1.483 1.236"/><path class="cls-1" d="M30.275 30.438h.735v4.232h-.735zM34.779 31.062h-1.069v3.608h-.735v-3.602h-1.118v-.63h2.978l-.056.624zM37.386 32.86v1.811h-.735v-1.811l-1.334-2.422h.828l.562 1.205.303.624h.018l.284-.624.599-1.205h.81zM43.069 30.994c-.729 0-1.088.63-1.088 1.551 0 .927.359 1.569 1.088 1.569.723 0 1.081-.642 1.081-1.563s-.352-1.557-1.081-1.557m0 3.744c-1.279 0-1.841-.976-1.841-2.187 0-1.273.568-2.181 1.841-2.181 1.273 0 1.841.908 1.841 2.181 0 1.211-.562 2.187-1.841 2.187"/><path class="cls-1" d="M46.59 31.056v1.168h1.557v.623h-1.557v1.823h-.735v-4.238h2.471v.624h-1.736zM52.965 34.738c-1.303 0-1.872-.883-1.872-2.181 0-1.273.624-2.187 1.897-2.187a2.123 2.123 0 0 1 1.408.544l-.382.494a1.509 1.509 0 0 0-1.026-.414c-.747 0-1.143.562-1.143 1.557 0 1.001.37 1.563 1.155 1.563a1.697 1.697 0 0 0 1.119-.488l.377.482a2.271 2.271 0 0 1-1.533.63"/><path class="cls-1" d="M57.105 32.192l-.34-1.013h-.012c-.284.877-.334 1.013-.334 1.013l-.327.933h1.341zm.865 2.478l-.352-1.02h-1.705l-.352 1.02h-.686l1.489-4.171.859-.068 1.502 4.239zM61.824 34.67h-2.502v-4.232h.735v3.608h1.823l-.056.624zM62.596 30.438h.735v4.232h-.735zM65.024 31.056v1.168h1.556v.623h-1.556v1.823h-.736v-4.238h2.472v.624h-1.736zM69.076 30.994c-.729 0-1.088.63-1.088 1.551 0 .927.358 1.569 1.088 1.569.723 0 1.081-.642 1.081-1.563s-.352-1.557-1.081-1.557m0 3.744c-1.279 0-1.842-.976-1.842-2.187 0-1.273.568-2.181 1.842-2.181 1.273 0 1.841.908 1.841 2.181 0 1.211-.562 2.187-1.841 2.187"/><path class="cls-1" d="M72.894 31.068h-.606v1.292h.618a.59.59 0 0 0 .649-.661c0-.396-.16-.631-.661-.631m.877 3.603l-.587-1.193c-.123-.253-.278-.5-.544-.5h-.352v1.693h-.735v-4.233h1.36a1.218 1.218 0 0 1 1.396 1.254 1.157 1.157 0 0 1-.797 1.149v.012a.664.664 0 0 1 .259.29l.81 1.526zM77.688 34.67l-1.785-2.842h-.013v2.842h-.735v-4.164l.71-.074 1.724 2.786h.019v-2.78h.735v4.232h-.655zM79.268 30.438h.735v4.232h-.735zM82.834 32.192l-.34-1.013h-.012c-.284.877-.334 1.013-.334 1.013l-.328.933h1.341zm.864 2.478l-.352-1.02h-1.705l-.352 1.02h-.686l1.489-4.171.859-.068 1.501 4.239z"/></svg>