<svg xmlns="http://www.w3.org/2000/svg" viewBox="0 0 128.5498962 85.3311539" enable-background="new 0 0 128.5498962 85.3311539"><style type="text/css">.st0{fill-rule:evenodd;clip-rule:evenodd;fill:#858C92;} .st1{fill:#858C92;} .st2{fill:#C2C5C8;} .st3{fill:#E0E2E4;} .st4{fill:#A3A8AD;} .st5{fill:none;} .st6{fill:#59595C;} .st7{fill:#FFFFFF;} .st8{fill:#241F21;} .st9{fill:none;stroke:#FFFFFF;stroke-width:0.1152273;} .st10{fill:#333F49;} .st11{fill:#48525B;} .st12{fill:#666F76;}</style><g id="Layer_1"><path class="st5" d="M13.955 57.696m.003-.011l-.001.003.001-.003m.014-.046l-.002.008.002-.008m.016-.052.025-.077l-.025.076.025-.076m.001-.006l-.001.003.001-.003m.002-.007l-.001.003.001-.003m.003-.006l-.002.005.002-.005m.001-.007l-.001.003.001-.003m.005-.018 20.239-23.475c-2.044.293-1.158 4.308-1.158 4.308s-.747-.67-1.019-.873c-.271-.207-.962-.093-1 .496-.067 1.083 1.313 1.827 2.058 3.552.742 1.72-2.307 6.175-2.307 6.175s-.423.467-.519-.079c-.095-.546-2.849-11.399-9.007-9.577-4.831 1.427-7.293 10.186-7.099 10.23 0 0 .035.454-.512.028-1.578-1.222-.609-4.106-.171-5.399.441-1.294 2.757-3.41 3.17-4.096.408-.688.238-1.394-.286-1.584-.527-.188-1.511 1.48-1.511 1.48.164-.505.984-1.668 1.072-2.391.085-.721-.897-1.132-1.706-.796-1.07.443-1.185 2.28-1.185 2.28-.014-.218-.149-2.482-1.409-2.025-.766.279-.652 1.094-.444 1.69-.227-.322-.591-.566-1.128-.202-.592.4.259 2.024.115 1.757-.145-.266-.548-1.279-1.226-.798-.678.479.579 2.93.543 3.427-.035.5-.378 1.235-.618 2.628-.241 1.39-.742 3.625.248 6.58.691 2.054 3.364 2.719 3.364 2.719s-.475.551-1.439 1.29c-2.44 1.862-3.832 1.739-4.23 1.543-.397-.196-.599-.801-1.019-.28-.325.4-.039.745.109.88-.286-.228-1.321-.98-1.971-.434-.616.518-.282 1.308.718 1.912 1 .602 2.772 1.082 5.44.663 1.536-.241 3.812-1.386 3.812-1.386-.377 1.211-.252 1.098-.717 2.442-.423 1.233-.835 1.87-2.178 2.968-.462.374-1.421 1-2.548 1.56-1.123.563-1.677.908-1.397 1.359.376.603 1.471-.139 1.471-.139-.431.299-.338.789.037.884.335.083.768-.299 1.002-.54l-.011.045c-.076.336-.187.597.334.759.67.205 2.243-.805 2.904-1.302 1.76-1.315 1.921-1.313 2.639-2.072 1.006-1.058 2.011-1.818 1.632.555-.522 3.271-.382 2.283-.79 3.543-.188.591-1.004 1.553-1.703 1.647-.703.095-1.589.114-1.606.976-.015.805 1.517.788 2.671.779 1.159-.012 2.598.01 3.974-.676 1.375-.685 1.287-1.472 1.903-3.129.717-1.925 1.113-4.877 1.113-4.877.018.328.882 3.171 1.39 4.376.654 1.55 1.469 3.345 3.141 3.413 1.675.068 2.63.068 3.417-.034l.445-.067.45-.104c.258-.082.413-.19.545-.359.42-.535.13-1.092-.779-1.292-.835-.184-1.784-.435-2.04-.993-.221-.485-1.098-3.217-.922-4.97.07-.674 1.252.301 2.352 1.594 1.239 1.458 3.906 2.173 4.338 1.852.683-.513-.463-.717-.37-.871.17-.293.513-.155.895-.018.39.141.821.282 1.149-.039.486-.475-.856-.578-.629-.917.163-.245.498-.134.875-.021.439.131.938.26 1.291-.172.423-.52-1.39-.808-1.089-1.08.207-.183.6-.095 1.012-.005.539.116 1.111.232 1.342-.258.343-.721-1.782-.914-1.542-1.182.28-.313 1.484.17 1.627-.667.104-.629-1.324-.753-3.751-.614-1.15.067-2.845-.112-3.824-.375-1.219-.327-.522-.758.22-.649 1.553.23 3.162-.109 4.969-.977 1.469-.704 2.855-2.935 3.353-4.332.767-2.142.22-4.681-1.42-5.795-1.195-.811-.657.101-.515 1.239.254 2-.678 3.581-3.365 4.755-1.424.624-2.84.598-2.245-.058.056-.062 1.224-1.026 2.347-3.704 1.912-4.568.874-8.72 1.424-8.709.815.016 1.388-.138 1.678-.704.288-.569-.295-.646-.748-.674-.45-.031-.781-.088-.412-.474.665-.695 1.205-1.167 1.505-1.569.07-.095.119-.192.149-.287l-.167-.725-.1-.09c-.183-.14-.788.057-1.269.254-.265.108-.491.217-.589.269.224-.242.795-1.855.79-1.955-.008-.112-.213-.64-.978-.597-.771.046-2.077 2.508-1.965 2.227.107-.273 1.198-3.151-.227-3.151l-.177.013M13.955 57.696l-.003.01.003-.01m.003-.011l-.001.003.001-.003m.014-.046l-.002.008.002-.008m.016-.052l-.005.017.005-.017m.025-.077l-.025.076.025-.076m.001-.006l-.001.003.001-.003m.002-.007l-.001.003.001-.003m.003-.006l-.002.005.002-.005m.001-.007l-.001.003.001-.003m.005-.018 20.239-23.475c-2.044.293-1.158 4.308-1.158 4.308s-.747-.67-1.019-.873c-.271-.207-.962-.093-1 .496-.067 1.083 1.313 1.827 2.058 3.552.742 1.72-2.307 6.175-2.307 6.175s-.423.467-.519-.079c-.095-.546-2.849-11.399-9.007-9.577-4.831 1.427-7.293 10.186-7.099 10.23 0 0 .035.454-.512.028-1.578-1.222-.609-4.106-.171-5.399.441-1.294 2.757-3.41 3.17-4.096.408-.688.238-1.394-.286-1.584-.527-.188-1.511 1.48-1.511 1.48.164-.505.984-1.668 1.072-2.391.085-.721-.897-1.132-1.706-.796-1.07.443-1.185 2.28-1.185 2.28-.014-.218-.149-2.482-1.409-2.025-.766.279-.652 1.094-.444 1.69-.227-.322-.591-.566-1.128-.202-.592.4.259 2.024.115 1.757-.145-.266-.548-1.279-1.226-.798-.678.479.579 2.93.543 3.427-.035.5-.378 1.235-.618 2.628-.241 1.39-.742 3.625.248 6.58.691 2.054 3.364 2.719 3.364 2.719s-.475.551-1.439 1.29c-2.44 1.862-3.832 1.739-4.23 1.543-.397-.196-.599-.801-1.019-.28-.325.4-.039.745.109.88-.286-.228-1.321-.98-1.971-.434-.616.518-.282 1.308.718 1.912 1 .602 2.772 1.082 5.44.663 1.536-.241 3.812-1.386 3.812-1.386-.377 1.211-.252 1.098-.717 2.442-.423 1.233-.835 1.87-2.178 2.968-.462.374-1.421 1-2.548 1.56-1.123.563-1.677.908-1.397 1.359.376.603 1.471-.139 1.471-.139-.431.299-.338.789.037.884.335.083.768-.299 1.002-.54l-.011.045c-.076.336-.187.597.334.759.67.205 2.243-.805 2.904-1.302 1.76-1.315 1.921-1.313 2.639-2.072 1.006-1.058 2.011-1.818 1.632.555-.522 3.271-.382 2.283-.79 3.543-.188.591-1.004 1.553-1.703 1.647-.703.095-1.589.114-1.606.976-.015.805 1.517.788 2.671.779 1.159-.012 2.598.01 3.974-.676 1.375-.685 1.287-1.472 1.903-3.129.717-1.925 1.113-4.877 1.113-4.877.018.328.882 3.171 1.39 4.376.654 1.55 1.469 3.345 3.141 3.413 1.675.068 2.63.068 3.417-.034l.445-.067.45-.104c.258-.082.413-.19.545-.359.42-.535.13-1.092-.779-1.292-.835-.184-1.784-.435-2.04-.993-.221-.485-1.098-3.217-.922-4.97.07-.674 1.252.301 2.352 1.594 1.239 1.458 3.906 2.173 4.338 1.852.683-.513-.463-.717-.37-.871.17-.293.513-.155.895-.018.39.141.821.282 1.149-.039.486-.475-.856-.578-.629-.917.163-.245.498-.134.875-.021.439.131.938.26 1.291-.172.423-.52-1.39-.808-1.089-1.08.207-.183.6-.095 1.012-.005.539.116 1.111.232 1.342-.258.343-.721-1.782-.914-1.542-1.182.28-.313 1.484.17 1.627-.667.104-.629-1.324-.753-3.751-.614-1.15.067-2.845-.112-3.824-.375-1.219-.327-.522-.758.22-.649 1.553.23 3.162-.109 4.969-.977 1.469-.704 2.855-2.935 3.353-4.332.767-2.142.22-4.681-1.42-5.795-1.195-.811-.657.101-.515 1.239.254 2-.678 3.581-3.365 4.755-1.424.624-2.84.598-2.245-.058.056-.062 1.224-1.026 2.347-3.704 1.912-4.568.874-8.72 1.424-8.709.815.016 1.388-.138 1.678-.704.288-.569-.295-.646-.748-.674-.45-.031-.781-.088-.412-.474.665-.695 1.205-1.167 1.505-1.569.07-.095.119-.192.149-.288l-.168-.725-.099-.089c-.183-.14-.788.057-1.269.254-.265.108-.491.217-.589.269.224-.242.795-1.855.79-1.955-.008-.112-.213-.64-.978-.597-.771.046-2.077 2.508-1.965 2.227.107-.273 1.198-3.151-.227-3.151l-.177.013M44.209 64.769l.036.021-.025.041-.04.074.029-.136m-2.343-51.04l-.127.023c-.287-.01-.816-.046-.951.044.067.496.516.637.756.98-1.077.393-2.09.846-3.131 1.272.009.28.288.309.464.433-1.148.556-2.319 1.092-3.475 1.638v.16c.24.196.691.192.953.367-.637.207-1.143.541-1.833.703-.16.116-.423.136-.515.318-.394.119-.68.338-.732.774.162.098.49.044.684.114-.603.319-1.113.723-1.688 1.068l-.048.115c-.283.156-.565.31-.711.592-.202.01-.218.19-.295.318l.075.092c.218.021.423-.019.619-.06.286-.059.55-.118.799.016-.513.304-.99.639-1.395 1.044-.272.126-.378.408-.633.55-.037.138-.177.181-.149.383.215.149.501.086.766.024.158-.037.309-.075.434-.067-.351.578-.952.918-1.274 1.522l-.588.548c-.028.146-.172.185-.145.387.159.094.338.063.52.033.168-.029.34-.057.505.012-.052.155-.196.227-.22.411-.298.117-.353.458-.661.57-.145.31-.501.426-.538.841.372.099.927.033 1.297.182-.121.19-.343.274-.515.409-.208.161-.336.329-.512.5-.15.146-.378.339-.368.569.21.081.44.048.661.016.184-.028.361-.055.513-.016-.538.332-.834.892-1.343 1.25v.138c-.533.363-1.034.755-1.298 1.364.023.039.09.037.072.116.633-.02 1.48-.13 1.887.225-.445.359-.84.755-1.324 1.072l-.025.136c-.244.029-.219.31-.439.363v.116c-.364.398-.819.826-.855 1.454.245.079.526.022.822-.036.361-.07.743-.14 1.107.036-.19.172-.494.305-.682.433-.175.117-.247.24-.393.387l-.269.183-.048.136-.172.114-.05.136c-.124.152-.316.305-.39.433l-.05.228c-.149.233-.331.713-.22 1.023.431-.093.789-.374 1.199-.41l-.39.434c-.113.123-.202.258-.295.409l-.1.068-.024.159-.121.068-.027.16c-.1.243-.548.806-.243 1.024.316-.145.594-.45.93-.5-.244.269-.402.613-.539.98-.191.288-.378.586-.438 1-.101.098-.08.345-.048.5.099.014.19.035.242.09.042-.074.165-.073.268-.09-.434.52-.839 1.07-1.076 1.776l-.076.044-.071.046c-.164.46-.484.825-.635 1.297-.059.192-.083.376-.17.57.106.16.003.408.124.524l.136-.011.132-.012.071-.113c.312-.158.418-.51.858-.547l.072.068c.006.098.025.21 0 .296-.023.087-.156.226-.17.25l-.27.638-.242.455c-.095.157-.084.409-.122.567-.21.665-.21 1.62-.05 2.189.46-.036.59-.377.953-.503-.062.817-.453 1.561-.294 2.435-.13.798-.086 1.882.101 2.481-.027.195.041.31.169.363.378-.128.573-.423 1.102-.409.014.813.154 1.511.269 2.231.117.091.085.2.098.364.089.085.09.25.098.408.205.427.374.881.539 1.344.083.05.126.141.245.16.161-.139.302-.293.415-.479.339.528.423 1.289.832 1.754l-.05.069.146.113v.157c.297.248.314.758.759.866.246-.169.423-.396.76-.479.218.413.374.882.661 1.231.13-.005.117.115.172.182l.116.014.153.01c.088-.117.23-.181.368-.253.192.276.498.447.61.798-.49-.01-.739.209-1.15.273-.134.139-.347.207-.563.273l-.097.113c-.224.052-.277.258-.513.297-.192.276-.615.34-.735.68.359.244 1.024.202 1.492.342-.32.317-.759.55-1.051.89-.029.029.033.134-.075.091v.25c.163.131.4.192.612.273-.297.315-.722.51-.903.932.119.177.434.171.707.207-.093.284-.399.37-.439.704.1.216.435.211.772.206l.23-.001c.13.083.325.078.515.072.164-.005.326-.01.44.042-.397.417-.1.69.512.843.544.136 1.287.092 1.714.25.4-.243.845-.151 1.325-.059.326.062.668.125 1.023.082.057-.106.153-.175.246-.25.487-.039.833.082 1.167.205.247.09.49.179.779.205h.304c.026-.132.132-.181.123-.342l.098-.047h.44c.612.037 1.566.723 1.834 0 .516.005.746.38 1.272.298.18-.183.025-.419.049-.707.093.027.049-.076.098-.089.427.044.633.29 1.101.296.127-.283-.046-.499.025-.82.185.115.529.087.758.158.191-.277-.052-.675-.219-.841-.179-.524-.631-.796-.832-1.297.208.035.262-.073.391-.113.1-.132.044-.271.025-.343-.033-.123-.13-.398-.22-.524l-.172-.138c-.065-.118-.073-.134-.168-.225-.129-.117-.286-.218-.368-.34.09-.071.126-.187.245-.229.112-.738-.472-.918-.589-1.409.119.017.169-.022.24-.046.31.323.98 1.31 1.135 1.258-.247-.983.773-.221.797-.123l.47-.035c.256-.025.526-.05.565-.029-.097.387-.737.469-.955.819.308.238.956.158 1.321.34-.325.274-.73.473-1.103.708.18.393-.142.646-.072 1l.146.068c.318-.127.887-.203 1.2-.022.076.399-.361.512-.537.751.129.318.62.303.88.5-.143.104-.398.1-.488.25.138.248.291.165.488.137.037.099.159.058.27.091.363.104.713.421 1.223.296.362-.1.779.012 1.192.123.573.154 1.139.31 1.548-.1l.206.016c.103.017.164.033.283-.016.36.082.775.188 1.077.227.519.069 1.101.036 1.347-.159l.171-.091c.71.152 1.383.338 2.129.456l.049.068c.408.089.359-.244.391-.501.395.034.57.278.978.297.164-.19.183-.515.173-.867.239-.023.395.029.588.046.058-.014.018-.118.123-.09.061-.728-.421-1.12-.565-1.728.308-.044.726-.034 1.004.021.244-.177-.083-.415-.148-.545l-.095-.162c-.127-.185-.182-.483-.343-.567-.296-.471-.754-.785-1.298-1.024-.022-.177-.151-.376-.072-.57l.513.411c.125.016.123-.082.195-.115-.057-.478.219-.646.294-1l.078-.044.069-.046c.035.094.211.059.194.205h.149c.38-.231.397-.802.633-1.161l.271-.888c.131-.057.08-.3.123-.409.074-.183.295-.301.27-.567l.064-.026.083-.024c.1-.195.187-.403.263-.625.481.063-.037-.498.379-.641.031.121-.061.277.046.38.205.026.322-.095.513-.268.42-.367.078-.935.295-1.517l.035-.01.042-.025c-.044-.087.128-.315.167-.372.033.16.04.326-.001.508.313.247.533-.268.74-.558.632-.399.702-1.251.67-1.807.065.103.166.297.351.233.224-.735.207-1.403.105-2.051l-.102-.102c.085-.11-.046-.164-.011-.258.271.102.614.431.79.228-.095-.792.361-1.537.094-2.285.225.102.489.164.474-.111-.001-.066-.123-.49-.244-.688l-.083-.041-.098-.251-.112-.085-.025-.138-.122-.115-.014-.16-.115-.082-.034-.172c-.072-.129-.215-.205-.188-.326.104.03.192.012.28-.007l.202-.023c.196-.19.012-.331 0-.456l.036-.057c-.042-.119-.169-.219-.22-.318l-.015-.16c-.06-.101-.207-.158-.19-.273-.028-.03.164-.016.355-.003.188.014.374.027.348-.002.046-.115-.045-.192-.17-.265-.042-.156-.186-.288-.387-.404.14-.197-.052-.31.022-.494-.118-.153-.236-.309-.368-.459l-.018-.191c.217.067.552.038.661.206.142.026.147-.078.219-.115-.068-1.505-.376-2.791-.955-3.824.23-.035.361.019.492.074.105.044.21.088.365.085l.076-.045c.086-.412-.145-.866-.221-1.275-.029-.831-.453-1.342-.539-2.003l.49.389c.145-.063.162-.198.123-.389-.259-.479-.485-1.002-.711-1.477-.108-.231-.241-.412-.366-.637l-.368-.638c-.187-.09-.271-.277-.367-.453.374-.044.632-.029 1.077.022l.097-.092c.026-.288-.097-.508-.097-.704-.084-.052-.087-.177-.096-.297-.18-.357-.377-.698-.54-1.068l-.807-.75.129-.001c.117-.003.231-.007.287.046l.074-.046c.4.125 1.038.126.954-.391l-.195-.543-.123-.092c-.306-.683-.935-1.071-1.541-1.48l.237.003c.601.009 1.358.017 1.255-.571-.046-.264-.2-.439-.316-.615-.108-.158-.207-.347-.32-.455l-.22-.113-.05-.139-.121-.023-.22-.226c-.198-.124-.394-.221-.515-.364.528-.11.902-.362 1.078-.794-.045-.284-.226-.416-.368-.57-.362-.395-.728-.905-1.323-1.071l-.121-.136c.145.01.271 0 .398-.009l.287-.014.147-.137c-.012-.635-.457-.867-.661-1.321-.329-.271-.683-.519-1.053-.749.309-.03.582-.414.367-.705l.051-.048c-.14-.289-.423-.443-.541-.751-.173-.078-.267-.235-.342-.408-.089-.025-.134-.089-.147-.181-.171-.051-.196-.216-.317-.32-.23-.197-.563-.327-.686-.593.182-.028.316-.099.515-.113.262-.252-.018-.702-.222-.864-.224-.46-.62-.76-.979-1.094l-.048.046v-.137c-.16-.026-.19-.175-.318-.229-.418-.498-1.021-.824-1.568-1.206-.146-.016-.249-.069-.317-.158.273-.126.629-.132.782-.41l-.023-.112c-.58-.375-1.043-.855-1.764-1.094-.223-.231-.555-.362-.976-.41-.295-.19-.805-.177-1.149-.317.22-.257.822-.159.904-.547-.094-.123-.256-.142-.368-.228l-.049-.116-.244-.179-.068-.009-.08-.014c-.162-.15-.353-.175-.659-.252-.316-.078-.577-.166-.929-.181-.359-.145-.873-.128-1.394-.114-.715.147-1.355.368-2.031.547-.039.102-.196.089-.322.115-.071.11-.29.21-.487.136l-.368-.136c-.348.162-.742.393-1.197.408-.65-.412-1.3-.824-2.276-.932-.368-.28-.913-.275-1.417-.342l-.614-.136-.012-.001-.106.024M44.209 64.769l.036.021-.025.041-.04.074.029-.136m-2.343-51.04l-.127.023c-.287-.01-.816-.046-.951.044.067.496.516.637.756.98-1.077.393-2.09.846-3.131 1.272.009.28.288.309.464.433-1.148.556-2.319 1.092-3.475 1.638v.16c.24.196.691.192.953.367-.637.207-1.143.541-1.833.703-.16.116-.423.136-.515.318-.394.119-.68.338-.732.774.162.098.49.044.684.114-.603.319-1.113.723-1.688 1.068l-.048.115c-.283.156-.565.31-.711.592-.202.01-.218.19-.295.318l.075.092c.218.021.423-.019.619-.06.286-.059.55-.118.799.016-.513.304-.99.639-1.395 1.044-.272.126-.378.408-.633.55-.037.138-.177.181-.149.383.215.149.501.086.766.024.158-.037.309-.075.434-.067-.351.578-.952.918-1.274 1.522l-.588.548c-.028.146-.172.185-.145.387.159.094.338.063.52.033.168-.029.34-.057.505.012-.052.155-.196.227-.22.411-.298.117-.353.458-.661.57-.145.31-.501.426-.538.841.372.099.927.033 1.297.182-.121.19-.343.274-.515.409-.208.161-.336.329-.512.5-.15.146-.378.339-.368.569.21.081.44.048.661.016.184-.028.361-.055.513-.016-.538.332-.834.892-1.343 1.25v.138c-.533.363-1.034.755-1.298 1.364.023.039.09.037.072.116.633-.02 1.48-.13 1.887.225-.445.359-.84.755-1.324 1.072l-.025.136c-.244.029-.219.31-.439.363v.116c-.364.398-.819.826-.855 1.454.245.079.526.022.822-.036.361-.07.743-.14 1.107.036-.19.172-.494.305-.682.433-.175.117-.247.24-.393.387l-.269.183-.048.136-.172.114-.05.136c-.124.152-.316.305-.39.433l-.05.228c-.149.233-.331.713-.22 1.023.431-.093.789-.374 1.199-.41l-.39.434c-.113.123-.202.258-.295.409l-.1.068-.024.159-.121.068-.027.16c-.1.243-.548.806-.243 1.024.316-.145.594-.45.93-.5-.244.269-.402.613-.539.98-.191.288-.378.586-.438 1-.101.098-.08.345-.048.5.099.014.19.035.242.09.042-.074.165-.073.268-.09-.434.52-.839 1.07-1.076 1.776l-.076.044-.071.046c-.164.46-.484.825-.635 1.297-.059.192-.083.376-.17.57.106.16.003.408.124.524l.136-.011.132-.012.071-.113c.312-.158.418-.51.858-.547l.072.068c.006.098.025.21 0 .296-.023.087-.156.226-.17.25l-.27.638-.242.455c-.095.157-.084.409-.122.567-.21.665-.21 1.62-.05 2.189.46-.036.59-.377.953-.503-.062.817-.453 1.561-.294 2.435-.13.798-.086 1.882.101 2.481-.027.195.041.31.169.363.378-.128.573-.423 1.102-.409.014.813.154 1.511.269 2.231.117.091.085.2.098.364.089.085.09.25.098.408.205.427.374.881.539 1.344.083.05.126.141.245.16.161-.139.302-.293.415-.479.339.528.423 1.289.832 1.754l-.05.069.146.113v.157c.297.248.314.758.759.866.246-.169.423-.396.76-.479.218.413.374.882.661 1.231.13-.005.117.115.172.182l.116.014.153.01c.088-.117.23-.181.368-.253.192.276.498.447.61.798-.49-.01-.739.209-1.15.273-.134.139-.347.207-.563.273l-.097.113c-.224.052-.277.258-.513.297-.192.276-.615.34-.735.68.359.244 1.024.202 1.492.342-.32.317-.759.55-1.051.89-.029.029.033.134-.075.091v.25c.163.131.4.192.612.273-.297.315-.722.51-.903.932.119.177.434.171.707.207-.093.284-.399.37-.439.704.1.216.435.211.772.206l.23-.001c.13.083.325.078.515.072.164-.005.326-.01.44.042-.397.417-.1.69.512.843.544.136 1.287.092 1.714.25.4-.243.845-.151 1.325-.059.326.062.668.125 1.023.082.057-.106.153-.175.246-.25.487-.039.833.082 1.167.205.247.09.49.179.779.205h.304c.026-.132.132-.181.123-.342l.098-.047h.44c.612.037 1.566.723 1.834 0 .516.005.746.38 1.272.298.18-.183.025-.419.049-.707.093.027.049-.076.098-.089.427.044.633.29 1.101.296.127-.283-.046-.499.025-.82.185.115.529.087.758.158.191-.277-.052-.675-.219-.841-.179-.524-.631-.796-.832-1.297.208.035.262-.073.391-.113.1-.132.044-.271.025-.343-.033-.123-.13-.398-.22-.524l-.172-.138c-.065-.118-.073-.134-.168-.225-.129-.117-.286-.218-.368-.34.09-.071.126-.187.245-.229.112-.738-.472-.918-.589-1.409.119.017.169-.022.24-.046.31.323.98 1.31 1.135 1.258-.247-.983.773-.221.797-.123l.47-.035c.256-.025.526-.05.565-.029-.097.387-.737.469-.955.819.308.238.956.158 1.321.34-.325.274-.73.473-1.103.708.18.393-.142.646-.072 1l.146.068c.318-.127.887-.203 1.2-.022.076.399-.361.512-.537.751.129.318.62.303.88.5-.143.104-.398.1-.488.25.138.248.291.165.488.137.037.099.159.058.27.091.363.104.713.421 1.223.296.362-.1.779.012 1.192.123.573.154 1.139.31 1.548-.1l.206.016c.103.017.164.033.283-.016.36.082.775.188 1.077.227.519.069 1.101.036 1.347-.159l.171-.091c.71.152 1.383.338 2.129.456l.049.068c.408.089.359-.244.391-.501.395.034.57.278.978.297.164-.19.183-.515.173-.867.239-.023.395.029.588.046.058-.014.018-.118.123-.09.061-.728-.421-1.12-.565-1.728.308-.044.726-.034 1.004.021.244-.177-.083-.415-.148-.545l-.095-.162c-.127-.185-.182-.483-.343-.567-.296-.471-.754-.785-1.298-1.024-.022-.177-.151-.376-.072-.57l.513.411c.125.016.123-.082.195-.115-.057-.478.219-.646.294-1l.078-.044.069-.046c.035.094.211.059.194.205h.149c.38-.231.397-.802.633-1.161l.271-.888c.131-.057.08-.3.123-.409.074-.183.295-.301.27-.567l.064-.026.083-.024c.1-.195.187-.403.263-.625.481.063-.037-.498.379-.641.031.121-.061.277.046.38.205.026.322-.095.513-.268.42-.367.078-.935.295-1.517l.035-.01.042-.025c-.044-.087.128-.315.167-.372.033.16.04.326-.001.508.313.247.533-.268.74-.558.632-.399.702-1.251.67-1.807.065.103.166.297.351.233.224-.735.207-1.403.105-2.051l-.102-.102c.085-.11-.046-.164-.011-.258.271.102.614.431.79.228-.095-.792.361-1.537.094-2.285.225.102.489.164.474-.111-.001-.066-.123-.49-.244-.688l-.083-.041-.098-.251-.112-.085-.025-.138-.122-.115-.014-.16-.115-.082-.034-.172c-.072-.129-.215-.205-.188-.326.104.03.192.012.28-.007l.202-.023c.196-.19.012-.331 0-.456l.036-.057c-.042-.119-.169-.219-.22-.318l-.015-.16c-.06-.101-.207-.158-.19-.273-.028-.03.164-.016.355-.003.188.014.374.027.348-.002.046-.115-.045-.192-.17-.265-.042-.156-.186-.288-.387-.404.14-.197-.052-.31.022-.494-.118-.153-.236-.309-.368-.459l-.018-.191c.217.067.552.038.661.206.142.026.147-.078.219-.115-.068-1.505-.376-2.791-.955-3.824.23-.035.361.019.492.074.105.044.21.088.365.085l.076-.045c.086-.412-.145-.866-.221-1.275-.029-.831-.453-1.342-.539-2.003l.49.389c.145-.063.162-.198.123-.389-.259-.479-.485-1.002-.711-1.477-.108-.231-.241-.412-.366-.637l-.368-.638c-.187-.09-.271-.277-.367-.453.374-.044.632-.029 1.077.022l.097-.092c.026-.288-.097-.508-.097-.704-.084-.052-.087-.177-.096-.297-.18-.357-.377-.698-.54-1.068l-.807-.75.129-.001c.117-.003.231-.007.287.046l.074-.046c.4.125 1.038.126.954-.391l-.195-.543-.123-.092c-.306-.683-.935-1.071-1.541-1.48l.237.003c.601.009 1.358.017 1.255-.571-.046-.264-.2-.439-.316-.615-.108-.158-.207-.347-.32-.455l-.22-.113-.05-.139-.121-.023-.22-.226c-.198-.124-.394-.221-.515-.364.528-.11.902-.362 1.078-.794-.045-.284-.226-.416-.368-.57-.362-.395-.728-.905-1.323-1.071l-.121-.136c.145.01.271 0 .398-.009l.287-.014.147-.137c-.012-.635-.457-.867-.661-1.321-.329-.271-.683-.519-1.053-.749.309-.03.582-.414.367-.705l.051-.048c-.14-.289-.423-.443-.541-.751-.173-.078-.267-.235-.342-.408-.089-.025-.134-.089-.147-.181-.171-.051-.196-.216-.317-.32-.23-.197-.563-.327-.686-.593.182-.028.316-.099.515-.113.262-.252-.018-.702-.222-.864-.224-.46-.62-.76-.979-1.094l-.048.046v-.137c-.16-.026-.19-.175-.318-.229-.418-.498-1.021-.824-1.568-1.206-.146-.016-.249-.069-.317-.158.273-.126.629-.132.782-.41l-.023-.112c-.58-.375-1.043-.855-1.764-1.094-.223-.231-.555-.362-.976-.41-.295-.19-.805-.177-1.149-.317.22-.257.822-.159.904-.547-.094-.123-.256-.142-.368-.228l-.049-.116-.244-.179-.068-.009-.08-.014c-.162-.15-.353-.175-.659-.252-.316-.078-.577-.166-.929-.181-.359-.145-.873-.128-1.394-.114-.715.147-1.355.368-2.031.547-.039.102-.196.089-.322.115-.071.11-.29.21-.487.136l-.368-.136c-.348.162-.742.393-1.197.408-.65-.412-1.3-.824-2.276-.932-.368-.28-.913-.275-1.417-.342l-.614-.136-.012-.001-.106.024M50.956 55.71c.066.106.557.633.869.963.312.331 1.188.898 1.352 1.046.163.149.794.624 1.002.545.209-.078.615-.68.625-.79.013-.108-.108-.565-.14-.788-.034-.226.001-.344-.134-.425-.137-.079-3.667-.858-3.667-.858s.023.201.091.308M50.956 55.71c.066.106.557.633.869.963.312.331 1.188.898 1.352 1.046.163.149.794.624 1.002.545.209-.078.615-.68.625-.79.013-.108-.108-.565-.14-.788-.034-.226.001-.344-.134-.425-.137-.079-3.667-.858-3.667-.858s.023.201.091.308M53.597 58.239c-.245.043-1.053.455-1.257.545-.204.092-1.145.597-1.156.602v.001l.281.124c.029.018.22.005.469-.007.254-.012.567-.025.827-.006.425.03.961-.008 1.266-.016.192-.007.271-.179.265-.285-.01-.106.069-.343-.254-.715-.12-.137-.176-.252-.351-.252l-.089.009M53.597 58.239c-.245.043-1.053.455-1.257.545-.204.092-1.145.597-1.156.602v.001l.281.124c.029.018.22.005.469-.007.254-.012.567-.025.827-.006.425.03.961-.008 1.266-.016.192-.007.271-.179.265-.285-.01-.106.069-.343-.254-.715-.12-.137-.176-.252-.351-.252l-.089.009M64.574 53.909c-.445.091-.819.135-2.004.766-.287.153-.658.644-.966 1.117-.159-.35-.363-.706-.688-1.034-.235-.242-1.173-.712-1.418-.788-.426-.131-1.147-.178-1.739-.057-.364.075-1.056.263-2.004.767-.597.318-1.557 2.105-1.557 2.105l-.404 1.1-.362.877c-.113.35-.356 1.863-.372 1.988-.078.57-.326 1.911-.428 3.148-.033.395-.22 2.697.031 2.643.126-.027 1.191.063 2.365.153 1.15.088 2.405.175 2.993.153.585-.023 1.413-.137 2.257-.279 1.271.091 3.673.307 4.557.274 1.734-.066 5.605-.939 5.605-.939s.065-.225.031-.445c-.031-.222-.276-1.484-.459-2.305-.235-1.054-.447-2.17-.492-2.736-.047-.565-.695-3.586-.887-4.098-.193-.51-.412-1.068-.903-1.567-.235-.241-1.175-.71-1.418-.785-.256-.079-.618-.128-.993-.128-.251 0-.509.021-.745.07M64.574 53.909c-.445.091-.819.135-2.004.766-.287.153-.658.644-.966 1.117-.159-.35-.363-.706-.688-1.034-.235-.242-1.173-.712-1.418-.788-.426-.131-1.147-.178-1.739-.057-.364.075-1.056.263-2.004.767-.597.318-1.557 2.105-1.557 2.105l-.404 1.1-.362.877c-.113.35-.356 1.863-.372 1.988-.078.57-.326 1.911-.428 3.148-.033.395-.22 2.697.031 2.643.126-.027 1.191.063 2.365.153 1.15.088 2.405.175 2.993.153.585-.023 1.413-.137 2.257-.279 1.271.091 3.673.307 4.557.274 1.734-.066 5.605-.939 5.605-.939s.065-.225.031-.445c-.031-.222-.276-1.484-.459-2.305-.235-1.054-.447-2.17-.492-2.736-.047-.565-.695-3.586-.887-4.098-.193-.51-.412-1.068-.903-1.567-.235-.241-1.175-.71-1.418-.785-.256-.079-.618-.128-.993-.128-.251 0-.509.021-.745.07"/><path class="st6" d="M55.762 66.882l-.888-.048-.652 1.201.91.035zM54.505 68.795l.843-.343-.226-.301-1.019-.038zM57.488 66.863l.142.448.944-.064-.222-.463zM57.755 67.399l.155.554.902-.267-.269-.343zM58.576 68.832l-.693.554.518.333 1.162-.554-.391-.409zM59.171 68.673l-.344-.89-.776.228.556.733z"/><path class="st1" d="M64.826 66.928l-1.018-.034-.635.678.88.228zM64.029 67.877l-.989-.254.245.752.9-.155zM63.591 69.941l.268.293 1.104-.627c-.036-.102-.134-.38-.155-.479-.093-.004-.415.107-.61.182l-.607.631zM64.667 69.068l-.425-.775-.795.136.741.798c.091-.035.314-.119.479-.16"/><path class="st1" d="M66.079 66.819l.799-.112.14.554-.745.582zM66.985 67.41l.258.514-.852.406-.028-.436zM67.339 69.022l.889-.053-.16.594-1.235.363.014-.565zM66.793 69.299l-.345-.89.732-.346.08.915z"/><path class="st7" d="M63.946 56.12c-.244-.105-.558-.033-.77.107-.233.155-.302.408-.131.637.121.159.31.278.516.256.151-.016.307-.091.422-.202.018.025.112.039.127.003.11-.281.17-.657-.164-.801M57.132 56.123c-.243-.103-.558-.033-.768.109-.233.155-.304.407-.131.636.12.16.309.278.515.256.151-.017.308-.091.421-.201.02.023.114.039.129.002.108-.281.17-.657-.166-.802"/><path class="st8" d="M63.841 56.539l-.003-.004.003-.016c.016-.117-.124-.149-.23-.141-.075-.02-.154-.019-.213.012-.07.038-.082.101-.067.174l.008.031-.002.127c.053.138.271.125.369.05l.057-.078c.052-.037.094-.09.077-.154M57.024 56.539l.003-.014c.015-.119-.124-.15-.231-.142-.074-.021-.153-.02-.213.014-.068.036-.081.098-.065.174l.008.028v.128c.052.138.27.128.367.05l.058-.078c.05-.036.093-.088.074-.153l-.001-.005"/><path class="st1" d="M83.291 48.27c-.007-.149-.18-.402-.462-.402h-.104l-.002.935h.106c.282 0 .462-.213.463-.388v-.146zm2.356 5.309c0 .258-.201.409-.455.409l-1.327-.001c-.623 0-.621-1.396-.621-1.809l.023-.627c0-.403-.051-.813-.554-.813l-.001 2.802c0 .235-.215.446-.449.445h-1.358c-.235-.002-.445-.213-.445-.445l.011-7.545c0-.237.209-.448.447-.448l2.09.003c1.773.004 2.517.683 2.513 2.476-.002.653-.147 1.39-.703 1.799.635.517.676 1.518.676 2.276 0 .445.034.89.135 1.323l.02.155m17.756-15.005c-.004-.15-.176-.405-.458-.405h-.111v.933l.111.003c.282 0 .452-.216.458-.389v-.142zm2.355 5.307c0 .257-.198.411-.453.411h-1.328c-.626-.003-.621-1.404-.621-1.817l.023-.62c.003-.407-.055-.814-.556-.814l-.003 2.802c0 .234-.213.446-.449.446l-1.355-.001c-.233-.002-.448-.214-.448-.445l.008-7.548c0-.235.215-.447.451-.444l2.093.001c1.77.003 2.513.682 2.513 2.474-.003.657-.149 1.39-.706 1.801.637.511.678 1.518.676 2.273 0 .443.035.89.132 1.325l.022.156m17.283-4.754v-.008c-.416-.32-.779-.588-.777-.795 0-.126.073-.196.197-.196.395.004.092.68.523.667h.104v-.004l1.257.003c.233 0 .445-.211.445-.447v-.121c.001-1.499-1.111-2.482-2.577-2.485-1.379-.001-2.515.866-2.517 2.312-.003 1.066.682 1.84 1.399 2.449l.039.031c.567.487 1.228.869 1.228 1.154 0 .123-.074.184-.2.184-.399 0-.095-.672-.519-.656h-.763v-.01h-.856c-.244 0-.447.21-.447.456-.003.267.032.534.078.787.265 1.372 1.111 1.996 2.48 2 1.651 0 2.74-.747 2.743-2.493.003-1.312-.99-2.183-1.837-2.829m-12.47 24.619c.236 0 .448-.212.448-.447l.01-7.542c0-.235-.211-.449-.447-.449l-1.801-.003c-.327 0-.597.159-.665.734-.063.52-.214 1.647-.24 1.953-.056-.33-.191-1.418-.299-1.953-.108-.525-.366-.734-.721-.734h-1.805c-.232 0-.445.209-.445.441l-.01 7.548c0 .232.213.446.446.446l1.157.002c.233 0 .44-.214.44-.446l.005-2.356c.032.155.228 1.718.274 1.916.084.44.067.886.559.886h.659c.524 0 .487-.422.57-.894l.267-1.902-.003 2.353c-.002.236.211.443.442.443l1.158.005zm-12.928-23.763v-.558c-.005-.579-.058-1.228-.466-1.228h-.116l-.005 3.598h.114c.424 0 .466-.584.471-1.257l.002-.555m2.236.081c-.001.724-.014 1.469-.16 2.193-.335 1.643-1.273 2.024-2.83 2.024l-1.671-.003c-.235 0-.442-.209-.442-.445l.012-7.549c0-.235.207-.444.444-.442h1.668c.567.005 1.227.035 1.748.293.872.425 1.068 1.424 1.169 2.294.053.547.063 1.09.063 1.635m-20.587 9.753h-1.36c-.233-.001-.445.215-.445.447v.549c0 .193-.043.404-.29.401-.202 0-.25-.228-.261-.424l-.005-.425.005-1.479c0-.08-.016-.464 0-.601.016-.194.082-.367.298-.367.192.001.239.185.252.347l.004.365v.198c0 .233.215.389.446.389l1.377.001c.237-.01.429-.213.429-.458.004-1.943-.376-3.481-2.667-3.484-1.64-.001-2.285.833-2.544 2.354-.112.659-.138 1.323-.138 1.994-.002.666.022 1.34.133 1.992.254 1.523.9 2.363 2.538 2.363 1.244.003 2.222-.534 2.53-1.799.108-.469.177-.955.177-1.435 0-.325-.029-.928-.479-.928m.013-9.587l-1.366-.003c-.229 0-.44.214-.44.446v.546c0 .196-.043.404-.29.404-.203 0-.252-.228-.263-.423l-.002-.428.002-1.473c0-.083-.016-.467 0-.609.017-.192.086-.368.3-.368.19 0 .239.195.253.35l.001.365v.196c0 .235.216.389.447.389l1.377.003c.234-.008.429-.215.429-.454.002-1.947-.377-3.485-2.667-3.487-1.641-.004-2.286.829-2.543 2.36-.112.654-.138 1.318-.138 1.988-.001.668.021 1.337.132 1.992.254 1.525.898 2.362 2.537 2.362 1.246.004 2.225-.528 2.529-1.795.111-.469.181-.961.181-1.437 0-.323-.033-.925-.479-.925m11.643 18.306l.003-.011c-.417-.323-.786-.586-.786-.795 0-.121.077-.187.197-.186.397 0 .098.674.524.659h.104v-.001l1.26.001c.235 0 .447-.21.447-.446v-.12c0-1.503-1.113-2.485-2.578-2.488-1.382-.002-2.521.867-2.523 2.315 0 1.067.687 1.837 1.406 2.451l.042.028c.561.487 1.223.869 1.223 1.154 0 .118-.076.187-.196.187-.398-.005-.095-.675-.52-.661l-.768-.001v-.007l-.85-.002c-.245 0-.448.212-.448.455-.002.271.031.536.076.792.267 1.369 1.111 1.994 2.48 1.997 1.649 0 2.74-.744 2.744-2.491 0-1.315-.99-2.182-1.835-2.829m10.278 5.331c1.494.002 2.54-.741 2.543-2.314l.007-5.808c0-.232-.215-.446-.447-.446h-1.426c-.231 0-.446.209-.446.445l-.005 4.607c0 .178.022.4-.221.4-.25 0-.223-.222-.223-.4l.007-4.607c0-.237-.213-.451-.447-.451h-1.425c-.234 0-.447.212-.447.445l-.008 5.81c0 1.572 1.043 2.315 2.536 2.319m-3.642-.136c.238 0 .447-.213.449-.448v-1.27c0-.229-.211-.442-.448-.442h-.489c-.31-.001-.551-.248-.551-.56.001-.31.241-.556.551-.553.236 0 .449-.211.449-.447v-1.268c0-.235-.208-.448-.446-.448-.252 0-.451-.2-.451-.458 0-.25.2-.454.451-.454l.382.003c.234 0 .448-.213.448-.445v-1.203c0-.233-.212-.445-.444-.449l-3.608-.002c-.233 0-.445.209-.445.447l-.012 7.544c-.002.235.212.447.446.447l3.718.006zm-13.225.116c1.495 0 2.543-.745 2.547-2.315l.007-5.808c0-.235-.211-.449-.447-.449h-1.426c-.233-.003-.443.212-.443.445l-.007 4.607c0 .18.021.404-.226.404-.241 0-.22-.224-.22-.404l.007-4.607c0-.233-.211-.448-.444-.448h-1.423c-.237 0-.447.211-.447.445l-.01 5.809c-.003 1.574 1.044 2.32 2.532 2.32m-3.837-.139c.237 0 .448-.21.448-.445l.01-7.548c0-.231-.209-.444-.445-.444h-1.804c-.325 0-.595.155-.663.732-.063.521-.221 1.646-.244 1.949-.055-.326-.189-1.417-.299-1.952-.108-.527-.366-.729-.725-.734l-1.802-.002c-.233 0-.445.211-.445.445l-.008 7.544c-.002.237.211.449.443.449h1.159c.238 0 .449-.209.449-.446v-2.354l.267 1.913c.087.44.073.889.563.889h.659c.524 0 .487-.423.569-.895.033-.181.238-1.73.267-1.904v2.356c-.001.233.209.443.445.443l1.156.003zm43.392-15.407c.205-.55.659-1.735.659-2.277 0-.3-.13-.421-.434-.423l-1.302-.002c-.603 0-.765 1.398-.813 1.847-.109-.46-.267-1.847-.9-1.851h-1.302c-.3 0-.433.122-.433.424-.003.543.45 1.726.653 2.281l.477 1.336c.045.134.296.845.296.916.023.331.014.676.014 1.01l-.014 2.025c0 .236.209.444.445.444l1.424.004c.235 0 .45-.207.45-.445l-.014-2.025c0-.336-.01-.678.016-1.01 0-.07.254-.782.298-.916l.48-1.338m-5.128-.613c.234 0 .446-.215.446-.445v-1.204c0-.233-.207-.445-.444-.445l-4.317-.005c-.238-.002-.447.208-.447.445v1.205c0 .23.209.44.445.44l1.001.003-.008 5.9c0 .237.212.447.444.447l1.424.002c.229 0 .445-.207.445-.447l.008-5.896h1.003zm-5.745 6.335c.232 0 .444-.209.444-.445l.007-7.545c0-.237-.209-.447-.443-.447h-1.426c-.235 0-.443.209-.446.443l-.005 7.546c-.003.236.207.445.438.448h1.43zm-2.462-7.917l.012-.087c0-.259-.192-.436-.444-.436l-1.277-.001c-.208 0-.372.187-.427.376l-.406 2.829-.586-2.838c-.074-.167-.259-.37-.444-.37l-1.326-.001c-.258 0-.453.168-.457.425l.025.112 1.593 7.545c.033.179.267.355.433.355l1.481.004c.188 0 .412-.19.447-.368l1.377-7.545zm-6.359 7.908c.23 0 .444-.213.446-.445l.01-7.548c0-.232-.215-.443-.444-.443l-1.424-.005c-.234 0-.447.213-.448.447l-.01 7.546c0 .237.214.447.449.447l1.422.002zm-2.932-6.351c.233 0 .445-.21.445-.44l.002-1.203c0-.235-.213-.447-.445-.447l-4.323-.005c-.235 0-.442.211-.444.445v1.205c-.003.229.209.442.44.442l1.006.001-.006 5.9c-.003.238.21.444.444.444l1.426.005c.234 0 .442-.208.442-.445l.01-5.9h1.004zm-4.912 6.339c.254 0 .447-.174.447-.43v-.092l-1.291-7.548c-.033-.177-.254-.367-.445-.367l-1.87-.001c-.188-.002-.412.185-.443.365l-1.316 7.544v.092c0 .258.19.432.447.432l1.323.002c.492 0 .484-.656.541-.998l.755.001c.055.341.043.997.533 1h1.321zm-5.807-.008c.229 0 .441-.207.441-.443v-1.266c0-.236-.209-.45-.44-.45l-.492-.002c-.313 0-.558-.241-.558-.552 0-.312.248-.554.56-.554.237 0 .442-.21.445-.447v-1.269c0-.233-.207-.447-.442-.447-.258-.002-.453-.2-.453-.46 0-.254.195-.453.455-.453h.378c.234 0 .447-.212.447-.442l.001-1.206c0-.235-.211-.443-.446-.443l-3.608-.005c-.233-.001-.446.211-.446.442l-.009 7.546c0 .237.215.448.443.448l3.723.002zm28.512-15.107c.078-.155.245-.479.248-.625l.004-1.947c0-.232-.214-.445-.451-.445h-1.221c-.236 0-.445.209-.445.445l-.003 1.783c0 .316.267.445.554.445-.232.434-.624.92-.624 1.433-.002.278.175.391.445.391l.324.001c.434 0 1.002-1.135 1.17-1.48m-2.947 5.419c.239 0 .446-.209.446-.447l.011-7.545c0-.235-.209-.447-.449-.447l-1.153-.002c-.434 0-.492.32-.492.614-.014.511.045 1.173.043 1.708-.108-.336-.307-1.079-.595-1.82-.128-.307-.233-.502-.567-.502h-1.412c-.239 0-.448.207-.448.442l-.01 7.548c0 .233.208.444.445.444l1.157.002c.231.003.445-.209.445-.443l.003-1.793c.32 1.558.162 2.239 1.231 2.242h1.345zm-5.738-.008c.235 0 .447-.211.447-.445l.003-1.271c0-.233-.212-.445-.447-.445l-.49-.002c-.31 0-.555-.247-.555-.556 0-.31.248-.558.557-.555.235 0 .446-.213.446-.447v-1.27c0-.23-.208-.445-.445-.445-.255 0-.454-.198-.454-.456 0-.252.201-.459.454-.459h.378c.235 0 .448-.208.448-.44v-1.201c.003-.235-.209-.446-.442-.446l-3.608-.005c-.23 0-.442.209-.442.445l-.012 7.547c0 .235.215.447.445.447l3.717.004zm-16.388-.022c.235 0 .445-.207.445-.442l.001-1.274c0-.235-.209-.447-.445-.447h-1.958l.007-5.828c0-.236-.211-.448-.443-.451h-1.425c-.239 0-.449.211-.449.447l-.008 7.547c0 .233.209.446.445.446l3.83.003zm-5.652-.005c.231 0 .441-.212.441-.444l.01-7.547c0-.237-.207-.447-.443-.447l-1.427-.005c-.235 0-.445.213-.445.445l-.008 7.55c0 .23.207.444.443.444l1.429.003zm-3.198-.003l-1.427-.005c-.233 0-.442-.21-.442-.445l.002-1.54h-.443l-.003 1.54c0 .235-.214.445-.451.445l-1.424-.003c-.236 0-.447-.211-.447-.447l.01-7.544c0-.235.212-.448.447-.446l1.423.002c.237 0 .453.212.453.445l-.002 1.586h.44l.002-1.586c0-.233.212-.445.445-.443h1.428c.231 0 .446.209.446.445l-.008 7.545c0 .236-.216.449-.451.449"/><path class="st5" d="M13.955 57.696m.003-.011l-.001.003.001-.003m.014-.046l-.002.008.002-.008m.016-.052.025-.077l-.025.076.025-.076m.001-.006l-.001.003.001-.003m.002-.007l-.001.003.001-.003m.003-.006l-.002.005.002-.005m.001-.007l-.001.003.001-.003m.005-.018 20.239-23.475c-2.044.293-1.158 4.308-1.158 4.308s-.747-.67-1.019-.873c-.271-.207-.962-.093-1 .496-.067 1.083 1.313 1.827 2.058 3.552.742 1.72-2.307 6.175-2.307 6.175s-.423.467-.519-.079c-.095-.546-2.849-11.399-9.007-9.577-4.831 1.427-7.293 10.186-7.099 10.23 0 0 .035.454-.512.028-1.578-1.222-.609-4.106-.171-5.399.441-1.294 2.757-3.41 3.17-4.096.408-.688.238-1.394-.286-1.584-.527-.188-1.511 1.48-1.511 1.48.164-.505.984-1.668 1.072-2.391.085-.721-.897-1.132-1.706-.796-1.07.443-1.185 2.28-1.185 2.28-.014-.218-.149-2.482-1.409-2.025-.766.279-.652 1.094-.444 1.69-.227-.322-.591-.566-1.128-.202-.592.4.259 2.024.115 1.757-.145-.266-.548-1.279-1.226-.798-.678.479.579 2.93.543 3.427-.035.5-.378 1.235-.618 2.628-.241 1.39-.742 3.625.248 6.58.691 2.054 3.364 2.719 3.364 2.719s-.475.551-1.439 1.29c-2.44 1.862-3.832 1.739-4.23 1.543-.397-.196-.599-.801-1.019-.28-.325.4-.039.745.109.88-.286-.228-1.321-.98-1.971-.434-.616.518-.282 1.308.718 1.912 1 .602 2.772 1.082 5.44.663 1.536-.241 3.812-1.386 3.812-1.386-.377 1.211-.252 1.098-.717 2.442-.423 1.233-.835 1.87-2.178 2.968-.462.374-1.421 1-2.548 1.56-1.123.563-1.677.908-1.397 1.359.376.603 1.471-.139 1.471-.139-.431.299-.338.789.037.884.335.083.768-.299 1.002-.54l-.011.045c-.076.336-.187.597.334.759.67.205 2.243-.805 2.904-1.302 1.76-1.315 1.921-1.313 2.639-2.072 1.006-1.058 2.011-1.818 1.632.555-.522 3.271-.382 2.283-.79 3.543-.188.591-1.004 1.553-1.703 1.647-.703.095-1.589.114-1.606.976-.015.805 1.517.788 2.671.779 1.159-.012 2.598.01 3.974-.676 1.375-.685 1.287-1.472 1.903-3.129.717-1.925 1.113-4.877 1.113-4.877.018.328.882 3.171 1.39 4.376.654 1.55 1.469 3.345 3.141 3.413 1.675.068 2.63.068 3.417-.034l.445-.067.45-.104c.258-.082.413-.19.545-.359.42-.535.13-1.092-.779-1.292-.835-.184-1.784-.435-2.04-.993-.221-.485-1.098-3.217-.922-4.97.07-.674 1.252.301 2.352 1.594 1.239 1.458 3.906 2.173 4.338 1.852.683-.513-.463-.717-.37-.871.17-.293.513-.155.895-.018.39.141.821.282 1.149-.039.486-.475-.856-.578-.629-.917.163-.245.498-.134.875-.021.439.131.938.26 1.291-.172.423-.52-1.39-.808-1.089-1.08.207-.183.6-.095 1.012-.005.539.116 1.111.232 1.342-.258.343-.721-1.782-.914-1.542-1.182.28-.313 1.484.17 1.627-.667.104-.629-1.324-.753-3.751-.614-1.15.067-2.845-.112-3.824-.375-1.219-.327-.522-.758.22-.649 1.553.23 3.162-.109 4.969-.977 1.469-.704 2.855-2.935 3.353-4.332.767-2.142.22-4.681-1.42-5.795-1.195-.811-.657.101-.515 1.239.254 2-.678 3.581-3.365 4.755-1.424.624-2.84.598-2.245-.058.056-.062 1.224-1.026 2.347-3.704 1.912-4.568.874-8.72 1.424-8.709.815.016 1.388-.138 1.678-.704.288-.569-.295-.646-.748-.674-.45-.031-.781-.088-.412-.474.665-.695 1.205-1.167 1.505-1.569.07-.095.119-.192.149-.287l-.167-.725-.1-.09c-.183-.14-.788.057-1.269.254-.265.108-.491.217-.589.269.224-.242.795-1.855.79-1.955-.008-.112-.213-.64-.978-.597-.771.046-2.077 2.508-1.965 2.227.107-.273 1.198-3.151-.227-3.151l-.177.013M13.955 57.696l-.003.01.003-.01M13.958 57.685l-.001.003.001-.003M13.973 57.638l-.002.008.002-.008M13.989 57.586l-.005.017.005-.017M14.014 57.509l-.025.076.025-.076M14.015 57.503l-.001.003.001-.003M14.017 57.496l-.001.003.001-.003M14.02 57.49l-.002.005.002-.005M14.021 57.483l-.001.003.001-.003M14.027 57.464"/><path class="st2" d="M34.266 33.989c-2.044.293-1.158 4.308-1.158 4.308s-.747-.67-1.019-.873c-.271-.207-.962-.093-1 .496-.067 1.083 1.313 1.827 2.058 3.552.742 1.72-2.307 6.175-2.307 6.175s-.423.467-.519-.079c-.095-.546-2.849-11.399-9.007-9.577-4.831 1.427-7.293 10.186-7.099 10.23 0 0 .035.454-.512.028-1.578-1.222-.609-4.106-.171-5.399.441-1.294 2.757-3.41 3.17-4.096.408-.688.238-1.394-.286-1.584-.527-.188-1.511 1.48-1.511 1.48.164-.505.984-1.668 1.072-2.391.085-.721-.897-1.132-1.706-.796-1.07.443-1.185 2.28-1.185 2.28-.014-.218-.149-2.482-1.409-2.025-.766.279-.652 1.094-.444 1.69-.227-.322-.591-.566-1.128-.202-.592.4.259 2.024.115 1.757-.145-.266-.548-1.279-1.226-.798-.678.479.579 2.93.543 3.427-.035.5-.378 1.235-.618 2.628-.241 1.39-.742 3.625.248 6.58.691 2.054 3.364 2.719 3.364 2.719s-.475.551-1.439 1.29c-2.44 1.862-3.832 1.739-4.23 1.543-.397-.196-.599-.801-1.019-.28-.325.4-.039.745.109.88-.286-.228-1.321-.98-1.971-.434-.616.518-.282 1.308.718 1.912 1 .602 2.772 1.082 5.44.663 1.536-.241 3.812-1.386 3.812-1.386-.377 1.211-.252 1.098-.717 2.442-.423 1.233-.835 1.87-2.178 2.968-.462.374-1.421 1-2.548 1.56-1.123.563-1.677.908-1.397 1.359.376.603 1.471-.139 1.471-.139-.431.299-.338.789.037.884.335.083.768-.299 1.002-.54l-.011.045c-.076.336-.187.597.334.759.67.205 2.243-.805 2.904-1.302 1.76-1.315 1.921-1.313 2.639-2.072 1.006-1.058 2.011-1.818 1.632.555-.522 3.271-.382 2.283-.79 3.543-.188.591-1.004 1.553-1.703 1.647-.703.095-1.589.114-1.606.976-.015.805 1.517.788 2.671.779 1.159-.012 2.598.01 3.974-.676 1.375-.685 1.287-1.472 1.903-3.129.717-1.925 1.113-4.877 1.113-4.877.018.328.882 3.171 1.39 4.376.654 1.55 1.469 3.345 3.141 3.413 1.675.068 2.63.068 3.417-.034l.445-.067.45-.104c.258-.082.413-.19.545-.359.42-.535.13-1.092-.779-1.292-.835-.184-1.784-.435-2.04-.993-.221-.485-1.098-3.217-.922-4.97.07-.674 1.252.301 2.352 1.594 1.239 1.458 3.906 2.173 4.338 1.852.683-.513-.463-.717-.37-.871.17-.293.513-.155.895-.018.39.141.821.282 1.149-.039.486-.475-.856-.578-.629-.917.163-.245.498-.134.875-.021.439.131.938.26 1.291-.172.423-.52-1.39-.808-1.089-1.08.207-.183.6-.095 1.012-.005.539.116 1.111.232 1.342-.258.343-.721-1.782-.914-1.542-1.182.28-.313 1.484.17 1.627-.667.104-.629-1.324-.753-3.751-.614-1.15.067-2.845-.112-3.824-.375-1.219-.327-.522-.758.22-.649 1.553.23 3.162-.109 4.969-.977 1.469-.704 2.855-2.935 3.353-4.332.767-2.142.22-4.681-1.42-5.795-1.195-.811-.657.101-.515 1.239.254 2-.678 3.581-3.365 4.755-1.424.624-2.84.598-2.245-.058.056-.062 1.224-1.026 2.347-3.704 1.912-4.568.874-8.72 1.424-8.709.815.016 1.388-.138 1.678-.704.288-.569-.295-.646-.748-.674-.45-.031-.781-.088-.412-.474.665-.695 1.205-1.167 1.505-1.569.07-.095.119-.192.149-.288l-.168-.725-.099-.089c-.183-.14-.788.057-1.269.254-.265.108-.491.217-.589.269.224-.242.795-1.855.79-1.955-.008-.112-.213-.64-.978-.597-.771.046-2.077 2.508-1.965 2.227.107-.273 1.198-3.151-.227-3.151l-.177.013"/><path class="st7" d="M21.017 41.712c-.187-.111-.467-.168-.671-.045-.142.083-.305.209-.364.514-.063.35.141.794.525.782.277-.008.541-.242.678-.501.149-.282.101-.588-.168-.75"/><path class="st1" d="M20.902 42.069c-.04-.072-.114-.12-.216-.121-.243.003-.445.407-.243.577.141.194.474-.049.503-.215.014-.087.006-.175-.044-.24"/><path class="st7" d="M23.062 41.661c-.188-.113-.45-.14-.635-.013-.137.089-.32.175-.4.48-.093.348.14.794.522.783.279-.009.545-.241.68-.499.15-.281.099-.588-.168-.751"/><path class="st1" d="M22.849 41.95l-.025-.006c-.049-.04-.109-.04-.169-.018-.108.021-.187.13-.224.226-.05.132-.013.188.044.3.062.126.254.078.347.018.16-.101.228-.421.027-.52"/><path class="st5" d="M44.209 64.769l.036.021-.025.041-.04.074.029-.136m-2.343-51.04l-.127.023c-.287-.01-.816-.046-.951.044.067.496.516.637.756.98-1.077.393-2.09.846-3.131 1.272.009.28.288.309.464.433-1.148.556-2.319 1.092-3.475 1.638v.16c.24.196.691.192.953.367-.637.207-1.143.541-1.833.703-.16.116-.423.136-.515.318-.394.119-.68.338-.732.774.162.098.49.044.684.114-.603.319-1.113.723-1.688 1.068l-.048.115c-.283.156-.565.31-.711.592-.202.01-.218.19-.295.318l.075.092c.218.021.423-.019.619-.06.286-.059.55-.118.799.016-.513.304-.99.639-1.395 1.044-.272.126-.378.408-.633.55-.037.138-.177.181-.149.383.215.149.501.086.766.024.158-.037.309-.075.434-.067-.351.578-.952.918-1.274 1.522l-.588.548c-.028.146-.172.185-.145.387.159.094.338.063.52.033.168-.029.34-.057.505.012-.052.155-.196.227-.22.411-.298.117-.353.458-.661.57-.145.31-.501.426-.538.841.372.099.927.033 1.297.182-.121.19-.343.274-.515.409-.208.161-.336.329-.512.5-.15.146-.378.339-.368.569.21.081.44.048.661.016.184-.028.361-.055.513-.016-.538.332-.834.892-1.343 1.25v.138c-.533.363-1.034.755-1.298 1.364.023.039.09.037.072.116.633-.02 1.48-.13 1.887.225-.445.359-.84.755-1.324 1.072l-.025.136c-.244.029-.219.31-.439.363v.116c-.364.398-.819.826-.855 1.454.245.079.526.022.822-.036.361-.07.743-.14 1.107.036-.19.172-.494.305-.682.433-.175.117-.247.24-.393.387l-.269.183-.048.136-.172.114-.05.136c-.124.152-.316.305-.39.433l-.05.228c-.149.233-.331.713-.22 1.023.431-.093.789-.374 1.199-.41l-.39.434c-.113.123-.202.258-.295.409l-.1.068-.024.159-.121.068-.027.16c-.1.243-.548.806-.243 1.024.316-.145.594-.45.93-.5-.244.269-.402.613-.539.98-.191.288-.378.586-.438 1-.101.098-.08.345-.048.5.099.014.19.035.242.09.042-.074.165-.073.268-.09-.434.52-.839 1.07-1.076 1.776l-.076.044-.071.046c-.164.46-.484.825-.635 1.297-.059.192-.083.376-.17.57.106.16.003.408.124.524l.136-.011.132-.012.071-.113c.312-.158.418-.51.858-.547l.072.068c.006.098.025.21 0 .296-.023.087-.156.226-.17.25l-.27.638-.242.455c-.095.157-.084.409-.122.567-.21.665-.21 1.62-.05 2.189.46-.036.59-.377.953-.503-.062.817-.453 1.561-.294 2.435-.13.798-.086 1.882.101 2.481-.027.195.041.31.169.363.378-.128.573-.423 1.102-.409.014.813.154 1.511.269 2.231.117.091.085.2.098.364.089.085.09.25.098.408.205.427.374.881.539 1.344.083.05.126.141.245.16.161-.139.302-.293.415-.479.339.528.423 1.289.832 1.754l-.05.069.146.113v.157c.297.248.314.758.759.866.246-.169.423-.396.76-.479.218.413.374.882.661 1.231.13-.005.117.115.172.182l.116.014.153.01c.088-.117.23-.181.368-.253.192.276.498.447.61.798-.49-.01-.739.209-1.15.273-.134.139-.347.207-.563.273l-.097.113c-.224.052-.277.258-.513.297-.192.276-.615.34-.735.68.359.244 1.024.202 1.492.342-.32.317-.759.55-1.051.89-.029.029.033.134-.075.091v.25c.163.131.4.192.612.273-.297.315-.722.51-.903.932.119.177.434.171.707.207-.093.284-.399.37-.439.704.1.216.435.211.772.206l.23-.001c.13.083.325.078.515.072.164-.005.326-.01.44.042-.397.417-.1.69.512.843.544.136 1.287.092 1.714.25.4-.243.845-.151 1.325-.059.326.062.668.125 1.023.082.057-.106.153-.175.246-.25.487-.039.833.082 1.167.205.247.09.49.179.779.205h.304c.026-.132.132-.181.123-.342l.098-.047h.44c.612.037 1.566.723 1.834 0 .516.005.746.38 1.272.298.18-.183.025-.419.049-.707.093.027.049-.076.098-.089.427.044.633.29 1.101.296.127-.283-.046-.499.025-.82.185.115.529.087.758.158.191-.277-.052-.675-.219-.841-.179-.524-.631-.796-.832-1.297.208.035.262-.073.391-.113.1-.132.044-.271.025-.343-.033-.123-.13-.398-.22-.524l-.172-.138c-.065-.118-.073-.134-.168-.225-.129-.117-.286-.218-.368-.34.09-.071.126-.187.245-.229.112-.738-.472-.918-.589-1.409.119.017.169-.022.24-.046.31.323.98 1.31 1.135 1.258-.247-.983.773-.221.797-.123l.47-.035c.256-.025.526-.05.565-.029-.097.387-.737.469-.955.819.308.238.956.158 1.321.34-.325.274-.73.473-1.103.708.18.393-.142.646-.072 1l.146.068c.318-.127.887-.203 1.2-.022.076.399-.361.512-.537.751.129.318.62.303.88.5-.143.104-.398.1-.488.25.138.248.291.165.488.137.037.099.159.058.27.091.363.104.713.421 1.223.296.362-.1.779.012 1.192.123.573.154 1.139.31 1.548-.1l.206.016c.103.017.164.033.283-.016.36.082.775.188 1.077.227.519.069 1.101.036 1.347-.159l.171-.091c.71.152 1.383.338 2.129.456l.049.068c.408.089.359-.244.391-.501.395.034.57.278.978.297.164-.19.183-.515.173-.867.239-.023.395.029.588.046.058-.014.018-.118.123-.09.061-.728-.421-1.12-.565-1.728.308-.044.726-.034 1.004.021.244-.177-.083-.415-.148-.545l-.095-.162c-.127-.185-.182-.483-.343-.567-.296-.471-.754-.785-1.298-1.024-.022-.177-.151-.376-.072-.57l.513.411c.125.016.123-.082.195-.115-.057-.478.219-.646.294-1l.078-.044.069-.046c.035.094.211.059.194.205h.149c.38-.231.397-.802.633-1.161l.271-.888c.131-.057.08-.3.123-.409.074-.183.295-.301.27-.567l.064-.026.083-.024c.1-.195.187-.403.263-.625.481.063-.037-.498.379-.641.031.121-.061.277.046.38.205.026.322-.095.513-.268.42-.367.078-.935.295-1.517l.035-.01.042-.025c-.044-.087.128-.315.167-.372.033.16.04.326-.001.508.313.247.533-.268.74-.558.632-.399.702-1.251.67-1.807.065.103.166.297.351.233.224-.735.207-1.403.105-2.051l-.102-.102c.085-.11-.046-.164-.011-.258.271.102.614.431.79.228-.095-.792.361-1.537.094-2.285.225.102.489.164.474-.111-.001-.066-.123-.49-.244-.688l-.083-.041-.098-.251-.112-.085-.025-.138-.122-.115-.014-.16-.115-.082-.034-.172c-.072-.129-.215-.205-.188-.326.104.03.192.012.28-.007l.202-.023c.196-.19.012-.331 0-.456l.036-.057c-.042-.119-.169-.219-.22-.318l-.015-.16c-.06-.101-.207-.158-.19-.273-.028-.03.164-.016.355-.003.188.014.374.027.348-.002.046-.115-.045-.192-.17-.265-.042-.156-.186-.288-.387-.404.14-.197-.052-.31.022-.494-.118-.153-.236-.309-.368-.459l-.018-.191c.217.067.552.038.661.206.142.026.147-.078.219-.115-.068-1.505-.376-2.791-.955-3.824.23-.035.361.019.492.074.105.044.21.088.365.085l.076-.045c.086-.412-.145-.866-.221-1.275-.029-.831-.453-1.342-.539-2.003l.49.389c.145-.063.162-.198.123-.389-.259-.479-.485-1.002-.711-1.477-.108-.231-.241-.412-.366-.637l-.368-.638c-.187-.09-.271-.277-.367-.453.374-.044.632-.029 1.077.022l.097-.092c.026-.288-.097-.508-.097-.704-.084-.052-.087-.177-.096-.297-.18-.357-.377-.698-.54-1.068l-.807-.75.129-.001c.117-.003.231-.007.287.046l.074-.046c.4.125 1.038.126.954-.391l-.195-.543-.123-.092c-.306-.683-.935-1.071-1.541-1.48l.237.003c.601.009 1.358.017 1.255-.571-.046-.264-.2-.439-.316-.615-.108-.158-.207-.347-.32-.455l-.22-.113-.05-.139-.121-.023-.22-.226c-.198-.124-.394-.221-.515-.364.528-.11.902-.362 1.078-.794-.045-.284-.226-.416-.368-.57-.362-.395-.728-.905-1.323-1.071l-.121-.136c.145.01.271 0 .398-.009l.287-.014.147-.137c-.012-.635-.457-.867-.661-1.321-.329-.271-.683-.519-1.053-.749.309-.03.582-.414.367-.705l.051-.048c-.14-.289-.423-.443-.541-.751-.173-.078-.267-.235-.342-.408-.089-.025-.134-.089-.147-.181-.171-.051-.196-.216-.317-.32-.23-.197-.563-.327-.686-.593.182-.028.316-.099.515-.113.262-.252-.018-.702-.222-.864-.224-.46-.62-.76-.979-1.094l-.048.046v-.137c-.16-.026-.19-.175-.318-.229-.418-.498-1.021-.824-1.568-1.206-.146-.016-.249-.069-.317-.158.273-.126.629-.132.782-.41l-.023-.112c-.58-.375-1.043-.855-1.764-1.094-.223-.231-.555-.362-.976-.41-.295-.19-.805-.177-1.149-.317.22-.257.822-.159.904-.547-.094-.123-.256-.142-.368-.228l-.049-.116-.244-.179-.068-.009-.08-.014c-.162-.15-.353-.175-.659-.252-.316-.078-.577-.166-.929-.181-.359-.145-.873-.128-1.394-.114-.715.147-1.355.368-2.031.547-.039.102-.196.089-.322.115-.071.11-.29.21-.487.136l-.368-.136c-.348.162-.742.393-1.197.408-.65-.412-1.3-.824-2.276-.932-.368-.28-.913-.275-1.417-.342l-.614-.136-.012-.001-.106.024"/><path class="st4" d="M44.209 64.769l.036.021-.025.041-.04.074.029-.136m-2.343-51.04l-.127.023c-.287-.01-.816-.046-.951.044.067.496.516.637.756.98-1.077.393-2.09.846-3.131 1.272.009.28.288.309.464.433-1.148.556-2.319 1.092-3.475 1.638v.16c.24.196.691.192.953.367-.637.207-1.143.541-1.833.703-.16.116-.423.136-.515.318-.394.119-.68.338-.732.774.162.098.49.044.684.114-.603.319-1.113.723-1.688 1.068l-.048.115c-.283.156-.565.31-.711.592-.202.01-.218.19-.295.318l.075.092c.218.021.423-.019.619-.06.286-.059.55-.118.799.016-.513.304-.99.639-1.395 1.044-.272.126-.378.408-.633.55-.037.138-.177.181-.149.383.215.149.501.086.766.024.158-.037.309-.075.434-.067-.351.578-.952.918-1.274 1.522l-.588.548c-.028.146-.172.185-.145.387.159.094.338.063.52.033.168-.029.34-.057.505.012-.052.155-.196.227-.22.411-.298.117-.353.458-.661.57-.145.31-.501.426-.538.841.372.099.927.033 1.297.182-.121.19-.343.274-.515.409-.208.161-.336.329-.512.5-.15.146-.378.339-.368.569.21.081.44.048.661.016.184-.028.361-.055.513-.016-.538.332-.834.892-1.343 1.25v.138c-.533.363-1.034.755-1.298 1.364.023.039.09.037.072.116.633-.02 1.48-.13 1.887.225-.445.359-.84.755-1.324 1.072l-.025.136c-.244.029-.219.31-.439.363v.116c-.364.398-.819.826-.855 1.454.245.079.526.022.822-.036.361-.07.743-.14 1.107.036-.19.172-.494.305-.682.433-.175.117-.247.24-.393.387l-.269.183-.048.136-.172.114-.05.136c-.124.152-.316.305-.39.433l-.05.228c-.149.233-.331.713-.22 1.023.431-.093.789-.374 1.199-.41l-.39.434c-.113.123-.202.258-.295.409l-.1.068-.024.159-.121.068-.027.16c-.1.243-.548.806-.243 1.024.316-.145.594-.45.93-.5-.244.269-.402.613-.539.98-.191.288-.378.586-.438 1-.101.098-.08.345-.048.5.099.014.19.035.242.09.042-.074.165-.073.268-.09-.434.52-.839 1.07-1.076 1.776l-.076.044-.071.046c-.164.46-.484.825-.635 1.297-.059.192-.083.376-.17.57.106.16.003.408.124.524l.136-.011.132-.012.071-.113c.312-.158.418-.51.858-.547l.072.068c.006.098.025.21 0 .296-.023.087-.156.226-.17.25l-.27.638-.242.455c-.095.157-.084.409-.122.567-.21.665-.21 1.62-.05 2.189.46-.036.59-.377.953-.503-.062.817-.453 1.561-.294 2.435-.13.798-.086 1.882.101 2.481-.027.195.041.31.169.363.378-.128.573-.423 1.102-.409.014.813.154 1.511.269 2.231.117.091.085.2.098.364.089.085.09.25.098.408.205.427.374.881.539 1.344.083.05.126.141.245.16.161-.139.302-.293.415-.479.339.528.423 1.289.832 1.754l-.05.069.146.113v.157c.297.248.314.758.759.866.246-.169.423-.396.76-.479.218.413.374.882.661 1.231.13-.005.117.115.172.182l.116.014.153.01c.088-.117.23-.181.368-.253.192.276.498.447.61.798-.49-.01-.739.209-1.15.273-.134.139-.347.207-.563.273l-.097.113c-.224.052-.277.258-.513.297-.192.276-.615.34-.735.68.359.244 1.024.202 1.492.342-.32.317-.759.55-1.051.89-.029.029.033.134-.075.091v.25c.163.131.4.192.612.273-.297.315-.722.51-.903.932.119.177.434.171.707.207-.093.284-.399.37-.439.704.1.216.435.211.772.206l.23-.001c.13.083.325.078.515.072.164-.005.326-.01.44.042-.397.417-.1.69.512.843.544.136 1.287.092 1.714.25.4-.243.845-.151 1.325-.059.326.062.668.125 1.023.082.057-.106.153-.175.246-.25.487-.039.833.082 1.167.205.247.09.49.179.779.205h.304c.026-.132.132-.181.123-.342l.098-.047h.44c.612.037 1.566.723 1.834 0 .516.005.746.38 1.272.298.18-.183.025-.419.049-.707.093.027.049-.076.098-.089.427.044.633.29 1.101.296.127-.283-.046-.499.025-.82.185.115.529.087.758.158.191-.277-.052-.675-.219-.841-.179-.524-.631-.796-.832-1.297.208.035.262-.073.391-.113.1-.132.044-.271.025-.343-.033-.123-.13-.398-.22-.524l-.172-.138c-.065-.118-.073-.134-.168-.225-.129-.117-.286-.218-.368-.34.09-.071.126-.187.245-.229.112-.738-.472-.918-.589-1.409.119.017.169-.022.24-.046.31.323.98 1.31 1.135 1.258-.247-.983.773-.221.797-.123l.47-.035c.256-.025.526-.05.565-.029-.097.387-.737.469-.955.819.308.238.956.158 1.321.34-.325.274-.73.473-1.103.708.18.393-.142.646-.072 1l.146.068c.318-.127.887-.203 1.2-.022.076.399-.361.512-.537.751.129.318.62.303.88.5-.143.104-.398.1-.488.25.138.248.291.165.488.137.037.099.159.058.27.091.363.104.713.421 1.223.296.362-.1.779.012 1.192.123.573.154 1.139.31 1.548-.1l.206.016c.103.017.164.033.283-.016.36.082.775.188 1.077.227.519.069 1.101.036 1.347-.159l.171-.091c.71.152 1.383.338 2.129.456l.049.068c.408.089.359-.244.391-.501.395.034.57.278.978.297.164-.19.183-.515.173-.867.239-.023.395.029.588.046.058-.014.018-.118.123-.09.061-.728-.421-1.12-.565-1.728.308-.044.726-.034 1.004.021.244-.177-.083-.415-.148-.545l-.095-.162c-.127-.185-.182-.483-.343-.567-.296-.471-.754-.785-1.298-1.024-.022-.177-.151-.376-.072-.57l.513.411c.125.016.123-.082.195-.115-.057-.478.219-.646.294-1l.078-.044.069-.046c.035.094.211.059.194.205h.149c.38-.231.397-.802.633-1.161l.271-.888c.131-.057.08-.3.123-.409.074-.183.295-.301.27-.567l.064-.026.083-.024c.1-.195.187-.403.263-.625.481.063-.037-.498.379-.641.031.121-.061.277.046.38.205.026.322-.095.513-.268.42-.367.078-.935.295-1.517l.035-.01.042-.025c-.044-.087.128-.315.167-.372.033.16.04.326-.001.508.313.247.533-.268.74-.558.632-.399.702-1.251.67-1.807.065.103.166.297.351.233.224-.735.207-1.403.105-2.051l-.102-.102c.085-.11-.046-.164-.011-.258.271.102.614.431.79.228-.095-.792.361-1.537.094-2.285.225.102.489.164.474-.111-.001-.066-.123-.49-.244-.688l-.083-.041-.098-.251-.112-.085-.025-.138-.122-.115-.014-.16-.115-.082-.034-.172c-.072-.129-.215-.205-.188-.326.104.03.192.012.28-.007l.202-.023c.196-.19.012-.331 0-.456l.036-.057c-.042-.119-.169-.219-.22-.318l-.015-.16c-.06-.101-.207-.158-.19-.273-.028-.03.164-.016.355-.003.188.014.374.027.348-.002.046-.115-.045-.192-.17-.265-.042-.156-.186-.288-.387-.404.14-.197-.052-.31.022-.494-.118-.153-.236-.309-.368-.459l-.018-.191c.217.067.552.038.661.206.142.026.147-.078.219-.115-.068-1.505-.376-2.791-.955-3.824.23-.035.361.019.492.074.105.044.21.088.365.085l.076-.045c.086-.412-.145-.866-.221-1.275-.029-.831-.453-1.342-.539-2.003l.49.389c.145-.063.162-.198.123-.389-.259-.479-.485-1.002-.711-1.477-.108-.231-.241-.412-.366-.637l-.368-.638c-.187-.09-.271-.277-.367-.453.374-.044.632-.029 1.077.022l.097-.092c.026-.288-.097-.508-.097-.704-.084-.052-.087-.177-.096-.297-.18-.357-.377-.698-.54-1.068l-.807-.75.129-.001c.117-.003.231-.007.287.046l.074-.046c.4.125 1.038.126.954-.391l-.195-.543-.123-.092c-.306-.683-.935-1.071-1.541-1.48l.237.003c.601.009 1.358.017 1.255-.571-.046-.264-.2-.439-.316-.615-.108-.158-.207-.347-.32-.455l-.22-.113-.05-.139-.121-.023-.22-.226c-.198-.124-.394-.221-.515-.364.528-.11.902-.362 1.078-.794-.045-.284-.226-.416-.368-.57-.362-.395-.728-.905-1.323-1.071l-.121-.136c.145.01.271 0 .398-.009l.287-.014.147-.137c-.012-.635-.457-.867-.661-1.321-.329-.271-.683-.519-1.053-.749.309-.03.582-.414.367-.705l.051-.048c-.14-.289-.423-.443-.541-.751-.173-.078-.267-.235-.342-.408-.089-.025-.134-.089-.147-.181-.171-.051-.196-.216-.317-.32-.23-.197-.563-.327-.686-.593.182-.028.316-.099.515-.113.262-.252-.018-.702-.222-.864-.224-.46-.62-.76-.979-1.094l-.048.046v-.137c-.16-.026-.19-.175-.318-.229-.418-.498-1.021-.824-1.568-1.206-.146-.016-.249-.069-.317-.158.273-.126.629-.132.782-.41l-.023-.112c-.58-.375-1.043-.855-1.764-1.094-.223-.231-.555-.362-.976-.41-.295-.19-.805-.177-1.149-.317.22-.257.822-.159.904-.547-.094-.123-.256-.142-.368-.228l-.049-.116-.244-.179-.068-.009-.08-.014c-.162-.15-.353-.175-.659-.252-.316-.078-.577-.166-.929-.181-.359-.145-.873-.128-1.394-.114-.715.147-1.355.368-2.031.547-.039.102-.196.089-.322.115-.071.11-.29.21-.487.136l-.368-.136c-.348.162-.742.393-1.197.408-.65-.412-1.3-.824-2.276-.932-.368-.28-.913-.275-1.417-.342l-.614-.136-.012-.001-.106.024"/><path class="st7" d="M50.916 29.993l-.164-.325c.186-.342.376.127.653.117-.078-.368-.423-.468-.513-.815l.07-.07c.612.042.59-.462.348-.791-.151-.204-.362-.293-.466-.488.277-.21.465-.529.373-.977-.05-.243-.245-.432-.373-.582.01-.177.22-.152.373-.187v-.092c-.241-.37-.721-.502-.976-.859.05-.228.518-.04.675-.164.023-.239-.31-.269-.164-.49.333.023.456.258.487.584-.115.094-.242.175-.395.232.2.308.813.412.629.954-.089.014-.123.078-.163.139.017.078.028.158.095.187-.002.102.012.188.068.233.014.267.08.519 0 .741-.05.139-.199.2-.209.35.062.071.095.168.209.187.151.259.381.528.279.907-.17.1-.245.299-.442.372.088.273.394.334.37.719-.106.087-.191.194-.416.165v.161c-.26.172-.633-.07-.907-.161-.089.515-.772.215-1.092.116-.226.153-.32.442-.719.417-.268-.183-.533-.37-.745-.603-.492.13-.731.511-1.188.675-.241-.129-.291-.453-.417-.698-.571.119-1.01.369-1.466.603-.153.022-.299.053-.44.023-.094-.124-.097-.338-.117-.533-.399.133-.803.267-1.092.509-.136.006-.209.071-.373.048-.198-.097-.153-.439-.28-.605-.331.14-.496.445-.952.465-.287-.141-.165-.701-.162-1.07-.225-.006-.693.364-.884.048.07-.286.248-.466.347-.723-.104.037-.183.097-.347.072l-.142-.164c.092-.413.184-.823.397-1.116-.046-.038-.067-.102-.164-.093-.21-.552.439-.763.629-1.14-.057-.146-.228-.176-.373-.231l-.022-.21c.35-.253.883-.327 1.138-.674.155-.033.284-.091.35-.208-.162-.227-.499-.278-.603-.56.104-.206.394-.225.58-.35.59-.005 1.229-.596 1.861-.254l-.093.14c-.706-.083-1.364.279-1.953.465.067.303.445.298.558.56-.348.449-.958.64-1.442.95.088.1.176.195.301.256.01.235-.101.351-.256.419-.083.282-.392.333-.44.651l.256-.048c.072.485-.433.772-.421 1.35.221-.078.385-.33.7-.235-.091.399-.351.626-.489.978.237.013.445-.208.744-.211.174.348-.067.73.025 1.14l.392-.161c.185-.149.37-.349.678-.304.098.157.133.376.185.58.512-.151.931-.398 1.415-.58.027.07.116.073.19.093.007.083-.009.194.069.211-.093.091.033.122 0 .276.428-.1.997-.398 1.369-.532.225-.082.428-.166.585.023.036.209.156.338.207.533l.721-.394c.14-.124.258-.271.537-.258.249.231.42.54.811.628l.44-.487c.297.069.504.226.839.256.092-.04.027-.235.044-.349.035-.045.141-.016.141-.093l.722.349"/><path class="st9" d="M50.916 29.993l-.164-.325c.186-.342.376.127.653.117-.078-.368-.423-.468-.513-.815l.07-.07c.612.042.59-.462.348-.791-.151-.204-.362-.293-.466-.488.277-.21.465-.529.373-.977-.05-.243-.245-.432-.373-.582.01-.177.22-.152.373-.187v-.092c-.241-.37-.721-.502-.976-.859.05-.228.518-.04.675-.164.023-.239-.31-.269-.164-.49.333.023.456.258.487.584-.115.094-.242.175-.395.232.2.308.813.412.629.954-.089.014-.123.078-.163.139.017.078.028.158.095.187-.002.102.012.188.068.233.014.267.08.519 0 .741-.05.139-.199.2-.209.35.062.071.095.168.209.187.151.259.381.528.279.907-.17.1-.245.299-.442.372.088.273.394.334.37.719-.106.087-.191.194-.416.165v.161c-.26.172-.633-.07-.907-.161-.089.515-.772.215-1.092.116-.226.153-.32.442-.719.417-.268-.183-.533-.37-.745-.603-.492.13-.731.511-1.188.675-.241-.129-.291-.453-.417-.698-.571.119-1.01.369-1.466.603-.153.022-.299.053-.44.023-.094-.124-.097-.338-.117-.533-.399.133-.803.267-1.092.509-.136.006-.209.071-.373.048-.198-.097-.153-.439-.28-.605-.331.14-.496.445-.952.465-.287-.141-.165-.701-.162-1.07-.225-.006-.693.364-.884.048.07-.286.248-.466.347-.723-.104.037-.183.097-.347.072l-.142-.164c.092-.413.184-.823.397-1.116-.046-.038-.067-.102-.164-.093-.21-.552.439-.763.629-1.14-.057-.146-.228-.176-.373-.231l-.022-.21c.35-.253.883-.327 1.138-.674.155-.033.284-.091.35-.208-.162-.227-.499-.278-.603-.56.104-.206.394-.225.58-.35.59-.005 1.229-.596 1.861-.254l-.093.14c-.706-.083-1.364.279-1.953.465.067.303.445.298.558.56-.348.449-.958.64-1.442.95.088.1.176.195.301.256.01.235-.101.351-.256.419-.083.282-.392.333-.44.651l.256-.048c.072.485-.433.772-.421 1.35.221-.078.385-.33.7-.235-.091.399-.351.626-.489.978.237.013.445-.208.744-.211.174.348-.067.73.025 1.14l.392-.161c.185-.149.37-.349.678-.304.098.157.133.376.185.58.512-.151.931-.398 1.415-.58.027.07.116.073.19.093.007.083-.009.194.069.211-.093.091.033.122 0 .276.428-.1.997-.398 1.369-.532.225-.082.428-.166.585.023.036.209.156.338.207.533l.721-.394c.14-.124.258-.271.537-.258.249.231.42.54.811.628l.44-.487c.297.069.504.226.839.256.092-.04.027-.235.044-.349.035-.045.141-.016.141-.093l.722.349z"/><path class="st7" d="M39.662 32.877c.054.128-.016.198-.047.3-.222.127-.385.314-.511.535.458-.012 1.022-.123 1.464-.232.309.015.69-.1.884.07.025.124-.065.132-.068.233.33.072.581-.139.859-.21.304-.078.648-.038.955-.184.41.007.867-.075 1.162.091l.023.256c.562-.19.983-.689 1.674-.604.016.076.084.102.14.138.002.273.012.554-.046.767.537-.122 1.045-.473 1.604-.649.677-.156.708.464 1.023.744.443-.185.713-.715 1.349-.56.125.122.258.26.417.302.356.092.665-.25.978-.325.31.003.53.331.815.487.135.076.266.104.325.256l-.186.118c-.327-.132-.556-.493-.906-.584-.299-.076-.669.475-1.162.305-.121-.042-.253-.172-.373-.305-.37-.099-.526.178-.79.256-.165.209-.458.458-.697.233-.164-.149-.302-.532-.399-.672-.586-.121-.852.276-1.324.349l-.323.231c-.111.005-.214.019-.258.092-.11.01-.194-.006-.28-.022-.16-.235-.01-.605-.02-.905-.214-.074-.347-.025-.606.091l-.186.093-.233.21-.186.045c-.263.13-.49.408-.697.139.023-.102.09-.155.07-.301-.104-.07-.402-.153-.537-.047-.183-.048-.419.032-.627.07l-.441.048c-.425.105-.852.411-1.348.325l-.093-.117.07-.232c-.968-.084-1.579.396-2.487.232-.018-.147.049-.212.163-.232.174-.335.475-.543.672-.86l.188.025"/><path class="st9" d="M39.662 32.877c.054.128-.016.198-.047.3-.222.127-.385.314-.511.535.458-.012 1.022-.123 1.464-.232.309.015.69-.1.884.07.025.124-.065.132-.068.233.33.072.581-.139.859-.21.304-.078.648-.038.955-.184.41.007.867-.075 1.162.091l.023.256c.562-.19.983-.689 1.674-.604.016.076.084.102.14.138.002.273.012.554-.046.767.537-.122 1.045-.473 1.604-.649.677-.156.708.464 1.023.744.443-.185.713-.715 1.349-.56.125.122.258.26.417.302.356.092.665-.25.978-.325.31.003.53.331.815.487.135.076.266.104.325.256l-.186.118c-.327-.132-.556-.493-.906-.584-.299-.076-.669.475-1.162.305-.121-.042-.253-.172-.373-.305-.37-.099-.526.178-.79.256-.165.209-.458.458-.697.233-.164-.149-.302-.532-.399-.672-.586-.121-.852.276-1.324.349l-.323.231c-.111.005-.214.019-.258.092-.11.01-.194-.006-.28-.022-.16-.235-.01-.605-.02-.905-.214-.074-.347-.025-.606.091l-.186.093-.233.21-.186.045c-.263.13-.49.408-.697.139.023-.102.09-.155.07-.301-.104-.07-.402-.153-.537-.047-.183-.048-.419.032-.627.07l-.441.048c-.425.105-.852.411-1.348.325l-.093-.117.07-.232c-.968-.084-1.579.396-2.487.232-.018-.147.049-.212.163-.232.174-.335.475-.543.672-.86l.188.025z"/><path class="st5" d="M50.956 55.71c.066.106.557.633.869.963.312.331 1.188.898 1.352 1.046.163.149.794.624 1.002.545.209-.078.615-.68.625-.79.013-.108-.108-.565-.14-.788-.034-.226.001-.344-.134-.425-.137-.079-3.667-.858-3.667-.858s.023.201.091.308"/><path class="st1" d="M50.956 55.71c.066.106.557.633.869.963.312.331 1.188.898 1.352 1.046.163.149.794.624 1.002.545.209-.078.615-.68.625-.79.013-.108-.108-.565-.14-.788-.034-.226.001-.344-.134-.425-.137-.079-3.667-.858-3.667-.858s.023.201.091.308"/><path class="st5" d="M53.597 58.239c-.245.043-1.053.455-1.257.545-.204.092-1.145.597-1.156.602v.001l.281.124c.029.018.22.005.469-.007.254-.012.567-.025.827-.006.425.03.961-.008 1.266-.016.192-.007.271-.179.265-.285-.01-.106.069-.343-.254-.715-.12-.137-.176-.252-.351-.252l-.089.009"/><path class="st1" d="M53.597 58.239c-.245.043-1.053.455-1.257.545-.204.092-1.145.597-1.156.602v.001l.281.124c.029.018.22.005.469-.007.254-.012.567-.025.827-.006.425.03.961-.008 1.266-.016.192-.007.271-.179.265-.285-.01-.106.069-.343-.254-.715-.12-.137-.176-.252-.351-.252l-.089.009"/><path class="st5" d="M64.574 53.909c-.445.091-.819.135-2.004.766-.287.153-.658.644-.966 1.117-.159-.35-.363-.706-.688-1.034-.235-.242-1.173-.712-1.418-.788-.426-.131-1.147-.178-1.739-.057-.364.075-1.056.263-2.004.767-.597.318-1.557 2.105-1.557 2.105l-.404 1.1-.362.877c-.113.35-.356 1.863-.372 1.988-.078.57-.326 1.911-.428 3.148-.033.395-.22 2.697.031 2.643.126-.027 1.191.063 2.365.153 1.15.088 2.405.175 2.993.153.585-.023 1.413-.137 2.257-.279 1.271.091 3.673.307 4.557.274 1.734-.066 5.605-.939 5.605-.939s.065-.225.031-.445c-.031-.222-.276-1.484-.459-2.305-.235-1.054-.447-2.17-.492-2.736-.047-.565-.695-3.586-.887-4.098-.193-.51-.412-1.068-.903-1.567-.235-.241-1.175-.71-1.418-.785-.256-.079-.618-.128-.993-.128-.251 0-.509.021-.745.07"/><path class="st2" d="M64.574 53.909c-.445.091-.819.135-2.004.766-.287.153-.658.644-.966 1.117-.159-.35-.363-.706-.688-1.034-.235-.242-1.173-.712-1.418-.788-.426-.131-1.147-.178-1.739-.057-.364.075-1.056.263-2.004.767-.597.318-1.557 2.105-1.557 2.105l-.404 1.1-.362.877c-.113.35-.356 1.863-.372 1.988-.078.57-.326 1.911-.428 3.148-.033.395-.22 2.697.031 2.643.126-.027 1.191.063 2.365.153 1.15.088 2.405.175 2.993.153.585-.023 1.413-.137 2.257-.279 1.271.091 3.673.307 4.557.274 1.734-.066 5.605-.939 5.605-.939s.065-.225.031-.445c-.031-.222-.276-1.484-.459-2.305-.235-1.054-.447-2.17-.492-2.736-.047-.565-.695-3.586-.887-4.098-.193-.51-.412-1.068-.903-1.567-.235-.241-1.175-.71-1.418-.785-.256-.079-.618-.128-.993-.128-.251 0-.509.021-.745.07"/><path class="st1" d="M55.762 66.882l-.888-.048-.652 1.201.91.035zM54.505 68.795l.843-.343-.226-.301-1.019-.038zM55.139 70.26l.324.229.943-.845-.254-.434c-.091.015-.38.192-.552.306l-.46.744zM56.003 69.181l-.581-.668-.749.301.895.624c.083-.055.282-.183.434-.257"/><path class="st1" d="M57.488 66.863l.142.448.944-.064-.222-.463zM57.755 67.399l.155.554.902-.267-.269-.343zM58.576 68.832l-.693.554.518.333 1.162-.554-.391-.409zM59.171 68.673l-.344-.89-.776.228.556.733zM64.826 66.928l-1.018-.034-.635.678.88.228zM64.029 67.877l-.989-.254.245.752.9-.155zM66.079 66.819l.799-.112.14.554-.745.582zM66.985 67.41l.258.514-.852.406-.028-.436zM67.339 69.022l.889-.053-.16.594-1.235.363.014-.565zM66.793 69.299l-.345-.89.732-.346.08.915z"/><path class="st7" d="M63.946 56.12c-.244-.105-.558-.033-.77.107-.233.155-.302.408-.131.637.121.159.31.278.516.256.151-.016.307-.091.422-.202.018.025.112.039.127.003.11-.281.17-.657-.164-.801M57.132 56.123c-.243-.103-.558-.033-.768.109-.233.155-.304.407-.131.636.12.16.309.278.515.256.151-.017.308-.091.421-.201.02.023.114.039.129.002.108-.281.17-.657-.166-.802"/><path class="st1" d="M63.841 56.539l-.003-.004.003-.016c.016-.117-.124-.149-.23-.141-.075-.02-.154-.019-.213.012-.07.038-.082.101-.067.174l.008.031-.002.127c.053.138.271.125.369.05l.057-.078c.052-.037.094-.09.077-.154M57.024 56.539l.003-.014c.015-.119-.124-.15-.231-.142-.074-.021-.153-.02-.213.014-.068.036-.081.098-.065.174l.008.028v.128c.052.138.27.128.367.05l.058-.078c.05-.036.093-.088.074-.153l-.001-.005"/><path class="st1" d="M85.627 53.424c-.101-.432-.135-.878-.135-1.323 0-.758-.04-1.758-.676-2.276.556-.409.701-1.147.703-1.799.004-1.792-.74-2.472-2.513-2.476l-2.09-.003c-.238 0-.447.211-.447.448l-.011 7.545c0 .232.21.443.445.445h1.358c.234.001.449-.21.449-.445l.001-2.802c.503 0 .554.41.554.813l-.023.627c0 .412-.001 1.809.621 1.809l1.327.001c.254 0 .455-.151.455-.409l-.02-.155zm-2.336-5.009c-.001.175-.181.388-.463.388h-.106l.002-.935h.104c.282 0 .455.252.462.402v.146zM105.736 43.725c-.097-.435-.132-.882-.132-1.325.002-.755-.04-1.762-.676-2.273.557-.411.704-1.144.706-1.801 0-1.792-.743-2.471-2.513-2.474l-2.093-.001c-.237-.003-.451.209-.451.444l-.008 7.548c0 .23.215.443.448.445l1.355.001c.237 0 .449-.212.449-.446l.003-2.802c.502 0 .559.407.556.814l-.023.62c0 .413-.005 1.814.621 1.817h1.328c.255 0 .453-.154.453-.411l-.022-.156zm-2.333-5.009c-.006.173-.176.389-.458.389l-.111-.003v-.933h.111c.282 0 .454.255.458.405v.142zM123.041 39.127v-.008c-.416-.32-.779-.588-.777-.795 0-.126.073-.196.197-.196.395.004.092.68.523.667h.104v-.004l1.257.003c.233 0 .445-.211.445-.447v-.121c.001-1.499-1.111-2.482-2.577-2.485-1.379-.001-2.515.866-2.517 2.312-.003 1.066.682 1.84 1.399 2.449l.039.031c.567.487 1.228.869 1.228 1.154 0 .123-.074.184-.2.184-.399 0-.095-.672-.519-.656h-.763v-.01h-.856c-.244 0-.447.21-.447.456-.003.267.032.534.078.787.265 1.372 1.111 1.996 2.48 2 1.651 0 2.74-.747 2.743-2.493.003-1.312-.99-2.183-1.837-2.829"/><path class="st1" d="M110.571 63.747c.236 0 .448-.212.448-.447l.01-7.542c0-.235-.211-.449-.447-.449l-1.801-.003c-.327 0-.597.159-.665.734-.063.52-.214 1.647-.24 1.953-.056-.33-.191-1.418-.299-1.953-.108-.525-.366-.734-.721-.734h-1.805c-.232 0-.445.209-.445.441l-.01 7.548c0 .232.213.446.446.446l1.157.002c.233 0 .44-.214.44-.446l.005-2.356c.032.155.228 1.718.274 1.916.084.44.067.886.559.886h.659c.524 0 .487-.422.57-.894l.267-1.902-.003 2.353c-.002.236.211.443.442.443l1.158.005zM99.816 38.43c-.101-.869-.297-1.868-1.169-2.294-.52-.258-1.18-.287-1.747-.293h-1.668c-.237-.001-.444.208-.444.443l-.012 7.549c0 .235.208.445.443.445l1.671.003c1.557 0 2.495-.381 2.83-2.024.146-.724.159-1.469.16-2.193 0-.545-.01-1.088-.063-1.635zm-2.173 1.554l-.002.555c-.005.674-.047 1.257-.471 1.257h-.114l.005-3.598h.116c.408 0 .461.649.466 1.228v.558zM79.293 49.818h-1.36c-.233-.001-.445.215-.445.447v.549c0 .193-.043.404-.29.401-.202 0-.25-.228-.261-.424l-.005-.425.005-1.479c0-.08-.016-.464 0-.601.016-.194.082-.367.298-.367.192.001.239.185.252.347l.004.365v.198c0 .233.215.389.446.389l1.377.001c.237-.01.429-.213.429-.458.004-1.943-.376-3.481-2.667-3.484-1.64-.001-2.285.833-2.544 2.354-.112.659-.138 1.323-.138 1.994-.002.666.022 1.34.133 1.992.254 1.523.9 2.363 2.538 2.363 1.244.003 2.222-.534 2.53-1.799.108-.469.177-.955.177-1.435 0-.325-.029-.928-.479-.928M79.306 40.231l-1.366-.003c-.229 0-.44.214-.44.446v.546c0 .196-.043.404-.29.404-.203 0-.252-.228-.263-.423l-.002-.428.002-1.473c0-.083-.016-.467 0-.609.017-.192.086-.368.3-.368.19 0 .239.195.253.35l.001.365v.196c0 .235.216.389.447.389l1.377.003c.234-.008.429-.215.429-.454.002-1.947-.377-3.485-2.667-3.487-1.641-.004-2.286.829-2.543 2.36-.112.654-.138 1.318-.138 1.988-.001.668.021 1.337.132 1.992.254 1.525.898 2.362 2.537 2.362 1.246.004 2.225-.528 2.529-1.795.111-.469.181-.961.181-1.437 0-.323-.033-.925-.479-.925M90.949 58.537l.003-.011c-.417-.323-.786-.586-.786-.795 0-.121.077-.187.197-.186.397 0 .098.674.524.659h.104v-.001l1.26.001c.235 0 .447-.21.447-.446v-.12c0-1.503-1.113-2.485-2.578-2.488-1.382-.002-2.521.867-2.523 2.315 0 1.067.687 1.837 1.406 2.451l.042.028c.561.487 1.223.869 1.223 1.154 0 .118-.076.187-.196.187-.398-.005-.095-.675-.52-.661l-.768-.001v-.007l-.85-.002c-.245 0-.448.212-.448.455-.002.271.031.536.076.792.267 1.369 1.111 1.994 2.48 1.997 1.649 0 2.74-.744 2.744-2.491 0-1.315-.99-2.182-1.835-2.829M101.226 63.868c1.494.002 2.54-.741 2.543-2.314l.007-5.808c0-.232-.215-.446-.447-.446h-1.426c-.231 0-.446.209-.446.445l-.005 4.607c0 .178.022.4-.221.4-.25 0-.223-.222-.223-.4l.007-4.607c0-.237-.213-.451-.447-.451h-1.425c-.234 0-.447.212-.447.445l-.008 5.81c0 1.572 1.043 2.315 2.536 2.319"/><path class="st1" d="M97.585 63.732c.238 0 .447-.213.449-.448v-1.27c0-.229-.211-.442-.448-.442h-.489c-.31-.001-.551-.248-.551-.56.001-.31.241-.556.551-.553.236 0 .449-.211.449-.447v-1.268c0-.235-.208-.448-.446-.448-.252 0-.451-.2-.451-.458 0-.25.2-.454.451-.454l.382.003c.234 0 .448-.213.448-.445v-1.203c0-.233-.212-.445-.444-.449l-3.608-.002c-.233 0-.445.209-.445.447l-.012 7.544c-.002.235.212.447.446.447l3.718.006zM84.36 63.848c1.495 0 2.543-.745 2.547-2.315l.007-5.808c0-.235-.211-.449-.447-.449h-1.426c-.233-.003-.443.212-.443.445l-.007 4.607c0 .18.021.404-.226.404-.241 0-.22-.224-.22-.404l.007-4.607c0-.233-.211-.448-.444-.448h-1.423c-.237 0-.447.211-.447.445l-.01 5.809c-.003 1.574 1.044 2.32 2.532 2.32"/><path class="st1" d="M80.523 63.709c.237 0 .448-.21.448-.445l.01-7.548c0-.231-.209-.444-.445-.444h-1.804c-.325 0-.595.155-.663.732-.063.521-.221 1.646-.244 1.949-.055-.326-.189-1.417-.299-1.952-.108-.527-.366-.729-.725-.734l-1.802-.002c-.233 0-.445.211-.445.445l-.008 7.544c-.002.237.211.449.443.449h1.159c.238 0 .449-.209.449-.446v-2.354l.267 1.913c.087.44.073.889.563.889h.659c.524 0 .487-.423.569-.895.033-.181.238-1.73.267-1.904v2.356c-.001.233.209.443.445.443l1.156.003zM123.915 48.302c.205-.55.659-1.735.659-2.277 0-.3-.13-.421-.434-.423l-1.302-.002c-.603 0-.765 1.398-.813 1.847-.109-.46-.267-1.847-.9-1.851h-1.302c-.3 0-.433.122-.433.424-.003.543.45 1.726.653 2.281l.477 1.336c.045.134.296.845.296.916.023.331.014.676.014 1.01l-.014 2.025c0 .236.209.444.445.444l1.424.004c.235 0 .45-.207.45-.445l-.014-2.025c0-.336-.01-.678.016-1.01 0-.07.254-.782.298-.916l.48-1.338"/><path class="st1" d="M118.787 47.689c.234 0 .446-.215.446-.445v-1.204c0-.233-.207-.445-.444-.445l-4.317-.005c-.238-.002-.447.208-.447.445v1.205c0 .23.209.44.445.44l1.001.003-.008 5.9c0 .237.212.447.444.447l1.424.002c.229 0 .445-.207.445-.447l.008-5.896h1.003zM113.042 54.025c.232 0 .444-.209.444-.445l.007-7.545c0-.237-.209-.447-.443-.447h-1.426c-.235 0-.443.209-.446.443l-.005 7.546c-.003.236.207.445.438.448h1.43zM110.58 46.107l.012-.087c0-.259-.192-.436-.444-.436l-1.277-.001c-.208 0-.372.187-.427.376l-.406 2.829-.586-2.838c-.074-.167-.259-.37-.444-.37l-1.326-.001c-.258 0-.453.168-.457.425l.025.112 1.593 7.545c.033.179.267.355.433.355l1.481.004c.188 0 .412-.19.447-.368l1.377-7.545zM104.22 54.016c.23 0 .444-.213.446-.445l.01-7.548c0-.232-.215-.443-.444-.443l-1.424-.005c-.234 0-.447.213-.448.447l-.01 7.546c0 .237.214.447.449.447l1.422.002zM101.289 47.665c.233 0 .445-.21.445-.44l.002-1.203c0-.235-.213-.447-.445-.447l-4.323-.005c-.235 0-.442.211-.444.445v1.205c-.003.229.209.442.44.442l1.006.001-.006 5.9c-.003.238.21.444.444.444l1.426.005c.234 0 .442-.208.442-.445l.01-5.9h1.004zM96.377 54.003c.254 0 .447-.174.447-.43v-.092l-1.291-7.548c-.033-.177-.254-.367-.445-.367l-1.87-.001c-.188-.002-.412.185-.443.365l-1.316 7.544v.092c0 .258.19.432.447.432l1.323.002c.492 0 .484-.656.541-.998l.755.001c.055.341.043.997.533 1h1.321zM90.57 53.995c.229 0 .441-.207.441-.443v-1.266c0-.236-.209-.45-.44-.45l-.492-.002c-.313 0-.558-.241-.558-.552 0-.312.248-.554.56-.554.237 0 .442-.21.445-.447v-1.269c0-.233-.207-.447-.442-.447-.258-.002-.453-.2-.453-.46 0-.254.195-.453.455-.453h.378c.234 0 .447-.212.447-.442l.001-1.206c0-.235-.211-.443-.446-.443l-3.608-.005c-.233-.001-.446.211-.446.442l-.009 7.546c0 .237.215.448.443.448l3.723.002zM119.081 38.888c.078-.155.245-.479.248-.625l.004-1.947c0-.232-.214-.445-.451-.445h-1.221c-.236 0-.445.209-.445.445l-.003 1.783c0 .316.267.445.554.445-.232.434-.624.92-.624 1.433-.002.278.175.391.445.391l.324.001c.434 0 1.002-1.135 1.17-1.48"/><path class="st1" d="M116.134 44.307c.239 0 .446-.209.446-.447l.011-7.545c0-.235-.209-.447-.449-.447l-1.153-.002c-.434 0-.492.32-.492.614-.014.511.045 1.173.043 1.708-.108-.336-.307-1.079-.595-1.82-.128-.307-.233-.502-.567-.502h-1.412c-.239 0-.448.207-.448.442l-.01 7.548c0 .233.208.444.445.444l1.157.002c.231.003.445-.209.445-.443l.003-1.793c.32 1.558.162 2.239 1.231 2.242h1.345zM110.397 44.3c.235 0 .447-.211.447-.445l.003-1.271c0-.233-.212-.445-.447-.445l-.49-.002c-.31 0-.555-.247-.555-.556 0-.31.248-.558.557-.555.235 0 .446-.213.446-.447v-1.27c0-.23-.208-.445-.445-.445-.255 0-.454-.198-.454-.456 0-.252.201-.459.454-.459h.378c.235 0 .448-.208.448-.44v-1.201c.003-.235-.209-.446-.442-.446l-3.608-.005c-.23 0-.442.209-.442.445l-.012 7.547c0 .235.215.447.445.447l3.717.004zM94.009 44.278c.235 0 .445-.207.445-.442l.001-1.274c0-.235-.209-.447-.445-.447h-1.958l.007-5.828c0-.236-.211-.448-.443-.451h-1.425c-.239 0-.449.211-.449.447l-.008 7.547c0 .233.209.446.445.446l3.83.003zM88.356 44.273c.231 0 .441-.212.441-.444l.01-7.547c0-.237-.207-.447-.443-.447l-1.427-.005c-.235 0-.445.213-.445.445l-.008 7.55c0 .23.207.444.443.444l1.429.003zM85.159 44.27l-1.427-.005c-.233 0-.442-.21-.442-.445l.002-1.54h-.443l-.003 1.54c0 .235-.214.445-.451.445l-1.424-.003c-.236 0-.447-.211-.447-.447l.01-7.544c0-.235.212-.448.447-.446l1.423.002c.237 0 .453.212.453.445l-.002 1.586h.44l.002-1.586c0-.233.212-.445.445-.443h1.428c.231 0 .446.209.446.445l-.008 7.545c0 .236-.216.449-.451.449"/></g></svg>