<svg width="325" height="56" fill="none" xmlns="http://www.w3.org/2000/svg"><path d="M53.46 55.148H1.04c8.861-7.78 17.457-15.331 26.19-23.002 8.689 7.622 17.302 15.172 26.23 23.002zM27.27 22.935C18.621 15.35 10.06 7.847 1.115 0h52.26C44.462 7.83 35.92 15.336 27.27 22.935z" fill="#858C92"/><path d="M31.228 27.483C38.81 18.834 46.316 10.274 54.163 1.33v52.26c-7.834-8.914-15.34-17.457-22.935-26.106zM22.935 27.328C15.35 35.978 7.847 44.538 0 53.483V1.223c7.83 8.914 15.336 17.456 22.935 26.105z" fill="#A3A8AD"/><path d="M82.976 40.432c5.832 0 10.476-3.528 12.06-8.748H90.68c-1.332 2.952-4.176 4.86-7.74 4.86-5.148 0-8.856-3.888-8.856-9.144s3.708-9.144 8.856-9.144c3.564 0 6.408 1.908 7.74 4.86h4.356c-1.584-5.22-6.228-8.748-12.06-8.748-7.488 0-12.996 5.58-12.996 13.032s5.508 13.032 12.996 13.032zM114.62 40h5.004l-7.524-9.612c3.996-.756 6.336-3.456 6.336-7.596 0-4.752-3.096-7.992-8.568-7.992H99.464V40h4.068v-9.396h3.888l7.2 9.396zm-11.088-21.312h5.904c3.312 0 4.896 1.692 4.896 4.14 0 2.448-1.548 4.176-4.896 4.176h-5.904v-8.316zm31.193-4.32c-7.38 0-13.068 5.616-13.068 13.032s5.688 13.032 13.068 13.032 13.032-5.616 13.068-13.032c-.036-7.416-5.688-13.032-13.068-13.032zm0 3.888c5.076 0 8.928 3.888 8.928 9.144s-3.852 9.144-8.928 9.144c-5.112 0-8.964-3.888-8.964-9.144s3.852-9.144 8.964-9.144zm26.752 6.912c-4.176-.9-5.616-1.476-5.616-3.276 0-2.196 1.836-3.708 5.22-3.708 3.384 0 5.112 1.368 5.832 3.456h4.104c-.72-3.996-3.636-7.272-9.972-7.272-4.824 0-9.252 2.628-9.252 7.632 0 4.716 3.816 6.084 8.712 7.164 4.68 1.044 6.732 1.44 6.732 3.78s-1.944 3.672-5.328 3.672c-3.996 0-5.94-1.512-6.696-4.428h-4.104c.684 4.356 3.78 8.244 10.836 8.244 4.5 0 9.396-2.16 9.396-7.668 0-4.86-3.492-6.192-9.864-7.596zm23.519 0c-4.176-.9-5.616-1.476-5.616-3.276 0-2.196 1.836-3.708 5.22-3.708 3.384 0 5.112 1.368 5.832 3.456h4.104c-.72-3.996-3.636-7.272-9.972-7.272-4.824 0-9.252 2.628-9.252 7.632 0 4.716 3.816 6.084 8.712 7.164 4.68 1.044 6.732 1.44 6.732 3.78s-1.944 3.672-5.328 3.672c-3.996 0-5.94-1.512-6.696-4.428h-4.104c.684 4.356 3.78 8.244 10.836 8.244 4.5 0 9.396-2.16 9.396-7.668 0-4.86-3.492-6.192-9.864-7.596zM214.428 40h5.004l-7.524-9.612c3.996-.756 6.336-3.456 6.336-7.596 0-4.752-3.096-7.992-8.568-7.992h-10.404V40h4.068v-9.396h3.888l7.2 9.396zM203.34 18.688h5.904c3.312 0 4.896 1.692 4.896 4.14 0 2.448-1.548 4.176-4.896 4.176h-5.904v-8.316zm31.194-4.32c-7.38 0-13.068 5.616-13.068 13.032s5.688 13.032 13.068 13.032 13.032-5.616 13.068-13.032c-.036-7.416-5.688-13.032-13.068-13.032zm0 3.888c5.076 0 8.928 3.888 8.928 9.144s-3.852 9.144-8.928 9.144c-5.112 0-8.964-3.888-8.964-9.144s3.852-9.144 8.964-9.144zM269.211 40h4.32l-9.756-25.2h-5.184L248.835 40h4.32l2.556-6.768h10.944L269.211 40zm-12.024-10.62l3.996-10.548 3.996 10.548h-7.992zM286.42 14.8h-8.82V40h8.82c7.308 0 12.888-5.328 12.888-12.6 0-7.308-5.544-12.6-12.888-12.6zm.036 21.312h-4.788V18.688h4.788c5.076 0 8.784 3.6 8.784 8.712 0 5.148-3.708 8.712-8.784 8.712zm26.579-10.944c-4.176-.9-5.616-1.476-5.616-3.276 0-2.196 1.836-3.708 5.22-3.708 3.384 0 5.112 1.368 5.832 3.456h4.104c-.72-3.996-3.636-7.272-9.972-7.272-4.824 0-9.252 2.628-9.252 7.632 0 4.716 3.816 6.084 8.712 7.164 4.68 1.044 6.732 1.44 6.732 3.78s-1.944 3.672-5.328 3.672c-3.996 0-5.94-1.512-6.696-4.428h-4.104c.684 4.356 3.78 8.244 10.836 8.244 4.5 0 9.396-2.16 9.396-7.668 0-4.86-3.492-6.192-9.864-7.596z" fill="#858C92"/></svg>