<svg width="257" height="152" fill="none" xmlns="http://www.w3.org/2000/svg"><path d="M189.085 95.926c-4.694 5.891-11.915 9.65-20.002 9.65-6.933 0-13.251-2.783-17.873-7.3-.686-.651-1.805-.217-1.805.758v8.349c0 .361.181.687.469.904 5.488 3.722 12.096 5.927 19.209 5.927a34.008 34.008 0 0 0 21.446-7.59c.253-.217.398-.506.398-.831v-9.18c.036-1.048-1.192-1.482-1.842-.687z" fill="#858C92"/><path d="M154.641 75.435c0 3-.036 5.963.036 8.963.144 5.493 2.852 12.034 14.442 12.034s13.756-5.638 14.442-11.275c.145-1.048.181-2.097.181-3.18V64.411c0-4.445.036-14.167 0-18.613 0-15.179-14.298-10.047-14.298-10.047s-14.803 2.928-14.623 12.577c-.18 1.157-.18 2.386-.18 3.578v23.528zm18.811-30.684v41.996h-8.702l.036-39.502 8.666-2.494zM10.29 39.294c0-.433.036-20.094.108-20.528.109-1.192.037-2.168.037-2.168l8.593 4.662c.036 1.229.036 8.204.036 10.047 0 .29.108.542.325.723l8.087 7.192c.65.578 1.661.108 1.661-.723 0-4.77.036-15.721-.108-17.13-.361-4.482-2.022-6.903-7.005-9.795-3.357-1.951-6.68-4.3-11.95-6.939C4.801 2.033 0 4.238 0 13.995v26.058c0 13.95 19.028 17.311 19.028 24.72v22.01h-8.702s-.036-11.348-.072-14.348c0-.614-.505-1.084-1.083-1.084H1.083C.47 71.35 0 71.82 0 72.435c0 1.843.144 8.53.253 14.384.108 5.349 4.477 9.65 9.82 9.65H19.1c5.38 0 9.784-4.337 9.82-9.722.109-8.927.253-21.793.253-22.769 0-13.842-18.883-16.372-18.883-24.684zM202.3 44.896c0-.434.108-8.602.108-8.602l8.666-3s.036 6.506.036 8.928c0 .975.397 1.915 1.119 2.602l6.571 6.107c.903.832 2.347.217 2.347-1.011.036-5.71.072-14.818-.072-16.806-.361-4.481-2.563-7.734-6.896-9.288-4.694-1.663-10.435 1.77-15.598 3.65-2.997 1.084-6.571 4.988-6.535 9v8.818c-.397 11.926 19.028 23.49 19.028 30.972v10.517h-8.738s-.036-6.47-.072-8.349c0-.795-.036-1.59-.217-2.349-.288-1.084-.938-1.77-2.058-1.807-1.841-.072-3.682-.036-5.56 0-1.589.036-1.986 1.301-2.455 2.494v9.866c0 5.421 4.405 9.83 9.821 9.83H211.29c5.452 0 9.857-4.409 9.857-9.83V75.471c.036-12.396-18.847-22.263-18.847-30.575zM255.556 86.747h-13.143V57.58c1.661-1.012 3.033-2.132 4.333-3.144 2.888-2.277 4.91-3.867 8.918-4.156.722-.036 1.3-.65 1.3-1.373v-5.855c0-.795-.686-1.446-1.48-1.41-6.283.326-9.929 2.783-13.071 5.205V21.224h12.782a1.45 1.45 0 0 0 1.444-1.446v-5.674a1.45 1.45 0 0 0-1.444-1.445c-3.936 0-14.912-.037-20.003.036-2.238.036-2.924.903-2.924 3.108v36.646c-1.3.253-2.744.434-4.441.506a1.396 1.396 0 0 0-1.336 1.41v5.855c0 .795.65 1.41 1.444 1.41a31.606 31.606 0 0 0 4.333-.399v31.84c0 2.494.83 3.361 3.321 3.361 4.911 0 16.067.037 20.003.037a1.41 1.41 0 0 0 1.408-1.41v-6.83c-.036-.832-.65-1.482-1.444-1.482zM81.202 85.988v1.59c0 .831.975 1.265 1.552.687 1.697-1.663 3.575-3.145 5.524-4.482 1.011-.686 1.589-1.843 1.589-3.072v-5.53c-.072-4.192.108-17.816-.144-21.43a5.94 5.94 0 0 0 .397-.109c.18.434 9.279 15.685 12.673 22.552.433.83 1.336 1.265 2.238 1.156a42.938 42.938 0 0 1 5.741-.397c.397 0 .795 0 1.156.036.83.036 1.48-.65 1.48-1.446v-.578-30.792c0-.65-.469-1.229-1.119-1.337-1.986-.361-4.153-.831-6.283-1.554-.866-.29-1.769.361-1.769 1.265l.361 19.516-.361-1.59s-10.146-17.059-12.529-22.01a1.447 1.447 0 0 0-.974-.795l-7.583-2.096c-.974-.253-1.95.47-1.95 1.481v48.935zM64.051 30.367a1.87 1.87 0 0 0-1.191-1.445l-11.337-4.265c-1.083-.397-2.275.29-2.492 1.41a20984.04 20984.04 0 0 1-5.054 29.78 53.986 53.986 0 0 1-7.077-5.783c-.542-.542-1.517-.18-1.517.614v7.193c0 .758.29 1.517.795 2.096 1.444 1.517 3.827 3.36 6.246 5.023-1.516 8.855-2.78 16.444-3.213 19.408-.361 2.493-1.192 7.48-1.661 10.661a1.207 1.207 0 0 0 1.191 1.374h7.438c.614 0 1.12-.434 1.192-1.013.505-3.36 2.202-13.914 4.007-25.153 7.8 4.662 10.94 9.36 12.782 18.178.505 3.18.902 5.638 1.119 6.976.108.578.614 1.011 1.192 1.011h7.473c.759 0 1.3-.65 1.192-1.409-1.697-10.734-9.46-54.5-11.085-64.655zM52.86 61.052c1.552-9.722 2.924-18.685 3.466-22.552.65 4.518 2.455 15.974 4.296 27.575-2.274-1.843-4.874-3.47-7.762-5.023z" fill="#858C92"/><path d="M144.387 116.021V50.389v-5.782c0-1.157-1.084-2.06-2.239-1.771-6.463 1.518-12.276 1.59-19.389.65a1.358 1.358 0 0 0-1.552 1.374v6.577c0 .65.469 1.23 1.083 1.338 4.08.795 8.232.975 11.806.867v63.065c0 .253.037.47.037.723 0 13.77-11.988 24.829-26.069 23.238-10.723-1.192-19.352-9.866-20.544-20.564-1.552-14.094 9.46-26.057 23.216-26.057 3.069 0 6.03.615 8.702 1.699.83.325 1.733-.253 1.733-1.157v-7.734a1.93 1.93 0 0 0-1.372-1.843c-4.333-1.229-9.063-1.59-13.901-.904-15.525 2.205-27.62 15.252-28.74 30.937-1.444 20.6 15.742 37.658 36.394 35.96 16.356-1.338 29.535-14.673 30.726-31.045 0-.217 0-.434.036-.687l.036.036v-.831c.073-.831.073-1.662.037-2.457zM242.197 8.9h9.532c1.011 0 1.877-.614 2.238-1.554l2.203-6c.324-.867-.65-1.698-1.445-1.192l-12.817 7.662c-.578.289-.325 1.084.289 1.084z" fill="#858C92"/><path d="M0 131.164v4.482c0 .506.397.903.903.903H75.64c.47 0 .759-.506.542-.903-.686-1.338-1.336-2.675-1.878-4.084a1.947 1.947 0 0 0-1.805-1.265H.867c-.47-.036-.867.361-.867.867zM256.061 130.26H149.008c-.794 0-1.516.506-1.805 1.265a38.31 38.31 0 0 1-1.878 4.084.615.615 0 0 0 .542.903h110.194a.894.894 0 0 0 .903-.903v-4.482c0-.469-.397-.867-.903-.867z" fill="#A3A8AD"/></svg>