<svg xmlns="http://www.w3.org/2000/svg" viewBox="0 0 399.9062 121.8496"><defs><style>.cls-1{isolation:isolate;}.cls-2,.cls-4{fill:#858c92;}.cls-3,.cls-4{mix-blend-mode:darken;}</style></defs><title>Asset 1</title><g class="cls-1"><g id="Layer_2" data-name="Layer 2"><g id="Layer_3" data-name="Layer 3"><path class="cls-2" d="M29.0244 52.22c0 8.6123-6.543 15.0435-14.54 15.0435S0 60.8325 0 52.22s6.4873-15.1545 14.4844-15.1545 14.54 6.543 14.54 15.1545zm-7.4375.0562c0-4.977-3.188-8.4443-7.103-8.4443s-7.102 3.467-7.102 8.444c0 4.865 3.187 8.2202 7.102 8.2202s7.1024-3.3553 7.1024-8.2205zM61.964 66.593h-7.046v-3.076a11.971 11.971 0 0 1-8.836 3.691c-7.493 0-13.701-6.4874-13.701-14.988 0-8.556 6.208-15.043 13.701-15.043a11.969 11.969 0 0 1 8.836 3.691v-3.076h7.047zM47.2012 44c-4.083 0-7.382 3.579-7.382 8.277 0 4.5858 3.299 8.1088 7.382 8.1088s7.3818-3.6358 7.3818-8.1093c0-4.586-3.2998-8.2765-7.3818-8.2765zM76.17 58.316v8.277h-7.382V24.986h7.382V48.25l9.4512-10.458h10.1776L85.0615 49.0328l11.3525 17.56H87.02l-7.1587-12.1352zm31.375 8.277h-7.382V24.986h7.382zm34.7284 0h-7.046v-3.076a11.9725 11.9725 0 0 1-8.8358 3.691c-7.494 0-13.7012-6.4874-13.7012-14.988 0-8.556 6.207-15.043 13.7012-15.043a11.9707 11.9707 0 0 1 8.836 3.691v-3.076h7.0458zM127.51 44c-4.082 0-7.3818 3.579-7.3818 8.277 0 4.5858 3.3 8.1088 7.3818 8.1088s7.3818-3.6353 7.3818-8.109c-.0002-4.5863-3.3-8.2768-7.3818-8.2768zm47.3123 22.593H167.44V49.76c0-1.6777-.504-5.704-5.369-5.704a5.4646 5.4646 0 0 0-5.592 5.704v16.833h-7.3817V37.792h7.046v2.7965a9.5055 9.5055 0 0 1 7.4374-3.523c6.7676 0 11.2412 5.089 11.2412 12.6944zm34.4502 0h-7.047v-3.076a12.0634 12.0634 0 0 1-8.8358 3.691c-7.4932 0-13.7012-6.4874-13.7012-14.988 0-8.556 6.208-15.043 13.7012-15.043a12.1056 12.1056 0 0 1 8.501 3.355V24.986h7.3818zM194.5088 44c-4.083 0-7.3818 3.579-7.3818 8.277 0 4.5858 3.2988 8.1088 7.3818 8.1088s7.3818-3.6353 7.3818-8.109c0-4.5863-3.2998-8.2768-7.3818-8.2768zm104.495-44c-22.89 0-16.7 25.2784-51.9848 25.2784h-31.422v5.646h29.3268c35.2817 0 29.0957-25.2764 51.9834-25.2764 7.9594 0 13.269 3.1406 17.747 7.7768a26.998 26.998 0 0 1 4.7574-2.8462C314.318 4.45 308.537 0 299.0038 0zm77.7542 46.0923c-30.0368 0-41.325-13.6094-50.2965-26.042-.059-.003-.11-.0058-.172-.0058a16.517 16.517 0 0 0-5.5292.9614c9.6182 13.404 19.4468 30.738 52.981 30.738h23.4658l2.7-5.652z"/><path class="cls-3 cls-2" d="M299.0038 0c-22.89 0-16.7 25.2784-51.9848 25.2784h-31.422v5.646h29.3268c35.2817 0 29.0957-25.2764 51.9834-25.2764 7.9594 0 13.269 3.1406 17.747 7.7768a26.998 26.998 0 0 1 4.7574-2.8462C314.318 4.45 308.537 0 299.0038 0zm77.7542 46.0923c-30.0368 0-41.325-13.6094-50.2965-26.042-.059-.003-.11-.0058-.172-.0058a16.517 16.517 0 0 0-5.5292.9614c9.6182 13.404 19.4468 30.738 52.981 30.738h23.4658l2.7-5.652z"/><path class="cls-2" d="M387.8008 34.299L385.1 39.9467h-6.711c-39.6806 0-34.8026-22.8017-52.1-22.8017a21.2275 21.2275 0 0 0-12.5873 4.382c-.5513-.6617-1.1157-1.3014-1.7-1.9117 6.0278-6.104 11.119-8.1177 16.5947-8.1177 18.1216 0 12.3716 22.8013 52.49 22.8013zm-84.8735-1.479c.91-1.228 1.8335-2.4262 2.78-3.5654-.3106-.3345-.6226-.6543-.9458-.957q-1.2987 1.784-2.673 3.796c.2856.239.5615.4802.8388.7264z"/><path class="cls-3 cls-2" d="M387.8008 34.299L385.1 39.9467h-6.711c-39.6806 0-34.8026-22.8017-52.1-22.8017a21.2275 21.2275 0 0 0-12.5873 4.382c-.5513-.6617-1.1157-1.3014-1.7-1.9117 6.0278-6.104 11.119-8.1177 16.5947-8.1177 18.1216 0 12.3716 22.8013 52.49 22.8013zm-84.8735-1.479c.91-1.228 1.8335-2.4262 2.78-3.5654-.3106-.3345-.6226-.6543-.9458-.957q-1.2987 1.784-2.673 3.796c.2856.239.5615.4802.8388.7264z"/><path class="cls-2" d="M295.314 42.2222c-4.8252 7.165-10.729 15.2017-18.9165 15.2017-18.44 0-12.0244-20.35-44.7725-20.35h-16.028v5.644h13.333c32.7446 0 26.33 20.351 44.7676 20.351 9.6035 0 16.3013-11.1668 22.274-20.2738-.2158-.196-.436-.386-.6576-.574z"/><path class="cls-4" d="M295.314 42.2222c-4.8252 7.165-10.729 15.2017-18.9165 15.2017-18.44 0-12.0244-20.35-44.7725-20.35h-16.028v5.644h13.333c32.7446 0 26.33 20.351 44.7676 20.351 9.6035 0 16.3013-11.1668 22.274-20.2738-.2158-.196-.436-.386-.6576-.574z"/><path class="cls-2" d="M227.1958 48.8662H215.597v5.6485h8.297c11.2065 0 19.0532-1.832 25.045-4.394a25.31 25.31 0 0 0-6.16-2.7657 73.125 73.125 0 0 1-15.5832 1.5112zM367.0663 69.68c-65.1176 0-51.058-41.2295-84.09-41.2295-11.1172 0-15.7368 7.2486-25.43 13.1074.8345.668 1.605 1.36 2.3228 2.049 6.463-4.857 11.047-9.507 19.807-9.507 33.4894 0 18.86 41.231 84.692 41.231h25.802l2.7014-5.652z"/><path class="cls-3 cls-2" d="M227.1958 48.8662H215.597v5.6485h8.297c11.2065 0 19.0532-1.832 25.045-4.394a25.31 25.31 0 0 0-6.16-2.7657 73.125 73.125 0 0 1-15.5832 1.5112zM367.0663 69.68c-65.1176 0-51.058-41.2295-84.09-41.2295-11.1172 0-15.7368 7.2486-25.43 13.1074.8345.668 1.605 1.36 2.3228 2.049 6.463-4.857 11.047-9.507 19.807-9.507 33.4894 0 18.86 41.231 84.692 41.231h25.802l2.7014-5.652z"/><path class="cls-2" d="M265.463 49.62a23.636 23.636 0 0 0 2.16 2.02 65.2593 65.2593 0 0 0 10.8915-14.609c-.5444.0328-1.068.09-1.5786.1617A49.866 49.866 0 0 1 265.463 49.62zm-10.3384 5.8664c-7.6143 3.1665-17.463 5.1753-30.522 5.1753h-9.0056v5.6455h6.9078c16.103 0 27.3423-3.065 35.5318-7.5957-.5274-.5708-1.045-1.1514-1.5577-1.7207-.448-.5015-.895-1.005-1.355-1.5044zm118.7846 2.4028c-61.358 0-52.8437-42.1274-76.7905-42.1274-6.256 0-9.7153 4.0908-13.1963 9.804.684.0153 1.3525.0485 2.001.094a11.7522 11.7522 0 0 1 9.102-4.2516c24.3863 0 14.0157 42.1245 76.1846 42.1245h13.5083l2.7007-5.6435zM32.4844 99.1368c.882 5.6562 5.77 9.292 12.546 9.292 6.893 0 11.5243-3.665 11.5243-9.12 0-6.214-4.941-7.4884-11.4-8.509-5.536-.8768-7.502-1.6063-7.502-3.9618 0-2.453 2.9312-4.3022 6.8184-4.3022 3.755 0 6.41 1.731 7.153 4.642h4.281c-.721-5.3-4.971-8.453-11.433-8.453-7.573 0-11.0215 4.2924-11.0215 8.2812 0 5.2285 4.035 6.832 11.0048 7.836 6.78.915 8.0656 2.374 8.0656 4.746 0 2.4717-2.5728 4.9737-7.4893 4.9737-4.2616 0-7.554-2.17-8.2787-5.4248zm30.0523 13.7568c1.1845 5.5342 5.5693 8.956 11.519 8.956 7.027 0 11.748-4.7207 11.748-11.748v-30.65h-4.202V96.624c0 4.542-3.103 7.714-7.546 7.714a7.3272 7.3272 0 0 1-7.6016-7.714V79.4513h-4.146v17.173c0 6.9168 4.831 11.748 11.748 11.748a9.2716 9.2716 0 0 0 7.07-2.7647l.476-.507v5.001c0 4.6144-3.032 7.714-7.5452 7.714-3.6168 0-6.1173-1.7012-7.2433-4.922zm67.83-5.1924h4.2033V90.1377c0-7.04-3.9874-11.413-10.4063-11.413a9.834 9.834 0 0 0-8.767 4.788l-.24.3975-.2335-.4014a9.467 9.467 0 0 0-8.6548-4.7842 9.0763 9.0763 0 0 0-7.44 3.7476l-.496.6665v-3.6875H94.297v28.25H98.5v-17.34c0-4.461 3.0513-7.8257 7.0977-7.8257 4.2978 0 6.7627 2.73 6.7627 7.49v17.6758h4.1465v-17.34c0-4.461 3.027-7.8257 7.042-7.8257 4.396 0 6.818 2.66 6.818 7.49zm67.1123 0h4.1465v-17.06c0-7.3506-4.1372-11.916-10.7978-11.916a10.468 10.468 0 0 0-8.0137 3.5405l-.4824.5512V66.645H178.13v41.0562h4.2022v-17.34a7.5152 7.5152 0 0 1 7.8252-7.714c4.4482 0 7.3222 3.0714 7.3222 7.8253zm24.835-28.9766c-7.9678 0-14.209 6.5606-14.209 14.9356 0 8.25 6.2412 14.712 14.209 14.712s14.209-6.462 14.209-14.712c.0005-8.375-6.2407-14.9356-14.2085-14.9356zm0 25.837c-5.4863 0-9.95-4.8907-9.95-10.9014 0-6.1338 4.464-11.1245 9.95-11.1245 5.517 0 10.006 4.9907 10.006 11.1245 0 6.0107-4.4884 10.9014-10.0055 10.9014zm40.206 3.14h4.1465v-17.06c0-7.3506-4.1372-11.916-10.7978-11.916a10.3067 10.3067 0 0 0-8.1753 3.7568l-.4888.6006v-3.6318h-4.0342v28.25h4.2022v-17.34a7.654 7.654 0 0 1 7.8252-7.8257c4.4482 0 7.3222 3.1157 7.3222 7.937zm12.1968 5.1924c1.1856 5.5342 5.5708 8.956 11.52 8.956 7.027 0 11.748-4.7207 11.748-11.748v-30.65h-4.203v17.172c0 4.542-3.1026 7.714-7.545 7.714a7.327 7.327 0 0 1-7.6015-7.714V79.4513h-4.1465v17.173c0 6.9168 4.831 11.748 11.748 11.748a9.2682 9.2682 0 0 0 7.069-2.7647l.476-.507v5.001c0 4.6144-3.0323 7.714-7.545 7.714-3.6162 0-6.117-1.7012-7.244-4.922zM171.4815 93.4922c0 8.3438-6.192 14.88-14.0967 14.88a12.0476 12.0476 0 0 1-8.05-3.2617v-5.089a9.8628 9.8628 0 0 0 8.05 4.54c5.455 0 9.8936-4.9658 9.8936-11.0693 0-6.041-4.4385-10.9565-9.8936-10.9565s-10.0625 5.017-10.0625 10.9565c0 .02.0024.037.003.0567h-.008l.005 26.958H143.12V79.451h4.034v5.1914l.502-.7246a12.0838 12.0838 0 0 1 9.7286-5.1935c7.9054 0 14.097 6.4864 14.097 14.7676z"/></g></g></g></svg>