<svg width="87" height="75" fill="none" xmlns="http://www.w3.org/2000/svg"><path d="M33.771 24.6v-2.363h12.482v-9.311H33.77v-2.363h12.482V.047H10.32v35.208h35.933V24.6H33.77zM21.195 62.262h2.364V74.4h9.55V62.262h2.411V74.4h10.733V39.19H10.32V74.4h10.875V62.262zM79.823 43.038c-7.328-6.254-18.392-5.976-25.342.834a17.93 17.93 0 0 0-.85 24.83l26.192-25.664zM55.426 70.509c7.328 6.254 18.392 5.976 25.342-.834a17.93 17.93 0 0 0 .85-24.831L55.427 70.509zM68.238.047H50.272v35.208h17.966c9.928 0 17.966-7.876 17.966-17.604 0-9.729-8.037-17.604-17.966-17.604zm1.276 23.673h-2.553V11.582h2.553V23.72z" fill="#858C92"/><path d="M6.444 28.77c.71.787 1.135 1.76 1.135 2.78 0 1.945-.993 3.798-3.546 3.798-2.506 0-3.594-1.853-3.594-3.752 0-.973.331-1.9 1.04-2.641l1.466 1.343c-.33.325-.473.695-.473 1.159 0 .972.71 1.436 1.56 1.436.71 0 1.42-.51 1.42-1.437 0-.463-.19-.926-.568-1.25l1.56-1.436zM.629 23.164v-2.316h6.808v2.316l-.757.139c.662.556.899 1.436.851 2.177-.094 1.992-1.56 3.058-3.546 3.058-2.033 0-3.546-1.297-3.546-3.243 0-.973.331-1.621.899-1.946l-.71-.185zm3.404 2.872c.945 0 1.465-.602 1.465-1.343 0-.834-.662-1.39-1.465-1.39-.946 0-1.513.51-1.513 1.39 0 .741.567 1.343 1.513 1.343zM7.436 15.38H3.654c-.804 0-1.04.278-1.04.695 0 .417.33.88 1.087.88h3.735v2.502H.628v-2.085l.757-.185C.77 16.77.486 16.029.534 15.334c0-.695.33-1.343.945-1.668C.77 13.11.486 12.37.486 11.443c0-1.437.899-2.548 3.168-2.548h3.782v2.501H3.654c-.71 0-.993.324-.993.695 0 .417.284.88 1.04.88h3.735v2.41zM9.28 5.096v2.502H.628V5.374l.756-.093C.722 4.68.486 3.8.534 3.058.627 1.112 1.856 0 4.031 0c2.08 0 3.546 1.297 3.546 3.243 0 .88-.284 1.482-.71 1.853H9.28zm-5.248-2.64c-.946 0-1.513.555-1.513 1.343 0 .834.71 1.343 1.418 1.343.851 0 1.56-.463 1.56-1.343.048-.741-.472-1.344-1.465-1.344z" fill="#A3A8AD"/></svg>