<svg xmlns="http://www.w3.org/2000/svg" viewBox="0 0 147.99375 78.33333"><defs><style>.cls-1{fill:#858c92;}</style></defs><title>cc</title><g id="Color_guide"><path class="cls-1" d="M41.127 37.278c-4.974 0-5.353-3.758-5.353-4.921a4.887 4.887 0 0 1 3.521-4.925c3.267-1.198 3.966-1.338 6.215-2.042v-.589a5.266 5.266 0 0 0-.219-2.03 3.296 3.296 0 0 0-3.354-2.102 4.014 4.014 0 0 0-3.701 2.276l-.918-.54c.586-2.073 2.667-4.133 6.262-4.133 2.557 0 4.229.723 5.247 2.288a9.124 9.124 0 0 1 .846 4.75c0 1.581-.046 3.332-.076 4.752-.027.978-.048 1.819-.048 2.336 0 1.287.204 2.29 1.281 2.29.444 0 .532-.118.912-.424l.588.68c-.968 1.264-2.033 2.305-3.823 2.305a2.662 2.662 0 0 1-2.798-1.858 6.188 6.188 0 0 1-4.581 1.888zm4.384-9.626a20.236 20.236 0 0 0-4.016 1.525 3.027 3.027 0 0 0-1.601 2.874 2.436 2.436 0 0 0 2.731 2.656 4.966 4.966 0 0 0 2.886-.849zm-41.031 8.636c0-1.841.014-3.403-.137-5.291h1.088a3.907 3.907 0 0 0 .845 2.603 6.158 6.158 0 0 0 4.244 1.409c3.486 0 5.113-1.324 5.113-4.16 0-2.433-1.502-3.44-3.581-4.845l-.321-.223-2.19-1.461c-3.048-2.017-4.608-3.635-4.608-6.864 0-1.578.604-6.735 8.277-6.735a38.045 38.045 0 0 1 6.018.492c-.017.244-.041 1.425-.041 2.416 0 1.152 0 1.533.045 2.942h-.931a3.541 3.541 0 0 0-.909-2.573c-.741-.737-2.373-1.081-4.1-1.081-4.069 0-4.547 2.085-4.547 3.654 0 2.162 1.106 2.889 3.515 4.489l2.785 1.838c2.364 1.575 4.592 3.066 4.592 6.989 0 6.641-6.187 7.355-8.847 7.355a19.104 19.104 0 0 1-6.309-.952zm49.489-16.798a16.346 16.346 0 0 0 3.702-.258 7.025 7.025 0 0 0 2.438-.798l.361.217v1.455a9.011 9.011 0 0 1 5.316-1.765c3.295 0 5.454 1.542 6.066 4.347a19.075 19.075 0 0 1 .24 3.275v5.344c0 3.026.12 3.867.684 4.409a2.906 2.906 0 0 0 1.776.529v.857c-1.175-.057-3.269-.175-4.532-.175-1.679 0-3.566.08-4.585.194v-.841a3.16 3.16 0 0 0 1.848-.669c.529-.53.62-1.588.698-3.864.023-.678.042-2.114.042-3.166a37.233 37.233 0 0 0-.158-4.186c-.271-2.371-1.518-3.472-3.883-3.472a7.117 7.117 0 0 0-3.435.767v9.618c0 3.026.119 3.867.697 4.409a2.919 2.919 0 0 0 1.767.529v.858c-1.516-.078-3.336-.177-4.504-.177a37.029 37.029 0 0 0-4.616.194v-.87a2.731 2.731 0 0 0 1.99-.781c.558-.629.591-2.193.591-5.308v-5.233c0-2.267-.044-3.226-.363-3.717-.249-.381-.88-.686-2.139-.67zm22.759 16.743a2.701 2.701 0 0 0 1.993-.775c.566-.638.6-2.184.6-5.299v-9.085h-2.391v-1.029a10.122 10.122 0 0 0 2.391-1.238 32.029 32.029 0 0 1 .277-4.853c.706-3.774 3.188-5.7 7.335-5.7a7.37 7.37 0 0 1 4.621 1.521l.058.386-1.818 2.517-.446.008a3.236 3.236 0 0 0-3.189-2.388 2.758 2.758 0 0 0-1.847.658c-.783.789-.921 1.965-.921 4.304v3.54h4.086v2.274h-4.086v10.163c0 2.407.083 3.589.398 4.066.509.767 2.12.86 2.912.829v.97c-1.347-.082-3.435-.177-4.998-.177a47.954 47.954 0 0 0-4.976.194zm21.077 1.203c-5.593 0-8.936-3.489-8.936-9.314 0-4.539 2.443-9.815 9.32-9.815 5.59 0 8.92 3.474 8.92 9.311 0 4.518-2.436 9.818-9.305 9.818zm.229-17.013a3.882 3.882 0 0 0-2.602.832c-1.464 1.235-2.211 3.469-2.211 6.667 0 1.233.229 7.392 4.738 7.392a3.84 3.84 0 0 0 2.583-.827c1.481-1.235 2.224-3.484 2.224-6.681 0-1.223-.231-7.383-4.732-7.383zm10.924-.996a17.756 17.756 0 0 0 4.004-.329 8.979 8.979 0 0 0 2.173-.612l.334.163v1.59a6.06 6.06 0 0 1 4.23-1.699 4.406 4.406 0 0 1 3.191 1.13v.578l-1.539 2.828h-.75a3.282 3.282 0 0 0-3.051-1.655 3.474 3.474 0 0 0-2.005.58v9.237c0 2.407.078 3.548.394 4.026.509.773 2.031.853 2.903.824v1.015c-1.258-.069-3.428-.177-4.985-.177a47.627 47.627 0 0 0-4.978.194v-.923a2.616 2.616 0 0 0 1.991-.78c.569-.641.597-2.142.597-5.257v-5.234c0-2.265-.017-3.243-.363-3.717-.301-.414-.964-.655-2.145-.669zm25.772-10.109a27.077 27.077 0 0 0 4.304-.514 11.402 11.402 0 0 0 1.99-.483l.32.185c-.157 1.513-.158 4.918-.158 7.33v14.936c0 2.23.037 3.609.354 4.055.288.417.961.698 2.111.7v.98a25.422 25.422 0 0 0-3.937.38 7.865 7.865 0 0 0-2.033.5l-.501-.171v-1.542a8.68 8.68 0 0 1-5.111 1.722c-5.03 0-8.271-3.489-8.271-8.887a12.322 12.322 0 0 1 .978-4.939 9.168 9.168 0 0 1 8.754-5.228 18.032 18.032 0 0 1 3.571.352v-3.897c0-2.284-.034-3.497-.364-3.987-.255-.375-.63-.56-2.005-.66zm-.64 25.451a5.365 5.365 0 0 0 3.009-.74v-12.269a5.099 5.099 0 0 0-3.654-1.226c-3.566 0-5.296 2.442-5.296 7.466 0 2.105.63 6.769 5.94 6.769zm-100.157.521a6.054 6.054 0 0 1-4.96 2.088c-2.83 0-4.409-1.009-5.103-3.275a15.834 15.834 0 0 1-.284-3.729c0-2.932.031-5.279.061-7.996l.011-1.278h-2.417v-.718a8.678 8.678 0 0 0 2.295-1.267 13.491 13.491 0 0 0 3.411-4.402h.806v4.113h6.219v2.274h-6.219v9.617c0 2.877.521 4.513 3.238 4.513a5.363 5.363 0 0 0 2.633-.689zM121.217 52.482a1.669 1.669 0 0 0-.949.298.704.704 0 0 0-.249.564 3.539 3.539 0 0 0 .311 1.146l1.715 4.558c.261.681.444 1.247.567 1.645l2.093-6.234a3.267 3.267 0 0 0 .292-1.156.734.734 0 0 0-.206-.455 1.6 1.6 0 0 0-.979-.337v-.67c.251 0 .803.034 1.055.054.24.02.741.055 1.141.055.78 0 1.858-.068 2.328-.115v.684c-.315.04-1.044-.058-1.618 1.715l-4.479 11.97c-.654 1.727-1.465 3.877-4.605 3.877a3.807 3.807 0 0 1-2.803-.935v-.323l1.104-1.346.312-.005a1.762 1.762 0 0 0 1.781 1.029c1.422 0 2.044-1.222 3.026-3.806l.268-.706-3.812-9.744-.143-.358c-.106-.264-.312-.721-.312-.721a1.136 1.136 0 0 0-1.141-.638v-.692c.724.058 1.959.115 2.603.115.426 0 1.059-.032 1.621-.06.314-.018.835-.042 1.081-.049zm-41.637-.208a11.34 11.34 0 0 0 2.554-.211 5.727 5.727 0 0 0 1.386-.391l.214.105v1.013a3.878 3.878 0 0 1 2.702-1.084 2.814 2.814 0 0 1 2.034.72v.371l-.981 1.805h-.481a2.092 2.092 0 0 0-1.947-1.058 2.223 2.223 0 0 0-1.278.372v5.894a6.133 6.133 0 0 0 .252 2.568c.323.492 1.292.544 1.85.527v.644c-.803-.043-2.187-.111-3.183-.111a30.223 30.223 0 0 0-3.171.125v-.59a1.663 1.663 0 0 0 1.267-.495c.363-.409.378-1.369.378-3.357v-3.338c0-1.446-.009-2.07-.226-2.371-.194-.265-.617-.418-1.37-.426zm-52.491 11.448c-3.328 0-5.237-1.032-6.008-3.248a11.769 11.769 0 0 1-.384-3.657v-6.265c0-1.908-.087-2.193-.439-2.506a2.029 2.029 0 0 0-1.129-.357v-.646c.793.086 2.088.12 2.902.12a27.872 27.872 0 0 0 2.974-.121v.67a1.501 1.501 0 0 0-1.256.461c-.368.408-.386 1.123-.386 3.115v5.551c0 3.272.28 5.42 4.045 5.42 3.742 0 4.023-2.208 4.023-5.567v-6.142c0-1.908-.091-2.193-.438-2.506a2.048 2.048 0 0 0-1.132-.357v-.635c.737.023 1.681.109 2.581.109.865 0 1.737-.023 2.782-.121v.67a1.507 1.507 0 0 0-1.26.461c-.368.411-.389 1.123-.389 3.115v4.692a13.948 13.948 0 0 1-.475 4.496c-.804 2.216-2.713 3.245-6.011 3.245zm22.455-.718a1.891 1.891 0 0 0 1.361-.491c.364-.411.384-1.361.384-3.374v-3.338a5.926 5.926 0 0 0-.232-2.473c-.189-.272-.506-.381-1.336-.438v-.672a10.684 10.684 0 0 0 2.685-.232 4.721 4.721 0 0 0 1.291-.409l.26.257c-.072.75-.103 2.446-.103 4.632v3.414a5.867 5.867 0 0 0 .259 2.56 1.815 1.815 0 0 0 1.434.557v.557c-.707-.041-1.908-.109-2.952-.109-1.166 0-2.41.046-3.051.12zm2.903-13.435a1.409 1.409 0 0 1-1.524-1.455 1.457 1.457 0 0 1 1.571-1.505 1.417 1.417 0 0 1 1.532 1.456 1.461 1.461 0 0 1-1.578 1.504zm46.879 13.435a1.893 1.893 0 0 0 1.358-.491c.36-.411.383-1.361.383-3.374v-3.338a5.9 5.9 0 0 0-.234-2.473c-.188-.272-.504-.381-1.336-.438v-.672a10.676 10.676 0 0 0 2.686-.232 4.683 4.683 0 0 0 1.292-.409l.261.257c-.074.75-.103 2.446-.103 4.632v3.414a5.937 5.937 0 0 0 .257 2.56 1.812 1.812 0 0 0 1.43.557v.557c-.7-.041-1.902-.109-2.946-.109-1.167 0-2.413.046-3.048.12zm2.899-13.435a1.412 1.412 0 0 1-1.525-1.455 1.459 1.459 0 0 1 1.575-1.505 1.418 1.418 0 0 1 1.53 1.456 1.46 1.46 0 0 1-1.579 1.504zm-12.429 13.567a30.452 30.452 0 0 0-.149-3.088h.772a2.4 2.4 0 0 0 .504 1.535 2.321 2.321 0 0 0 2.061.775h.141c1.292 0 1.951-.544 1.951-1.615 0-.878-.561-1.232-1.49-1.819l-1.668-1.032a3.374 3.374 0 0 1-1.901-2.966 2.952 2.952 0 0 1 1.675-2.882 5.762 5.762 0 0 1 2.334-.418 17.478 17.478 0 0 1 3.089.294 12.881 12.881 0 0 0-.072 1.405c0 .241.015 1.355.041 1.556h-.769a2.126 2.126 0 0 0-.437-1.345 2.442 2.442 0 0 0-1.853-.669c-1.182 0-1.788.503-1.788 1.495 0 .818.629 1.201 1.186 1.538l.058.035 1.568.932c1.055.615 2.371 1.381 2.371 3.262 0 3.082-2.803 3.544-4.476 3.544a8.871 8.871 0 0 1-3.149-.537zm24.723-.761a3.856 3.856 0 0 1-3.163 1.335c-1.808 0-2.814-.641-3.255-2.09a10.003 10.003 0 0 1-.183-2.38c0-1.871.015-3.368.037-5.104l.008-.812h-1.542v-.458a5.616 5.616 0 0 0 1.467-.807 8.722 8.722 0 0 0 2.174-2.811h.514v2.623h3.969v1.453h-3.969v6.134c0 1.836.334 2.882 2.065 2.882a3.394 3.394 0 0 0 1.682-.441zm-53.272-10.535c-.234 0-.761.031-1.075.049-.597.028-1.273.06-1.706.06-.855 0-2.129-.077-2.523-.115v.692a1.141 1.141 0 0 1 1.148.684c.139.294.264.586.301.683l.166.409 3.761 9.471 1.16-.2 4.138-9.309.14-.291a7.925 7.925 0 0 1 .374-.741 1.336 1.336 0 0 1 1.213-.69l.025-.707c-.475.032-1.505.115-2.267.115-.4 0-.807-.029-1.198-.055-.281-.017-.784-.046-1.067-.054v.658a1.567 1.567 0 0 1 .984.323.685.685 0 0 1 .204.446 3.008 3.008 0 0 1-.317 1.176l-2.256 5.587c-.107-.335-.261-.798-.481-1.379l-1.607-4.2a3.254 3.254 0 0 1-.292-1.172.582.582 0 0 1 .152-.421 1.393 1.393 0 0 1 1.009-.364zm-25.736.483a10.329 10.329 0 0 0 2.361-.164 4.464 4.464 0 0 0 1.553-.511l.233.137v.93a5.747 5.747 0 0 1 3.393-1.127c2.103 0 3.48.987 3.867 2.774a12.175 12.175 0 0 1 .155 2.091v3.412c0 1.927.075 2.463.437 2.813a1.865 1.865 0 0 0 1.135.337v.546c-.753-.037-2.087-.112-2.894-.112-1.07 0-2.276.048-2.926.121v-.534a2.035 2.035 0 0 0 1.179-.431c.338-.337.398-1.012.446-2.463.014-.434.027-1.35.027-2.022a23.775 23.775 0 0 0-.101-2.668 2.205 2.205 0 0 0-2.48-2.219 4.534 4.534 0 0 0-2.192.494v6.138c0 1.927.078 2.463.444 2.813a1.88 1.88 0 0 0 1.129.337v.546c-.969-.052-2.127-.112-2.874-.112a23.675 23.675 0 0 0-2.944.121v-.552a1.748 1.748 0 0 0 1.269-.498c.354-.403.377-1.402.377-3.389v-3.338a5.414 5.414 0 0 0-.231-2.373c-.16-.244-.564-.435-1.365-.426zm38.322 11.376c-3.518 0-5.451-2.034-5.451-5.728 0-.65.154-6.345 5.508-6.345a4.172 4.172 0 0 1 3.647 1.755 5.72 5.72 0 0 1 .77 3.166v.618h-7.34a9.149 9.149 0 0 0 .118 1.476c.395 2.257 1.655 3.352 3.86 3.352a5.205 5.205 0 0 0 2.777-.689l.348.583a5.368 5.368 0 0 1-4.238 1.811zm-2.837-7.819h4.602c0-1.385-.274-2.965-2.3-2.965-1.885 0-2.262 1.764-2.302 2.965z"/></g></svg>