<svg xmlns="http://www.w3.org/2000/svg" viewBox="0 0 127.15983 50.8166"><defs><style>.cls-1{fill:#858c92;}</style></defs><title>cc</title><g id="Color_guide"><path class="cls-1" d="M23.876 47.415a21.875 21.875 0 0 1-10.281-2.553l-.09-.043a22.024 22.024 0 0 1-5.975-4.68l-.003-.004a21.963 21.963 0 0 1-5.657-14.687v-.086a22.006 22.006 0 1 1 22.006 22.052zm-6.939-3.666a19.607 19.607 0 1 0 2.142-37.354 21.979 21.979 0 0 1 8.814 13.133l.001.004a22.101 22.101 0 0 1 .549 4.876 21.871 21.871 0 0 1-11.506 19.342zm-7.116-4.682a19.739 19.739 0 0 0 4.332 3.364 19.498 19.498 0 0 0 11.892-18.024 19.695 19.695 0 0 0-.491-4.35v-.003a19.594 19.594 0 0 0-9.389-12.673l-.293.128a19.636 19.636 0 0 0-11.603 17.858v.077a19.483 19.483 0 0 0 3.029 10.424 18.503 18.503 0 0 1 5.76-12.454 4.198 4.198 0 1 1 1.51 1.875 16.104 16.104 0 0 0-4.898 11.564 16.364 16.364 0 0 0 .151 2.213zm7.119-19.021a1.792 1.792 0 1 0 1.792 1.792 1.794 1.794 0 0 0-1.792-1.792zM51.378 17.267v-.497h.635a.44.44 0 0 0 .325-.152.457.457 0 0 0 .145-.317v-7.704a.485.485 0 0 0-.145-.325.433.433 0 0 0-.325-.158h-.635v-.511h3.494v.511h-1.533v8.616h4.446l.124-2.141h.622v2.679zM59.925 17.267v-.497h.676a.427.427 0 0 0 .401-.4v-5.371a.406.406 0 0 0-.125-.283.372.372 0 0 0-.276-.131h-.746v-.525h1.74c.138 0 .207.144.207.429v5.882a.426.426 0 0 0 .4.4h.69v.497zm1.767-8.381a.567.567 0 1 1 .152-.387.525.525 0 0 1-.152.387zM64.191 17.267v-.497h.607a.426.426 0 0 0 .4-.4v-5.371a.407.407 0 0 0-.124-.283.373.373 0 0 0-.276-.131h-.677v-.525h1.629c.157 0 .239.157.249.47v.801a4.686 4.686 0 0 1 3.065-1.339 2.281 2.281 0 0 1 1.422.394 1.671 1.671 0 0 1 .511 1.401v4.584a.427.427 0 0 0 .4.4h.539v.497h-2.982v-.497h1.243v-4.75a1.364 1.364 0 0 0-.352-1.091 1.609 1.609 0 0 0-1.042-.29 4.531 4.531 0 0 0-2.803 1.188v4.943h1.243v.497zM76.094 17.323a3.425 3.425 0 0 1-1.104-.173 2.816 2.816 0 0 1-.959-.566 2.594 2.594 0 0 1-.704-1.118 5.18 5.18 0 0 1-.256-1.719 5.054 5.054 0 0 1 .283-1.768 2.782 2.782 0 0 1 .767-1.174 3.309 3.309 0 0 1 1.035-.614 3.37 3.37 0 0 1 1.16-.2 3.025 3.025 0 0 1 2.43 1.035v-2.913h-1.215v-.511h1.823c.129 0 .193.082.193.248v8.506a.407.407 0 0 0 .124.283.376.376 0 0 0 .276.131h.622v.497h-1.616q-.193 0-.207-.456v-.883a3.124 3.124 0 0 1-2.651 1.395zm.097-.539a3.169 3.169 0 0 0 2.555-1.422v-3.783a3.436 3.436 0 0 0-1.001-.739 3.088 3.088 0 0 0-1.305-.241 2.758 2.758 0 0 0-.904.145 2.488 2.488 0 0 0-.808.477 2.238 2.238 0 0 0-.615.974 4.57 4.57 0 0 0-.228 1.525 3.368 3.368 0 0 0 .669 2.375 2.191 2.191 0 0 0 1.636.69zM84.337 17.323a6.531 6.531 0 0 1-2.389-.4v-1.354h.538a2.666 2.666 0 0 0 .131.718.52.52 0 0 0 .297.304 4.194 4.194 0 0 0 1.408.207q1.989 0 1.989-1.546a1.003 1.003 0 0 0-.456-.912 4.351 4.351 0 0 0-1.519-.469 4.012 4.012 0 0 1-1.698-.594 1.543 1.543 0 0 1-.539-1.326 1.737 1.737 0 0 1 .649-1.449 2.93 2.93 0 0 1 1.85-.511 6.041 6.041 0 0 1 2.223.345v1.271h-.525a2.32 2.32 0 0 0-.138-.621.57.57 0 0 0-.29-.276 3.623 3.623 0 0 0-1.284-.166 2.134 2.134 0 0 0-1.319.346 1.147 1.147 0 0 0-.449.966 1.004 1.004 0 0 0 .407.905 4.116 4.116 0 0 0 1.457.448 4.401 4.401 0 0 1 1.802.621 1.526 1.526 0 0 1 .573 1.326q0 2.168-2.72 2.168zM90.868 17.337a2.676 2.676 0 0 1-1.747-.525 1.913 1.913 0 0 1-.642-1.573 1.77 1.77 0 0 1 .78-1.574 3.696 3.696 0 0 1 2.092-.525 7.292 7.292 0 0 1 1.878.222v-1.298a1.373 1.373 0 0 0-.449-1.167 2.089 2.089 0 0 0-1.277-.339 3.107 3.107 0 0 0-2.154.719h-.4v-.677a5.262 5.262 0 0 1 2.624-.607 3.098 3.098 0 0 1 1.822.455 1.774 1.774 0 0 1 .635 1.547v4.184q0 .608.566.607l.359-.041v.455a1.383 1.383 0 0 1-.622.125q-1.104 0-1.104-.967v-.152a2.891 2.891 0 0 1-2.361 1.133zm.111-.553a2.451 2.451 0 0 0 1.263-.304 3.787 3.787 0 0 0 .987-.87v-1.739a7.696 7.696 0 0 0-1.74-.207q-2.237 0-2.237 1.574 0 1.545 1.726 1.546zM96.971 19.504v-.497a3.808 3.808 0 0 0 2.043-2.044l-2.513-5.868q-.235-.511-.621-.511h-.263v-.525h2.693v.525h-1.188l2.306 5.495 1.975-4.847a.543.543 0 0 0 .014-.462.379.379 0 0 0-.373-.187h-.58v-.525h2.596v.525h-.317q-.373 0-.594.511l-2.43 5.771a5.091 5.091 0 0 1-2.085 2.638zM54.167 31.365l-2.099-8.299a.759.759 0 0 0-.221-.324.5.5 0 0 0-.332-.131h-.249v-.911h3.507l.069.911h-1.229l1.616 6.683h.042l2.016-7.594h1.298l2.03 7.594h.027l1.436-5.771q.29-.911-.497-.911h-.539v-.911h3.286v.911h-.234a.611.611 0 0 0-.594.497l-2.168 8.257h-1.726l-1.822-6.876h-.028l-1.864 6.876zM65.076 31.365v-.884h.539a.404.404 0 0 0 .373-.373v-4.653a.392.392 0 0 0-.117-.255.328.328 0 0 0-.242-.131h-.607v-.939h2.182q.276 0 .276.635v5.344a.405.405 0 0 0 .373.373h.539v.884zm2.223-8.243a.826.826 0 0 1-.608.248.838.838 0 0 1-.607-.241.85.85 0 0 1 0-1.201.839.839 0 0 1 .607-.242.827.827 0 0 1 .608.249.834.834 0 0 1 0 1.188zM69.452 31.365v-.884h.524a.38.38 0 0 0 .263-.117.348.348 0 0 0 .124-.256v-7.11a.383.383 0 0 0-.124-.256.364.364 0 0 0-.263-.131h-.566v-.911h2.168q.276 0 .276.372v8.036a.405.405 0 0 0 .373.373h.539v.884zM76.701 31.448a3.279 3.279 0 0 1-1.091-.18 2.843 2.843 0 0 1-.959-.58 2.641 2.641 0 0 1-.704-1.132 5.232 5.232 0 0 1-.256-1.727 4.996 4.996 0 0 1 .283-1.753 2.936 2.936 0 0 1 .759-1.188 3.326 3.326 0 0 1 1.008-.636 3.24 3.24 0 0 1 3.334.649v-2.292h-1.049v-.911h2.264q.276 0 .276.372v8.022a.379.379 0 0 0 .117.263.347.347 0 0 0 .256.124h.538v.884h-2.085q-.276 0-.29-.994a3.019 3.019 0 0 1-2.402 1.077zm.428-.925a2.608 2.608 0 0 0 1.947-.967v-3.853a2.743 2.743 0 0 0-1.74-.607 2.004 2.004 0 0 0-1.505.614 2.943 2.943 0 0 0-.594 2.078q0 2.733 1.892 2.734zM82.555 31.365v-.884h.524a.38.38 0 0 0 .263-.117.348.348 0 0 0 .124-.256v-7.11a.383.383 0 0 0-.124-.256.364.364 0 0 0-.263-.131h-.566v-.911h2.168q.276 0 .276.372v8.036a.405.405 0 0 0 .373.373h.539v.884zM86.932 31.365v-.884h.539a.404.404 0 0 0 .373-.373v-4.653a.392.392 0 0 0-.117-.255.328.328 0 0 0-.242-.131h-.607v-.939h2.182q.276 0 .276.635v5.344a.405.405 0 0 0 .373.373h.539v.884zm2.223-8.243a.826.826 0 0 1-.608.248.838.838 0 0 1-.607-.241.85.85 0 0 1 0-1.201.839.839 0 0 1 .607-.242.827.827 0 0 1 .608.249.834.834 0 0 1 0 1.188zM91.309 31.365v-.884h.511a.379.379 0 0 0 .262-.117.347.347 0 0 0 .125-.256v-5.039h-.953v-.939h.953v-.621q0-1.919 2.113-1.92a3.419 3.419 0 0 1 1.132.166v.856h-.69a1.351 1.351 0 0 0-.801.193.878.878 0 0 0-.262.745v.58h1.519v.939h-1.519v5.039a.404.404 0 0 0 .373.373h.704v.884zM99.649 31.448a3.624 3.624 0 0 1-2.734-.974 3.727 3.727 0 0 1-.939-2.699 3.77 3.77 0 0 1 .966-2.721 3.377 3.377 0 0 1 2.555-1.008q3.203 0 3.203 3.479l-.007.283-.007.173h-5.15q.083 2.514 2.223 2.513a2.268 2.268 0 0 0 1.864-.814h.856v1.021a5.042 5.042 0 0 1-2.831.746zm-2.085-4.363h3.631a2.646 2.646 0 0 0-.462-1.615 1.528 1.528 0 0 0-1.236-.497 1.75 1.75 0 0 0-1.333.531 2.581 2.581 0 0 0-.601 1.581zM51.378 44.592v-.497h.635a.44.44 0 0 0 .325-.152.457.457 0 0 0 .145-.317v-7.704a.485.485 0 0 0-.145-.325.433.433 0 0 0-.325-.158h-.635v-.511h7.139v2.319h-.58l-.138-1.781h-4.46v3.866h2.568l.11-1.229h.566v3.01h-.566l-.11-1.243h-2.568v4.185h4.625l.125-1.947h.607v2.485zM60.118 44.592v-.497h.428a.743.743 0 0 0 .622-.345l1.975-2.831-1.878-2.526q-.36-.483-.704-.483h-.511v-.525h2.762v.525h-.953l1.905 2.609 1.422-2.154a.33.33 0 0 0 .055-.311.235.235 0 0 0-.249-.145h-.456v-.525h2.43v.525h-.414a.738.738 0 0 0-.594.358l-1.823 2.624 2.03 2.72a1.608 1.608 0 0 0 .366.339.691.691 0 0 0 .366.145h.235v.497h-2.637v-.497h1.091l-2.057-2.803-1.561 2.306a.384.384 0 0 0-.069.345.235.235 0 0 0 .249.152h.4v.497zM68.389 46.83v-.47h.607a.426.426 0 0 0 .4-.4v-7.636a.407.407 0 0 0-.124-.283.373.373 0 0 0-.276-.131h-.677v-.525h1.629q.249 0 .249.539v.855a3.488 3.488 0 0 1 2.762-1.463 2.714 2.714 0 0 1 2.016.849 3.8 3.8 0 0 1 .828 2.728 5.043 5.043 0 0 1-.276 1.753 2.729 2.729 0 0 1-.752 1.153 3.141 3.141 0 0 1-1.015.594 3.486 3.486 0 0 1-1.146.187 3.133 3.133 0 0 1-2.417-.953v2.734h1.284v.47zm4.101-2.79a2.721 2.721 0 0 0 .877-.138 2.535 2.535 0 0 0 .794-.456 2.075 2.075 0 0 0 .607-.959 4.751 4.751 0 0 0 .221-1.54 3.338 3.338 0 0 0-.656-2.34 2.159 2.159 0 0 0-1.623-.684 3.297 3.297 0 0 0-2.513 1.422v3.7a2.924 2.924 0 0 0 2.292.994zM80.871 44.648a3.433 3.433 0 0 1-2.624-.967 3.731 3.731 0 0 1-.911-2.665 3.808 3.808 0 0 1 .932-2.692 3.148 3.148 0 0 1 2.423-1.008 3.053 3.053 0 0 1 2.271.828 3.478 3.478 0 0 1 .822 2.541l-.007.145-.007.124v.063h-5.62a3.451 3.451 0 0 0 .711 2.313 2.6 2.6 0 0 0 2.064.794 2.72 2.72 0 0 0 2.209-.842h.469v.565a4.31 4.31 0 0 1-2.734.802zm-2.692-4.17h4.805q-.056-2.638-2.292-2.638a2.332 2.332 0 0 0-1.74.69 3.014 3.014 0 0 0-.773 1.947zM85.027 44.592v-.497h.607a.426.426 0 0 0 .4-.4v-5.371a.407.407 0 0 0-.124-.283.373.373 0 0 0-.276-.131h-.677v-.525h1.629q.249 0 .249.497v.912a3.094 3.094 0 0 1 2.389-1.45 1.144 1.144 0 0 1 .345.041v.663l-.317-.014a2.528 2.528 0 0 0-1.284.311 4.808 4.808 0 0 0-1.132.974v4.777h1.326v.497zM90.937 44.592v-.497h.676a.427.427 0 0 0 .401-.4v-5.371a.406.406 0 0 0-.125-.283.372.372 0 0 0-.276-.131h-.746v-.525h1.74c.138 0 .207.144.207.429v5.882a.426.426 0 0 0 .4.4h.69v.497zm1.767-8.381a.567.567 0 1 1 .152-.387.525.525 0 0 1-.152.387zM98.503 44.648a3.433 3.433 0 0 1-2.624-.967 3.731 3.731 0 0 1-.911-2.665 3.808 3.808 0 0 1 .932-2.692 3.148 3.148 0 0 1 2.423-1.008 3.053 3.053 0 0 1 2.271.828 3.478 3.478 0 0 1 .822 2.541l-.007.145-.007.124v.063h-5.62a3.451 3.451 0 0 0 .711 2.313 2.6 2.6 0 0 0 2.064.794 2.72 2.72 0 0 0 2.209-.842h.469v.565a4.31 4.31 0 0 1-2.734.802zm-2.692-4.17h4.805q-.056-2.638-2.292-2.638a2.332 2.332 0 0 0-1.74.69 3.014 3.014 0 0 0-.773 1.947zM102.66 44.592v-.497h.607a.426.426 0 0 0 .4-.4v-5.371a.407.407 0 0 0-.124-.283.373.373 0 0 0-.276-.131h-.677v-.525h1.629c.157 0 .239.157.249.47v.801a4.686 4.686 0 0 1 3.065-1.339 2.281 2.281 0 0 1 1.422.394 1.671 1.671 0 0 1 .511 1.401v4.584a.427.427 0 0 0 .4.4h.539v.497h-2.982v-.497h1.243v-4.75a1.364 1.364 0 0 0-.352-1.091 1.609 1.609 0 0 0-1.042-.29 4.531 4.531 0 0 0-2.803 1.188v4.943h1.243v.497zM114.962 44.648a3.339 3.339 0 0 1-2.582-.974 3.831 3.831 0 0 1-.897-2.699 3.624 3.624 0 0 1 .98-2.672 3.477 3.477 0 0 1 2.582-.987 5.665 5.665 0 0 1 2.333.414v1.325h-.552a1.897 1.897 0 0 0-.145-.684.782.782 0 0 0-.38-.311 3.15 3.15 0 0 0-1.271-.207 2.552 2.552 0 0 0-1.995.821 3.341 3.341 0 0 0-.739 2.313 3.513 3.513 0 0 0 .684 2.319 2.457 2.457 0 0 0 1.995.814 2.339 2.339 0 0 0 2.085-.911h.442v.58a3.567 3.567 0 0 1-2.541.856zM122.376 44.648a3.433 3.433 0 0 1-2.624-.967 3.731 3.731 0 0 1-.911-2.665 3.808 3.808 0 0 1 .932-2.692 3.148 3.148 0 0 1 2.423-1.008 3.053 3.053 0 0 1 2.271.828 3.478 3.478 0 0 1 .822 2.541l-.007.145-.007.124v.063h-5.62a3.451 3.451 0 0 0 .711 2.313 2.6 2.6 0 0 0 2.064.794 2.72 2.72 0 0 0 2.209-.842h.469v.565a4.31 4.31 0 0 1-2.734.802zm-2.692-4.17h4.805q-.056-2.638-2.292-2.638a2.332 2.332 0 0 0-1.74.69 3.014 3.014 0 0 0-.773 1.947z"/></g></svg>