<svg xmlns="http://www.w3.org/2000/svg" viewBox="0 0 97.92266 37.1876"><defs><style>.cls-1,.cls-2{fill:#858c92;}.cls-2{font-size:1.75486px;font-family:MyriadPro-Regular, Myriad Pro;}</style></defs><title>cc</title><g id="Color_guide"><path class="cls-1" d="M1.803 9.139h11.864a9.439 9.439 0 0 1 9.306 9.567 9.438 9.438 0 0 1-9.306 9.567h-5.365v-3.827h4.692a5.742 5.742 0 0 0 0-11.48h-7.415v15.307h-3.775zM12.724 22.149h-4.422v-6.888h4.422a3.445 3.445 0 0 1 0 6.888"/><path class="cls-1" d="M29.777 21.867h1.705c1.109 0 2.168-.701 2.168-2.679 0-1.803-.609-2.955-2.509-2.955h-1.363zm-1.912-7.286h3.751c2.253 0 3.945 1.452 3.945 4.419 0 2.592-1.291 4.52-3.945 4.52h-3.751zM36.754 17.048h1.729v6.472h-1.729zm1.729-1.001h-1.729v-1.465h1.729zM41.186 21.416c.012.776.645 1.089 1.327 1.089.5 0 1.133-.2 1.133-.826 0-.538-.719-.726-1.962-1.001-.999-.225-1.997-.588-1.997-1.727 0-1.652 1.389-2.078 2.741-2.078 1.375 0 2.642.475 2.776 2.065h-1.644c-.049-.688-.561-.876-1.181-.876-.389 0-.962.075-.962.601 0 .638.974.726 1.96.964 1.011.237 1.997.614 1.997 1.815 0 1.703-1.436 2.253-2.873 2.253-1.462 0-2.886-.563-2.959-2.278zM51.062 20.302c0-1.027-.402-2.091-1.51-2.091-1.132 0-1.497 1.04-1.497 2.091 0 1.052.39 2.053 1.51 2.053 1.132 0 1.497-1.002 1.497-2.053m-4.675-3.255h1.644v.826h.025a2.077 2.077 0 0 1 1.875-1.001c1.972 0 2.861 1.639 2.861 3.479 0 1.728-.925 3.342-2.764 3.342a2.218 2.218 0 0 1-1.888-.976h-.024v3.079h-1.729zM53.875 14.581h1.729v8.938h-1.729zM60.889 20.352a3.365 3.365 0 0 1-1.436.376c-.536.113-1.023.3-1.023.951 0 .663.499.826 1.059.826a1.308 1.308 0 0 0 1.4-1.489zm-3.994-1.314c.097-1.665 1.546-2.165 2.959-2.165 1.254 0 2.764.288 2.764 1.84v3.368a3.401 3.401 0 0 0 .219 1.44h-1.754a2.672 2.672 0 0 1-.121-.626 2.842 2.842 0 0 1-2.119.801 1.895 1.895 0 0 1-2.143-1.94c0-1.465 1.071-1.815 2.143-1.966 1.06-.163 2.045-.125 2.045-.852 0-.763-.512-.876-1.12-.876a.992.992 0 0 0-1.144.976zM67.062 24.334a1.977 1.977 0 0 1-2.167 1.464 10.125 10.125 0 0 1-1.06-.063v-1.464a9.21 9.21 0 0 0 1.01.063.842.842 0 0 0 .598-1.215l-2.216-6.072h1.851l1.424 4.431h.025l1.376-4.431h1.789zM72.371 18.788h1.486c.888 0 1.68-.2 1.68-1.34 0-1.139-.792-1.339-1.68-1.339h-1.486zm-1.911-4.207h3.921a2.723 2.723 0 0 1 3.009 2.867 2.723 2.723 0 0 1-3.009 2.867h-2.009v3.205h-1.911zM80.929 22.356c1.181 0 1.535-1.04 1.535-2.066 0-1.039-.353-2.078-1.535-2.078-1.168 0-1.522 1.04-1.522 2.078 0 1.026.353 2.066 1.522 2.066m0-5.483a3.137 3.137 0 0 1 3.264 3.417 3.261 3.261 0 1 1-6.516 0 3.134 3.134 0 0 1 3.251-3.417"/><path class="cls-1" d="M85.313 17.048h1.644v1.202h.025a2.225 2.225 0 0 1 2.008-1.377 1.261 1.261 0 0 1 .378.062v1.653a3.073 3.073 0 0 0-.621-.062c-1.267 0-1.705.938-1.705 2.078v2.916h-1.729zM92.241 17.048h1.267v1.189h-1.267v3.204c0 .601.146.752.731.752a2.58 2.58 0 0 0 .536-.05v1.39a6.445 6.445 0 0 1-1.011.062c-1.06 0-1.984-.25-1.984-1.539v-3.818h-1.048v-1.189h1.048v-1.941h1.728zM23.407 8.916a.903.903 0 1 1-.885.898.885.885 0 0 1 .885-.898m0 1.673a.771.771 0 1 0-.726-.775.736.736 0 0 0 .726.775m-.343-1.299h.397c.244 0 .359.099.359.302a.268.268 0 0 1-.27.287l.293.466h-.171l-.28-.454h-.169v.454h-.16zm.16.468h.167c.141 0 .27-.007.27-.174 0-.14-.117-.162-.226-.162h-.211z"/><text class="cls-2" transform="translate(93.837 15.733) scale(1 1.028)">TM</text></g></svg>